<svg width="524" height="134" viewBox="0 0 524 134" fill="none" xmlns="http://www.w3.org/2000/svg">
<rect width="524" height="134" fill="#F2F4F8"/>
<path d="M24.6484 30.1719V32H18.5938V30.1719H24.6484ZM19.3594 20.625V32H17.0156V20.625H19.3594ZM23.8594 25.2578V27.0391H18.5938V25.2578H23.8594ZM24.6406 20.625V22.4609H18.5938V20.625H24.6406ZM28.0781 25.3516V32H25.8281V23.5469H27.9375L28.0781 25.3516ZM27.75 27.4766H27.1406C27.1406 26.8516 27.2214 26.2891 27.3828 25.7891C27.5443 25.2839 27.7708 24.8542 28.0625 24.5C28.3542 24.1406 28.7005 23.8672 29.1016 23.6797C29.5078 23.487 29.9609 23.3906 30.4609 23.3906C30.8568 23.3906 31.2188 23.4479 31.5469 23.5625C31.875 23.6771 32.1562 23.8594 32.3906 24.1094C32.6302 24.3594 32.8125 24.6901 32.9375 25.1016C33.0677 25.513 33.1328 26.0156 33.1328 26.6094V32H30.8672V26.6016C30.8672 26.2266 30.8151 25.9349 30.7109 25.7266C30.6068 25.5182 30.4531 25.3724 30.25 25.2891C30.0521 25.2005 29.8073 25.1562 29.5156 25.1562C29.2135 25.1562 28.9505 25.2161 28.7266 25.3359C28.5078 25.4557 28.3255 25.6224 28.1797 25.8359C28.0391 26.0443 27.9323 26.2891 27.8594 26.5703C27.7865 26.8516 27.75 27.1536 27.75 27.4766ZM40.1953 23.5469H42.2344V31.7188C42.2344 32.4896 42.0625 33.1432 41.7188 33.6797C41.3802 34.2214 40.9062 34.6302 40.2969 34.9062C39.6875 35.1875 38.9792 35.3281 38.1719 35.3281C37.8177 35.3281 37.4427 35.2812 37.0469 35.1875C36.6562 35.0938 36.2812 34.9479 35.9219 34.75C35.5677 34.5521 35.2708 34.3021 35.0312 34L36.0234 32.6719C36.2839 32.974 36.5859 33.2083 36.9297 33.375C37.2734 33.5469 37.6536 33.6328 38.0703 33.6328C38.4766 33.6328 38.8203 33.5573 39.1016 33.4062C39.3828 33.2604 39.599 33.0443 39.75 32.7578C39.901 32.4766 39.9766 32.1354 39.9766 31.7344V25.5L40.1953 23.5469ZM34.5078 27.875V27.7109C34.5078 27.0651 34.5859 26.4792 34.7422 25.9531C34.9036 25.4219 35.1302 24.9661 35.4219 24.5859C35.7188 24.2057 36.0781 23.9115 36.5 23.7031C36.9219 23.4948 37.3984 23.3906 37.9297 23.3906C38.4922 23.3906 38.9635 23.4948 39.3438 23.7031C39.724 23.9115 40.0365 24.2083 40.2812 24.5938C40.526 24.974 40.7161 25.4245 40.8516 25.9453C40.9922 26.4609 41.1016 27.026 41.1797 27.6406V28C41.1016 28.5885 40.9844 29.1354 40.8281 29.6406C40.6719 30.1458 40.4661 30.5885 40.2109 30.9688C39.9557 31.3438 39.638 31.6354 39.2578 31.8438C38.8828 32.0521 38.4349 32.1562 37.9141 32.1562C37.3932 32.1562 36.9219 32.0495 36.5 31.8359C36.0833 31.6224 35.7266 31.3229 35.4297 30.9375C35.1328 30.5521 34.9036 30.099 34.7422 29.5781C34.5859 29.0573 34.5078 28.4896 34.5078 27.875ZM36.7578 27.7109V27.875C36.7578 28.224 36.7917 28.5495 36.8594 28.8516C36.9271 29.1536 37.0312 29.4219 37.1719 29.6562C37.3177 29.8854 37.4974 30.0651 37.7109 30.1953C37.9297 30.3203 38.1875 30.3828 38.4844 30.3828C38.8958 30.3828 39.2318 30.2969 39.4922 30.125C39.7526 29.9479 39.9479 29.7057 40.0781 29.3984C40.2083 29.0911 40.2839 28.737 40.3047 28.3359V27.3125C40.2943 26.9844 40.25 26.6901 40.1719 26.4297C40.0938 26.1641 39.9844 25.9375 39.8438 25.75C39.7031 25.5625 39.5208 25.4167 39.2969 25.3125C39.0729 25.2083 38.8073 25.1562 38.5 25.1562C38.2031 25.1562 37.9453 25.224 37.7266 25.3594C37.513 25.4896 37.3333 25.6693 37.1875 25.8984C37.0469 26.1276 36.9401 26.3984 36.8672 26.7109C36.7943 27.0182 36.7578 27.3516 36.7578 27.7109ZM46.3594 20V32H44.1016V20H46.3594ZM50.5938 23.5469V32H48.3359V23.5469H50.5938ZM48.1953 21.3438C48.1953 21.0156 48.3099 20.7448 48.5391 20.5312C48.7682 20.3177 49.0755 20.2109 49.4609 20.2109C49.8411 20.2109 50.1458 20.3177 50.375 20.5312C50.6094 20.7448 50.7266 21.0156 50.7266 21.3438C50.7266 21.6719 50.6094 21.9427 50.375 22.1562C50.1458 22.3698 49.8411 22.4766 49.4609 22.4766C49.0755 22.4766 48.7682 22.3698 48.5391 22.1562C48.3099 21.9427 48.1953 21.6719 48.1953 21.3438ZM57.0234 29.6641C57.0234 29.5026 56.9766 29.3568 56.8828 29.2266C56.7891 29.0964 56.6146 28.9766 56.3594 28.8672C56.1094 28.7526 55.7474 28.6484 55.2734 28.5547C54.8464 28.4609 54.4479 28.3438 54.0781 28.2031C53.7135 28.0573 53.3958 27.8828 53.125 27.6797C52.8594 27.4766 52.651 27.237 52.5 26.9609C52.349 26.6797 52.2734 26.3594 52.2734 26C52.2734 25.6458 52.349 25.3125 52.5 25C52.6562 24.6875 52.8776 24.4115 53.1641 24.1719C53.4557 23.9271 53.8099 23.737 54.2266 23.6016C54.6484 23.4609 55.1224 23.3906 55.6484 23.3906C56.3828 23.3906 57.013 23.5078 57.5391 23.7422C58.0703 23.9766 58.4766 24.2995 58.7578 24.7109C59.0443 25.1172 59.1875 25.5807 59.1875 26.1016H56.9375C56.9375 25.8828 56.8906 25.6875 56.7969 25.5156C56.7083 25.3385 56.5677 25.2005 56.375 25.1016C56.1875 24.9974 55.9427 24.9453 55.6406 24.9453C55.3906 24.9453 55.1745 24.9896 54.9922 25.0781C54.8099 25.1615 54.6693 25.276 54.5703 25.4219C54.4766 25.5625 54.4297 25.7188 54.4297 25.8906C54.4297 26.0208 54.4557 26.138 54.5078 26.2422C54.5651 26.3411 54.6562 26.4323 54.7812 26.5156C54.9062 26.599 55.0677 26.6771 55.2656 26.75C55.4688 26.8177 55.7188 26.8802 56.0156 26.9375C56.625 27.0625 57.1693 27.2266 57.6484 27.4297C58.1276 27.6276 58.5078 27.8984 58.7891 28.2422C59.0703 28.5807 59.2109 29.026 59.2109 29.5781C59.2109 29.9531 59.1276 30.2969 58.9609 30.6094C58.7943 30.9219 58.5547 31.1953 58.2422 31.4297C57.9297 31.6589 57.5547 31.8385 57.1172 31.9688C56.6849 32.0938 56.1979 32.1562 55.6562 32.1562C54.8698 32.1562 54.2031 32.0156 53.6562 31.7344C53.1146 31.4531 52.7031 31.0964 52.4219 30.6641C52.1458 30.2266 52.0078 29.7786 52.0078 29.3203H54.1406C54.151 29.6276 54.2292 29.875 54.375 30.0625C54.526 30.25 54.7161 30.3854 54.9453 30.4688C55.1797 30.5521 55.4323 30.5938 55.7031 30.5938C55.9948 30.5938 56.237 30.5547 56.4297 30.4766C56.6224 30.3932 56.7682 30.2839 56.8672 30.1484C56.9714 30.0078 57.0234 29.8464 57.0234 29.6641ZM62.8672 20V32H60.6172V20H62.8672ZM62.5469 27.4766H61.9297C61.9349 26.888 62.013 26.3464 62.1641 25.8516C62.3151 25.3516 62.5312 24.9193 62.8125 24.5547C63.0938 24.1849 63.4297 23.8984 63.8203 23.6953C64.2161 23.4922 64.6536 23.3906 65.1328 23.3906C65.5495 23.3906 65.9271 23.4505 66.2656 23.5703C66.6094 23.6849 66.9036 23.8724 67.1484 24.1328C67.3984 24.388 67.5911 24.724 67.7266 25.1406C67.862 25.5573 67.9297 26.0625 67.9297 26.6562V32H65.6641V26.6406C65.6641 26.2656 65.6094 25.9714 65.5 25.7578C65.3958 25.5391 65.2422 25.3854 65.0391 25.2969C64.8411 25.2031 64.5964 25.1562 64.3047 25.1562C63.9818 25.1562 63.7057 25.2161 63.4766 25.3359C63.2526 25.4557 63.0729 25.6224 62.9375 25.8359C62.8021 26.0443 62.7031 26.2891 62.6406 26.5703C62.5781 26.8516 62.5469 27.1536 62.5469 27.4766ZM76 20V32H73.7422V20H76ZM81.75 32.1562C81.0938 32.1562 80.5052 32.0521 79.9844 31.8438C79.4635 31.6302 79.0208 31.3359 78.6562 30.9609C78.2969 30.5859 78.0208 30.151 77.8281 29.6562C77.6354 29.1562 77.5391 28.625 77.5391 28.0625V27.75C77.5391 27.1094 77.6302 26.5234 77.8125 25.9922C77.9948 25.4609 78.2552 25 78.5938 24.6094C78.9375 24.2188 79.3542 23.9193 79.8438 23.7109C80.3333 23.4974 80.8854 23.3906 81.5 23.3906C82.099 23.3906 82.6302 23.4896 83.0938 23.6875C83.5573 23.8854 83.9453 24.1667 84.2578 24.5312C84.5755 24.8958 84.8151 25.3333 84.9766 25.8438C85.138 26.349 85.2188 26.9115 85.2188 27.5312V28.4688H78.5V26.9688H83.0078V26.7969C83.0078 26.4844 82.9505 26.2057 82.8359 25.9609C82.7266 25.7109 82.5599 25.513 82.3359 25.3672C82.112 25.2214 81.8255 25.1484 81.4766 25.1484C81.1797 25.1484 80.9245 25.2135 80.7109 25.3438C80.4974 25.474 80.3229 25.6562 80.1875 25.8906C80.0573 26.125 79.9583 26.401 79.8906 26.7188C79.8281 27.0312 79.7969 27.375 79.7969 27.75V28.0625C79.7969 28.401 79.8438 28.7135 79.9375 29C80.0365 29.2865 80.1745 29.5339 80.3516 29.7422C80.5339 29.9505 80.7526 30.112 81.0078 30.2266C81.2682 30.3411 81.5625 30.3984 81.8906 30.3984C82.2969 30.3984 82.6745 30.3203 83.0234 30.1641C83.3776 30.0026 83.6823 29.7604 83.9375 29.4375L85.0312 30.625C84.8542 30.8802 84.612 31.125 84.3047 31.3594C84.0026 31.5938 83.638 31.7865 83.2109 31.9375C82.7839 32.0833 82.2969 32.1562 81.75 32.1562ZM91.0625 30.0938V26.3281C91.0625 26.0573 91.0182 25.8255 90.9297 25.6328C90.8411 25.4349 90.7031 25.2812 90.5156 25.1719C90.3333 25.0625 90.0964 25.0078 89.8047 25.0078C89.5547 25.0078 89.3385 25.0521 89.1562 25.1406C88.974 25.224 88.8333 25.3464 88.7344 25.5078C88.6354 25.6641 88.5859 25.849 88.5859 26.0625H86.3359C86.3359 25.7031 86.4193 25.362 86.5859 25.0391C86.7526 24.7161 86.9948 24.4323 87.3125 24.1875C87.6302 23.9375 88.0078 23.7422 88.4453 23.6016C88.888 23.4609 89.3828 23.3906 89.9297 23.3906C90.5859 23.3906 91.1693 23.5 91.6797 23.7188C92.1901 23.9375 92.5911 24.2656 92.8828 24.7031C93.1797 25.1406 93.3281 25.6875 93.3281 26.3438V29.9609C93.3281 30.4245 93.3568 30.8047 93.4141 31.1016C93.4714 31.3932 93.5547 31.6484 93.6641 31.8672V32H91.3906C91.2812 31.7708 91.1979 31.4844 91.1406 31.1406C91.0885 30.7917 91.0625 30.4427 91.0625 30.0938ZM91.3594 26.8516L91.375 28.125H90.1172C89.8203 28.125 89.5625 28.1589 89.3438 28.2266C89.125 28.2943 88.9453 28.3906 88.8047 28.5156C88.6641 28.6354 88.5599 28.776 88.4922 28.9375C88.4297 29.099 88.3984 29.276 88.3984 29.4688C88.3984 29.6615 88.4427 29.8359 88.5312 29.9922C88.6198 30.1432 88.7474 30.263 88.9141 30.3516C89.0807 30.4349 89.276 30.4766 89.5 30.4766C89.8385 30.4766 90.1328 30.4089 90.3828 30.2734C90.6328 30.138 90.8255 29.9714 90.9609 29.7734C91.1016 29.5755 91.1745 29.388 91.1797 29.2109L91.7734 30.1641C91.6901 30.3776 91.5755 30.599 91.4297 30.8281C91.2891 31.0573 91.1094 31.2734 90.8906 31.4766C90.6719 31.6745 90.4089 31.8385 90.1016 31.9688C89.7943 32.0938 89.4297 32.1562 89.0078 32.1562C88.4714 32.1562 87.9844 32.0495 87.5469 31.8359C87.1146 31.6172 86.7708 31.3177 86.5156 30.9375C86.2656 30.5521 86.1406 30.1146 86.1406 29.625C86.1406 29.1823 86.224 28.7891 86.3906 28.4453C86.5573 28.1016 86.8021 27.8125 87.125 27.5781C87.4531 27.3385 87.862 27.1589 88.3516 27.0391C88.8411 26.9141 89.4089 26.8516 90.0547 26.8516H91.3594ZM97.3125 25.3906V32H95.0625V23.5469H97.1797L97.3125 25.3906ZM99.8594 23.4922L99.8203 25.5781C99.7109 25.5625 99.5781 25.5495 99.4219 25.5391C99.2708 25.5234 99.1328 25.5156 99.0078 25.5156C98.6901 25.5156 98.4141 25.5573 98.1797 25.6406C97.9505 25.7188 97.7578 25.8359 97.6016 25.9922C97.4505 26.1484 97.3359 26.3385 97.2578 26.5625C97.1849 26.7865 97.1432 27.0417 97.1328 27.3281L96.6797 27.1875C96.6797 26.6406 96.7344 26.138 96.8438 25.6797C96.9531 25.2161 97.112 24.8125 97.3203 24.4688C97.5339 24.125 97.7943 23.8594 98.1016 23.6719C98.4089 23.4844 98.7604 23.3906 99.1562 23.3906C99.2812 23.3906 99.4089 23.401 99.5391 23.4219C99.6693 23.4375 99.776 23.4609 99.8594 23.4922ZM103.125 25.3516V32H100.875V23.5469H102.984L103.125 25.3516ZM102.797 27.4766H102.188C102.188 26.8516 102.268 26.2891 102.43 25.7891C102.591 25.2839 102.818 24.8542 103.109 24.5C103.401 24.1406 103.747 23.8672 104.148 23.6797C104.555 23.487 105.008 23.3906 105.508 23.3906C105.904 23.3906 106.266 23.4479 106.594 23.5625C106.922 23.6771 107.203 23.8594 107.438 24.1094C107.677 24.3594 107.859 24.6901 107.984 25.1016C108.115 25.513 108.18 26.0156 108.18 26.6094V32H105.914V26.6016C105.914 26.2266 105.862 25.9349 105.758 25.7266C105.654 25.5182 105.5 25.3724 105.297 25.2891C105.099 25.2005 104.854 25.1562 104.562 25.1562C104.26 25.1562 103.997 25.2161 103.773 25.3359C103.555 25.4557 103.372 25.6224 103.227 25.8359C103.086 26.0443 102.979 26.2891 102.906 26.5703C102.833 26.8516 102.797 27.1536 102.797 27.4766ZM113.781 32.1562C113.125 32.1562 112.536 32.0521 112.016 31.8438C111.495 31.6302 111.052 31.3359 110.688 30.9609C110.328 30.5859 110.052 30.151 109.859 29.6562C109.667 29.1562 109.57 28.625 109.57 28.0625V27.75C109.57 27.1094 109.661 26.5234 109.844 25.9922C110.026 25.4609 110.286 25 110.625 24.6094C110.969 24.2188 111.385 23.9193 111.875 23.7109C112.365 23.4974 112.917 23.3906 113.531 23.3906C114.13 23.3906 114.661 23.4896 115.125 23.6875C115.589 23.8854 115.977 24.1667 116.289 24.5312C116.607 24.8958 116.846 25.3333 117.008 25.8438C117.169 26.349 117.25 26.9115 117.25 27.5312V28.4688H110.531V26.9688H115.039V26.7969C115.039 26.4844 114.982 26.2057 114.867 25.9609C114.758 25.7109 114.591 25.513 114.367 25.3672C114.143 25.2214 113.857 25.1484 113.508 25.1484C113.211 25.1484 112.956 25.2135 112.742 25.3438C112.529 25.474 112.354 25.6562 112.219 25.8906C112.089 26.125 111.99 26.401 111.922 26.7188C111.859 27.0312 111.828 27.375 111.828 27.75V28.0625C111.828 28.401 111.875 28.7135 111.969 29C112.068 29.2865 112.206 29.5339 112.383 29.7422C112.565 29.9505 112.784 30.112 113.039 30.2266C113.299 30.3411 113.594 30.3984 113.922 30.3984C114.328 30.3984 114.706 30.3203 115.055 30.1641C115.409 30.0026 115.714 29.7604 115.969 29.4375L117.062 30.625C116.885 30.8802 116.643 31.125 116.336 31.3594C116.034 31.5938 115.669 31.7865 115.242 31.9375C114.815 32.0833 114.328 32.1562 113.781 32.1562ZM120.781 25.3906V32H118.531V23.5469H120.648L120.781 25.3906ZM123.328 23.4922L123.289 25.5781C123.18 25.5625 123.047 25.5495 122.891 25.5391C122.74 25.5234 122.602 25.5156 122.477 25.5156C122.159 25.5156 121.883 25.5573 121.648 25.6406C121.419 25.7188 121.227 25.8359 121.07 25.9922C120.919 26.1484 120.805 26.3385 120.727 26.5625C120.654 26.7865 120.612 27.0417 120.602 27.3281L120.148 27.1875C120.148 26.6406 120.203 26.138 120.312 25.6797C120.422 25.2161 120.581 24.8125 120.789 24.4688C121.003 24.125 121.263 23.8594 121.57 23.6719C121.878 23.4844 122.229 23.3906 122.625 23.3906C122.75 23.3906 122.878 23.401 123.008 23.4219C123.138 23.4375 123.245 23.4609 123.328 23.4922ZM128.227 28.5234H126.234C126.24 28.0547 126.276 27.651 126.344 27.3125C126.417 26.9688 126.539 26.6589 126.711 26.3828C126.888 26.1068 127.122 25.8333 127.414 25.5625C127.659 25.3438 127.872 25.1354 128.055 24.9375C128.237 24.7396 128.38 24.5365 128.484 24.3281C128.589 24.1146 128.641 23.8776 128.641 23.6172C128.641 23.3151 128.594 23.0651 128.5 22.8672C128.411 22.6641 128.276 22.5104 128.094 22.4062C127.917 22.3021 127.693 22.25 127.422 22.25C127.198 22.25 126.99 22.2995 126.797 22.3984C126.604 22.4922 126.445 22.638 126.32 22.8359C126.201 23.0339 126.138 23.2943 126.133 23.6172H123.867C123.883 22.9036 124.047 22.3151 124.359 21.8516C124.677 21.3828 125.102 21.0365 125.633 20.8125C126.164 20.5833 126.76 20.4688 127.422 20.4688C128.151 20.4688 128.776 20.5885 129.297 20.8281C129.818 21.0625 130.216 21.4089 130.492 21.8672C130.768 22.3203 130.906 22.8724 130.906 23.5234C130.906 23.9766 130.818 24.3802 130.641 24.7344C130.464 25.0833 130.232 25.4089 129.945 25.7109C129.659 26.013 129.344 26.3255 129 26.6484C128.703 26.9141 128.5 27.1927 128.391 27.4844C128.286 27.776 128.232 28.1224 128.227 28.5234ZM126 30.9375C126 30.6042 126.115 30.3281 126.344 30.1094C126.573 29.8854 126.88 29.7734 127.266 29.7734C127.646 29.7734 127.951 29.8854 128.18 30.1094C128.414 30.3281 128.531 30.6042 128.531 30.9375C128.531 31.2604 128.414 31.5339 128.18 31.7578C127.951 31.9818 127.646 32.0938 127.266 32.0938C126.88 32.0938 126.573 31.9818 126.344 31.7578C126.115 31.5339 126 31.2604 126 30.9375Z" fill="#21272A"/>
<path d="M392.75 28.2266H395.086C395.039 28.9922 394.828 29.6719 394.453 30.2656C394.083 30.8594 393.565 31.3229 392.898 31.6562C392.237 31.9896 391.44 32.1562 390.508 32.1562C389.779 32.1562 389.125 32.0312 388.547 31.7812C387.969 31.526 387.474 31.1615 387.062 30.6875C386.656 30.2135 386.346 29.6406 386.133 28.9688C385.919 28.2969 385.812 27.5443 385.812 26.7109V25.9219C385.812 25.0885 385.922 24.3359 386.141 23.6641C386.365 22.987 386.682 22.4115 387.094 21.9375C387.51 21.4635 388.008 21.099 388.586 20.8438C389.164 20.5885 389.81 20.4609 390.523 20.4609C391.471 20.4609 392.271 20.6328 392.922 20.9766C393.578 21.3203 394.086 21.7943 394.445 22.3984C394.81 23.0026 395.029 23.6901 395.102 24.4609H392.758C392.732 24.0026 392.641 23.6146 392.484 23.2969C392.328 22.974 392.091 22.7318 391.773 22.5703C391.461 22.4036 391.044 22.3203 390.523 22.3203C390.133 22.3203 389.792 22.3932 389.5 22.5391C389.208 22.6849 388.964 22.9062 388.766 23.2031C388.568 23.5 388.419 23.875 388.32 24.3281C388.227 24.776 388.18 25.3021 388.18 25.9062V26.7109C388.18 27.2995 388.224 27.8177 388.312 28.2656C388.401 28.7083 388.536 29.0833 388.719 29.3906C388.906 29.6927 389.146 29.9219 389.438 30.0781C389.734 30.2292 390.091 30.3047 390.508 30.3047C390.997 30.3047 391.401 30.2266 391.719 30.0703C392.036 29.9141 392.279 29.6823 392.445 29.375C392.617 29.0677 392.719 28.6849 392.75 28.2266ZM396.125 27.8594V27.6953C396.125 27.0755 396.214 26.5052 396.391 25.9844C396.568 25.4583 396.826 25.0026 397.164 24.6172C397.503 24.2318 397.919 23.9323 398.414 23.7188C398.909 23.5 399.477 23.3906 400.117 23.3906C400.758 23.3906 401.328 23.5 401.828 23.7188C402.328 23.9323 402.747 24.2318 403.086 24.6172C403.43 25.0026 403.69 25.4583 403.867 25.9844C404.044 26.5052 404.133 27.0755 404.133 27.6953V27.8594C404.133 28.474 404.044 29.0443 403.867 29.5703C403.69 30.0911 403.43 30.5469 403.086 30.9375C402.747 31.3229 402.331 31.6224 401.836 31.8359C401.341 32.0495 400.773 32.1562 400.133 32.1562C399.492 32.1562 398.922 32.0495 398.422 31.8359C397.927 31.6224 397.508 31.3229 397.164 30.9375C396.826 30.5469 396.568 30.0911 396.391 29.5703C396.214 29.0443 396.125 28.474 396.125 27.8594ZM398.375 27.6953V27.8594C398.375 28.2135 398.406 28.5443 398.469 28.8516C398.531 29.1589 398.63 29.4297 398.766 29.6641C398.906 29.8932 399.089 30.0729 399.312 30.2031C399.536 30.3333 399.81 30.3984 400.133 30.3984C400.445 30.3984 400.714 30.3333 400.938 30.2031C401.161 30.0729 401.341 29.8932 401.477 29.6641C401.612 29.4297 401.711 29.1589 401.773 28.8516C401.841 28.5443 401.875 28.2135 401.875 27.8594V27.6953C401.875 27.3516 401.841 27.0286 401.773 26.7266C401.711 26.4193 401.609 26.1484 401.469 25.9141C401.333 25.6745 401.154 25.487 400.93 25.3516C400.706 25.2161 400.435 25.1484 400.117 25.1484C399.799 25.1484 399.529 25.2161 399.305 25.3516C399.086 25.487 398.906 25.6745 398.766 25.9141C398.63 26.1484 398.531 26.4193 398.469 26.7266C398.406 27.0286 398.375 27.3516 398.375 27.6953ZM410.516 29.9766V23.5469H412.766V32H410.648L410.516 29.9766ZM410.766 28.2422L411.43 28.2266C411.43 28.7891 411.365 29.3125 411.234 29.7969C411.104 30.276 410.909 30.6927 410.648 31.0469C410.388 31.3958 410.06 31.6693 409.664 31.8672C409.268 32.0599 408.802 32.1562 408.266 32.1562C407.854 32.1562 407.474 32.099 407.125 31.9844C406.781 31.8646 406.484 31.6797 406.234 31.4297C405.99 31.1745 405.797 30.849 405.656 30.4531C405.521 30.0521 405.453 29.5703 405.453 29.0078V23.5469H407.703V29.0234C407.703 29.2734 407.732 29.4844 407.789 29.6562C407.852 29.8281 407.938 29.9688 408.047 30.0781C408.156 30.1875 408.284 30.2656 408.43 30.3125C408.581 30.3594 408.747 30.3828 408.93 30.3828C409.393 30.3828 409.758 30.2891 410.023 30.1016C410.294 29.9141 410.484 29.6589 410.594 29.3359C410.708 29.0078 410.766 28.6432 410.766 28.2422ZM416.688 25.3516V32H414.438V23.5469H416.547L416.688 25.3516ZM416.359 27.4766H415.75C415.75 26.8516 415.831 26.2891 415.992 25.7891C416.154 25.2839 416.38 24.8542 416.672 24.5C416.964 24.1406 417.31 23.8672 417.711 23.6797C418.117 23.487 418.57 23.3906 419.07 23.3906C419.466 23.3906 419.828 23.4479 420.156 23.5625C420.484 23.6771 420.766 23.8594 421 24.1094C421.24 24.3594 421.422 24.6901 421.547 25.1016C421.677 25.513 421.742 26.0156 421.742 26.6094V32H419.477V26.6016C419.477 26.2266 419.424 25.9349 419.32 25.7266C419.216 25.5182 419.062 25.3724 418.859 25.2891C418.661 25.2005 418.417 25.1562 418.125 25.1562C417.823 25.1562 417.56 25.2161 417.336 25.3359C417.117 25.4557 416.935 25.6224 416.789 25.8359C416.648 26.0443 416.542 26.2891 416.469 26.5703C416.396 26.8516 416.359 27.1536 416.359 27.4766ZM427.594 23.5469V25.1406H422.672V23.5469H427.594ZM423.891 21.4609H426.141V29.4531C426.141 29.6979 426.172 29.8854 426.234 30.0156C426.302 30.1458 426.401 30.237 426.531 30.2891C426.661 30.3359 426.826 30.3594 427.023 30.3594C427.164 30.3594 427.289 30.3542 427.398 30.3438C427.513 30.3281 427.609 30.3125 427.688 30.2969L427.695 31.9531C427.503 32.0156 427.294 32.0651 427.07 32.1016C426.846 32.138 426.599 32.1562 426.328 32.1562C425.833 32.1562 425.401 32.0755 425.031 31.9141C424.667 31.7474 424.385 31.4818 424.188 31.1172C423.99 30.7526 423.891 30.2734 423.891 29.6797V21.4609Z" fill="#21272A"/>
<path d="M457.523 27.9453H454.625V26.1172H457.523C457.971 26.1172 458.336 26.0443 458.617 25.8984C458.898 25.7474 459.104 25.5391 459.234 25.2734C459.365 25.0078 459.43 24.7083 459.43 24.375C459.43 24.0365 459.365 23.7214 459.234 23.4297C459.104 23.138 458.898 22.9036 458.617 22.7266C458.336 22.5495 457.971 22.4609 457.523 22.4609H455.438V32H453.094V20.625H457.523C458.414 20.625 459.177 20.7865 459.812 21.1094C460.453 21.4271 460.943 21.8672 461.281 22.4297C461.62 22.9922 461.789 23.6354 461.789 24.3594C461.789 25.0938 461.62 25.7292 461.281 26.2656C460.943 26.8021 460.453 27.2161 459.812 27.5078C459.177 27.7995 458.414 27.9453 457.523 27.9453ZM467.047 32.1562C466.391 32.1562 465.802 32.0521 465.281 31.8438C464.76 31.6302 464.318 31.3359 463.953 30.9609C463.594 30.5859 463.318 30.151 463.125 29.6562C462.932 29.1562 462.836 28.625 462.836 28.0625V27.75C462.836 27.1094 462.927 26.5234 463.109 25.9922C463.292 25.4609 463.552 25 463.891 24.6094C464.234 24.2188 464.651 23.9193 465.141 23.7109C465.63 23.4974 466.182 23.3906 466.797 23.3906C467.396 23.3906 467.927 23.4896 468.391 23.6875C468.854 23.8854 469.242 24.1667 469.555 24.5312C469.872 24.8958 470.112 25.3333 470.273 25.8438C470.435 26.349 470.516 26.9115 470.516 27.5312V28.4688H463.797V26.9688H468.305V26.7969C468.305 26.4844 468.247 26.2057 468.133 25.9609C468.023 25.7109 467.857 25.513 467.633 25.3672C467.409 25.2214 467.122 25.1484 466.773 25.1484C466.477 25.1484 466.221 25.2135 466.008 25.3438C465.794 25.474 465.62 25.6562 465.484 25.8906C465.354 26.125 465.255 26.401 465.188 26.7188C465.125 27.0312 465.094 27.375 465.094 27.75V28.0625C465.094 28.401 465.141 28.7135 465.234 29C465.333 29.2865 465.471 29.5339 465.648 29.7422C465.831 29.9505 466.049 30.112 466.305 30.2266C466.565 30.3411 466.859 30.3984 467.188 30.3984C467.594 30.3984 467.971 30.3203 468.32 30.1641C468.674 30.0026 468.979 29.7604 469.234 29.4375L470.328 30.625C470.151 30.8802 469.909 31.125 469.602 31.3594C469.299 31.5938 468.935 31.7865 468.508 31.9375C468.081 32.0833 467.594 32.1562 467.047 32.1562ZM474.047 25.3906V32H471.797V23.5469H473.914L474.047 25.3906ZM476.594 23.4922L476.555 25.5781C476.445 25.5625 476.312 25.5495 476.156 25.5391C476.005 25.5234 475.867 25.5156 475.742 25.5156C475.424 25.5156 475.148 25.5573 474.914 25.6406C474.685 25.7188 474.492 25.8359 474.336 25.9922C474.185 26.1484 474.07 26.3385 473.992 26.5625C473.919 26.7865 473.878 27.0417 473.867 27.3281L473.414 27.1875C473.414 26.6406 473.469 26.138 473.578 25.6797C473.688 25.2161 473.846 24.8125 474.055 24.4688C474.268 24.125 474.529 23.8594 474.836 23.6719C475.143 23.4844 475.495 23.3906 475.891 23.3906C476.016 23.3906 476.143 23.401 476.273 23.4219C476.404 23.4375 476.51 23.4609 476.594 23.4922ZM480.992 30.3984C481.268 30.3984 481.513 30.3464 481.727 30.2422C481.94 30.1328 482.107 29.9818 482.227 29.7891C482.352 29.5911 482.417 29.3594 482.422 29.0938H484.539C484.534 29.6875 484.375 30.2161 484.062 30.6797C483.75 31.138 483.331 31.5 482.805 31.7656C482.279 32.026 481.69 32.1562 481.039 32.1562C480.383 32.1562 479.81 32.0469 479.32 31.8281C478.836 31.6094 478.432 31.3073 478.109 30.9219C477.786 30.5312 477.544 30.0781 477.383 29.5625C477.221 29.0417 477.141 28.4844 477.141 27.8906V27.6641C477.141 27.0651 477.221 26.5078 477.383 25.9922C477.544 25.4714 477.786 25.0182 478.109 24.6328C478.432 24.2422 478.836 23.9375 479.32 23.7188C479.805 23.5 480.372 23.3906 481.023 23.3906C481.716 23.3906 482.323 23.5234 482.844 23.7891C483.37 24.0547 483.781 24.4349 484.078 24.9297C484.38 25.4193 484.534 26 484.539 26.6719H482.422C482.417 26.3906 482.357 26.1354 482.242 25.9062C482.133 25.6771 481.971 25.4948 481.758 25.3594C481.549 25.2188 481.292 25.1484 480.984 25.1484C480.656 25.1484 480.388 25.2188 480.18 25.3594C479.971 25.4948 479.81 25.6823 479.695 25.9219C479.581 26.1562 479.5 26.4245 479.453 26.7266C479.411 27.0234 479.391 27.3359 479.391 27.6641V27.8906C479.391 28.2188 479.411 28.5339 479.453 28.8359C479.495 29.138 479.573 29.4062 479.688 29.6406C479.807 29.875 479.971 30.0599 480.18 30.1953C480.388 30.3307 480.659 30.3984 480.992 30.3984ZM489.734 32.1562C489.078 32.1562 488.49 32.0521 487.969 31.8438C487.448 31.6302 487.005 31.3359 486.641 30.9609C486.281 30.5859 486.005 30.151 485.812 29.6562C485.62 29.1562 485.523 28.625 485.523 28.0625V27.75C485.523 27.1094 485.615 26.5234 485.797 25.9922C485.979 25.4609 486.24 25 486.578 24.6094C486.922 24.2188 487.339 23.9193 487.828 23.7109C488.318 23.4974 488.87 23.3906 489.484 23.3906C490.083 23.3906 490.615 23.4896 491.078 23.6875C491.542 23.8854 491.93 24.1667 492.242 24.5312C492.56 24.8958 492.799 25.3333 492.961 25.8438C493.122 26.349 493.203 26.9115 493.203 27.5312V28.4688H486.484V26.9688H490.992V26.7969C490.992 26.4844 490.935 26.2057 490.82 25.9609C490.711 25.7109 490.544 25.513 490.32 25.3672C490.096 25.2214 489.81 25.1484 489.461 25.1484C489.164 25.1484 488.909 25.2135 488.695 25.3438C488.482 25.474 488.307 25.6562 488.172 25.8906C488.042 26.125 487.943 26.401 487.875 26.7188C487.812 27.0312 487.781 27.375 487.781 27.75V28.0625C487.781 28.401 487.828 28.7135 487.922 29C488.021 29.2865 488.159 29.5339 488.336 29.7422C488.518 29.9505 488.737 30.112 488.992 30.2266C489.253 30.3411 489.547 30.3984 489.875 30.3984C490.281 30.3984 490.659 30.3203 491.008 30.1641C491.362 30.0026 491.667 29.7604 491.922 29.4375L493.016 30.625C492.839 30.8802 492.596 31.125 492.289 31.3594C491.987 31.5938 491.622 31.7865 491.195 31.9375C490.768 32.0833 490.281 32.1562 489.734 32.1562ZM496.688 25.3516V32H494.438V23.5469H496.547L496.688 25.3516ZM496.359 27.4766H495.75C495.75 26.8516 495.831 26.2891 495.992 25.7891C496.154 25.2839 496.38 24.8542 496.672 24.5C496.964 24.1406 497.31 23.8672 497.711 23.6797C498.117 23.487 498.57 23.3906 499.07 23.3906C499.466 23.3906 499.828 23.4479 500.156 23.5625C500.484 23.6771 500.766 23.8594 501 24.1094C501.24 24.3594 501.422 24.6901 501.547 25.1016C501.677 25.513 501.742 26.0156 501.742 26.6094V32H499.477V26.6016C499.477 26.2266 499.424 25.9349 499.32 25.7266C499.216 25.5182 499.062 25.3724 498.859 25.2891C498.661 25.2005 498.417 25.1562 498.125 25.1562C497.823 25.1562 497.56 25.2161 497.336 25.3359C497.117 25.4557 496.935 25.6224 496.789 25.8359C496.648 26.0443 496.542 26.2891 496.469 26.5703C496.396 26.8516 496.359 27.1536 496.359 27.4766ZM507.594 23.5469V25.1406H502.672V23.5469H507.594ZM503.891 21.4609H506.141V29.4531C506.141 29.6979 506.172 29.8854 506.234 30.0156C506.302 30.1458 506.401 30.237 506.531 30.2891C506.661 30.3359 506.826 30.3594 507.023 30.3594C507.164 30.3594 507.289 30.3542 507.398 30.3438C507.513 30.3281 507.609 30.3125 507.688 30.2969L507.695 31.9531C507.503 32.0156 507.294 32.0651 507.07 32.1016C506.846 32.138 506.599 32.1562 506.328 32.1562C505.833 32.1562 505.401 32.0755 505.031 31.9141C504.667 31.7474 504.385 31.4818 504.188 31.1172C503.99 30.7526 503.891 30.2734 503.891 29.6797V21.4609Z" fill="#21272A"/>
<path d="M23.9997 72.7098C20.3177 72.7098 17.333 69.7251 17.333 66.0431C17.333 62.3611 20.3177 59.3765 23.9997 59.3765C27.6817 59.3765 30.6663 62.3611 30.6663 66.0431C30.6663 69.7251 27.6817 72.7098 23.9997 72.7098Z" fill="#A2A9B0"/>
<path d="M46.0703 59.625V71H44.5547L38.8281 62.2266V71H37.3203V59.625H38.8281L44.5781 68.4219V59.625H46.0703ZM48.1406 66.8672V66.6875C48.1406 66.0781 48.2292 65.513 48.4062 64.9922C48.5833 64.4661 48.8385 64.0104 49.1719 63.625C49.5052 63.2344 49.9089 62.9323 50.3828 62.7188C50.8568 62.5 51.388 62.3906 51.9766 62.3906C52.5703 62.3906 53.1042 62.5 53.5781 62.7188C54.0573 62.9323 54.4635 63.2344 54.7969 63.625C55.1354 64.0104 55.3932 64.4661 55.5703 64.9922C55.7474 65.513 55.8359 66.0781 55.8359 66.6875V66.8672C55.8359 67.4766 55.7474 68.0417 55.5703 68.5625C55.3932 69.0833 55.1354 69.5391 54.7969 69.9297C54.4635 70.3151 54.0599 70.6172 53.5859 70.8359C53.1172 71.0495 52.5859 71.1562 51.9922 71.1562C51.3984 71.1562 50.8646 71.0495 50.3906 70.8359C49.9167 70.6172 49.5104 70.3151 49.1719 69.9297C48.8385 69.5391 48.5833 69.0833 48.4062 68.5625C48.2292 68.0417 48.1406 67.4766 48.1406 66.8672ZM49.5859 66.6875V66.8672C49.5859 67.2891 49.6354 67.6875 49.7344 68.0625C49.8333 68.4323 49.9818 68.7604 50.1797 69.0469C50.3828 69.3333 50.6354 69.5599 50.9375 69.7266C51.2396 69.888 51.5911 69.9688 51.9922 69.9688C52.388 69.9688 52.7344 69.888 53.0312 69.7266C53.3333 69.5599 53.5833 69.3333 53.7812 69.0469C53.9792 68.7604 54.1276 68.4323 54.2266 68.0625C54.3307 67.6875 54.3828 67.2891 54.3828 66.8672V66.6875C54.3828 66.2708 54.3307 65.8776 54.2266 65.5078C54.1276 65.1328 53.9766 64.8021 53.7734 64.5156C53.5755 64.224 53.3255 63.9948 53.0234 63.8281C52.7266 63.6615 52.3776 63.5781 51.9766 63.5781C51.5807 63.5781 51.2318 63.6615 50.9297 63.8281C50.6328 63.9948 50.3828 64.224 50.1797 64.5156C49.9818 64.8021 49.8333 65.1328 49.7344 65.5078C49.6354 65.8776 49.5859 66.2708 49.5859 66.6875Z" fill="#21272A"/>
<path d="M376.539 59.5625V71H375.094V61.3672L372.18 62.4297V61.125L376.312 59.5625H376.539ZM388.141 59.625V60.4375L383.43 71H381.906L386.609 60.8125H380.453V59.625H388.141ZM397.477 67.1719V68.3594H389.258V67.5078L394.352 59.625H395.531L394.266 61.9062L390.898 67.1719H397.477ZM395.891 59.625V71H394.445V59.625H395.891ZM400.258 69.2812V70.4453C400.258 70.9193 400.138 71.4193 399.898 71.9453C399.659 72.4766 399.323 72.9193 398.891 73.2734L398.07 72.7031C398.237 72.474 398.378 72.2396 398.492 72C398.607 71.7656 398.693 71.5208 398.75 71.2656C398.812 71.0156 398.844 70.75 398.844 70.4688V69.2812H400.258ZM407.492 59.6094H407.617V60.8359H407.492C406.727 60.8359 406.086 60.9609 405.57 61.2109C405.055 61.4557 404.646 61.7865 404.344 62.2031C404.042 62.6146 403.823 63.0781 403.688 63.5938C403.557 64.1094 403.492 64.6328 403.492 65.1641V66.8359C403.492 67.3411 403.552 67.7891 403.672 68.1797C403.792 68.5651 403.956 68.8906 404.164 69.1562C404.372 69.4219 404.607 69.6224 404.867 69.7578C405.133 69.8932 405.409 69.9609 405.695 69.9609C406.029 69.9609 406.326 69.8984 406.586 69.7734C406.846 69.6432 407.065 69.4635 407.242 69.2344C407.424 69 407.562 68.724 407.656 68.4062C407.75 68.0885 407.797 67.7396 407.797 67.3594C407.797 67.0208 407.755 66.6953 407.672 66.3828C407.589 66.0651 407.461 65.7839 407.289 65.5391C407.117 65.2891 406.901 65.0938 406.641 64.9531C406.385 64.8073 406.081 64.7344 405.727 64.7344C405.326 64.7344 404.951 64.8333 404.602 65.0312C404.258 65.224 403.974 65.4792 403.75 65.7969C403.531 66.1094 403.406 66.4505 403.375 66.8203L402.609 66.8125C402.682 66.2292 402.818 65.7318 403.016 65.3203C403.219 64.9036 403.469 64.5651 403.766 64.3047C404.068 64.0391 404.404 63.8464 404.773 63.7266C405.148 63.6016 405.544 63.5391 405.961 63.5391C406.529 63.5391 407.018 63.6458 407.43 63.8594C407.841 64.0729 408.18 64.3594 408.445 64.7188C408.711 65.0729 408.906 65.474 409.031 65.9219C409.161 66.3646 409.227 66.8203 409.227 67.2891C409.227 67.8255 409.151 68.3281 409 68.7969C408.849 69.2656 408.622 69.6771 408.32 70.0312C408.023 70.3854 407.656 70.6615 407.219 70.8594C406.781 71.0573 406.273 71.1562 405.695 71.1562C405.081 71.1562 404.544 71.0312 404.086 70.7812C403.628 70.526 403.247 70.1875 402.945 69.7656C402.643 69.3438 402.417 68.875 402.266 68.3594C402.115 67.8438 402.039 67.3203 402.039 66.7891V66.1094C402.039 65.3073 402.12 64.5208 402.281 63.75C402.443 62.9792 402.721 62.2812 403.117 61.6562C403.518 61.0312 404.073 60.5339 404.781 60.1641C405.49 59.7943 406.393 59.6094 407.492 59.6094ZM418.297 59.625V60.4375L413.586 71H412.062L416.766 60.8125H410.609V59.625H418.297ZM421.773 65.5859L420.617 65.2891L421.188 59.625H427.023V60.9609H422.414L422.07 64.0547C422.279 63.9349 422.542 63.8229 422.859 63.7188C423.182 63.6146 423.552 63.5625 423.969 63.5625C424.495 63.5625 424.966 63.6536 425.383 63.8359C425.799 64.013 426.154 64.2682 426.445 64.6016C426.742 64.9349 426.969 65.3359 427.125 65.8047C427.281 66.2734 427.359 66.7969 427.359 67.375C427.359 67.9219 427.284 68.4245 427.133 68.8828C426.987 69.3411 426.766 69.7422 426.469 70.0859C426.172 70.4245 425.797 70.6875 425.344 70.875C424.896 71.0625 424.367 71.1562 423.758 71.1562C423.299 71.1562 422.865 71.0938 422.453 70.9688C422.047 70.8385 421.682 70.6432 421.359 70.3828C421.042 70.1172 420.781 69.7891 420.578 69.3984C420.38 69.0026 420.255 68.5391 420.203 68.0078H421.578C421.641 68.4349 421.766 68.7943 421.953 69.0859C422.141 69.3776 422.385 69.599 422.688 69.75C422.995 69.8958 423.352 69.9688 423.758 69.9688C424.102 69.9688 424.406 69.9089 424.672 69.7891C424.938 69.6693 425.161 69.4974 425.344 69.2734C425.526 69.0495 425.664 68.7786 425.758 68.4609C425.857 68.1432 425.906 67.7865 425.906 67.3906C425.906 67.0312 425.857 66.6979 425.758 66.3906C425.659 66.0833 425.51 65.8151 425.312 65.5859C425.12 65.3568 424.883 65.1797 424.602 65.0547C424.32 64.9245 423.997 64.8594 423.633 64.8594C423.148 64.8594 422.781 64.9245 422.531 65.0547C422.286 65.1849 422.034 65.362 421.773 65.5859Z" fill="#21272A"/>
<rect x="444" y="54" width="64" height="24" rx="12" fill="#F2F4F8"/>
<path d="M460.38 68.3066C460.38 68.9128 460.239 69.4277 459.956 69.8516C459.678 70.2708 459.3 70.5898 458.821 70.8086C458.347 71.0273 457.812 71.1367 457.215 71.1367C456.618 71.1367 456.08 71.0273 455.602 70.8086C455.123 70.5898 454.745 70.2708 454.467 69.8516C454.189 69.4277 454.05 68.9128 454.05 68.3066C454.05 67.9102 454.125 67.5479 454.275 67.2197C454.43 66.887 454.647 66.5977 454.925 66.3516C455.207 66.1055 455.54 65.9163 455.923 65.7842C456.31 65.6475 456.736 65.5791 457.201 65.5791C457.812 65.5791 458.356 65.6976 458.835 65.9346C459.313 66.167 459.689 66.4883 459.963 66.8984C460.241 67.3086 460.38 67.778 460.38 68.3066ZM459.108 68.2793C459.108 67.9102 459.029 67.5843 458.869 67.3018C458.71 67.0146 458.486 66.7913 458.199 66.6318C457.912 66.4723 457.579 66.3926 457.201 66.3926C456.814 66.3926 456.479 66.4723 456.196 66.6318C455.918 66.7913 455.702 67.0146 455.547 67.3018C455.392 67.5843 455.314 67.9102 455.314 68.2793C455.314 68.6621 455.39 68.9902 455.54 69.2637C455.695 69.5326 455.914 69.7399 456.196 69.8857C456.483 70.027 456.823 70.0977 457.215 70.0977C457.607 70.0977 457.944 70.027 458.227 69.8857C458.509 69.7399 458.726 69.5326 458.876 69.2637C459.031 68.9902 459.108 68.6621 459.108 68.2793ZM460.147 63.6377C460.147 64.1208 460.02 64.556 459.765 64.9434C459.509 65.3307 459.161 65.6361 458.719 65.8594C458.277 66.0827 457.775 66.1943 457.215 66.1943C456.645 66.1943 456.137 66.0827 455.69 65.8594C455.248 65.6361 454.902 65.3307 454.651 64.9434C454.401 64.556 454.275 64.1208 454.275 63.6377C454.275 63.0589 454.401 62.5667 454.651 62.1611C454.907 61.7555 455.255 61.4456 455.697 61.2314C456.139 61.0173 456.643 60.9102 457.208 60.9102C457.778 60.9102 458.284 61.0173 458.726 61.2314C459.168 61.4456 459.514 61.7555 459.765 62.1611C460.02 62.5667 460.147 63.0589 460.147 63.6377ZM458.883 63.6582C458.883 63.3255 458.812 63.0316 458.671 62.7764C458.53 62.5212 458.334 62.3206 458.083 62.1748C457.832 62.0244 457.541 61.9492 457.208 61.9492C456.875 61.9492 456.584 62.0199 456.333 62.1611C456.087 62.2979 455.893 62.4938 455.752 62.749C455.615 63.0042 455.547 63.3073 455.547 63.6582C455.547 64 455.615 64.2985 455.752 64.5537C455.893 64.8089 456.089 65.0072 456.34 65.1484C456.59 65.2897 456.882 65.3604 457.215 65.3604C457.548 65.3604 457.837 65.2897 458.083 65.1484C458.334 65.0072 458.53 64.8089 458.671 64.5537C458.812 64.2985 458.883 64 458.883 63.6582ZM463.237 69.9404H463.367C464.096 69.9404 464.689 69.8379 465.145 69.6328C465.6 69.4277 465.951 69.152 466.197 68.8057C466.443 68.4593 466.612 68.0697 466.703 67.6367C466.794 67.1992 466.84 66.7503 466.84 66.29V64.7656C466.84 64.3145 466.787 63.9134 466.683 63.5625C466.582 63.2116 466.441 62.9176 466.259 62.6807C466.081 62.4437 465.878 62.2637 465.65 62.1406C465.423 62.0176 465.181 61.9561 464.926 61.9561C464.634 61.9561 464.372 62.0153 464.14 62.1338C463.912 62.2477 463.718 62.4095 463.559 62.6191C463.404 62.8288 463.285 63.0749 463.203 63.3574C463.121 63.64 463.08 63.9476 463.08 64.2803C463.08 64.5765 463.117 64.8636 463.189 65.1416C463.262 65.4196 463.374 65.6702 463.524 65.8936C463.675 66.1169 463.862 66.2946 464.085 66.4268C464.313 66.5544 464.579 66.6182 464.885 66.6182C465.167 66.6182 465.432 66.5635 465.678 66.4541C465.928 66.3402 466.149 66.1875 466.341 65.9961C466.537 65.8001 466.692 65.5791 466.806 65.333C466.924 65.0869 466.993 64.8294 467.011 64.5605H467.612C467.612 64.9388 467.537 65.3125 467.387 65.6816C467.241 66.0462 467.036 66.3789 466.771 66.6797C466.507 66.9805 466.197 67.222 465.842 67.4043C465.486 67.582 465.099 67.6709 464.68 67.6709C464.188 67.6709 463.761 67.5752 463.401 67.3838C463.041 67.1924 462.745 66.9372 462.513 66.6182C462.285 66.2992 462.114 65.9437 462 65.5518C461.891 65.1553 461.836 64.7542 461.836 64.3486C461.836 63.8747 461.902 63.4303 462.034 63.0156C462.166 62.6009 462.362 62.2363 462.622 61.9219C462.882 61.6029 463.203 61.3545 463.586 61.1768C463.973 60.999 464.42 60.9102 464.926 60.9102C465.495 60.9102 465.981 61.0241 466.382 61.252C466.783 61.4798 467.109 61.7852 467.359 62.168C467.615 62.5508 467.801 62.9814 467.92 63.46C468.038 63.9385 468.098 64.4307 468.098 64.9365V65.3945C468.098 65.9095 468.063 66.4336 467.995 66.9668C467.931 67.4954 467.806 68.0013 467.619 68.4844C467.437 68.9674 467.17 69.4004 466.819 69.7832C466.468 70.1615 466.01 70.4622 465.445 70.6855C464.885 70.9043 464.192 71.0137 463.367 71.0137H463.237V69.9404ZM470.012 70.3301C470.012 70.1159 470.078 69.9359 470.21 69.79C470.347 69.6396 470.543 69.5645 470.798 69.5645C471.053 69.5645 471.247 69.6396 471.379 69.79C471.516 69.9359 471.584 70.1159 471.584 70.3301C471.584 70.5397 471.516 70.7174 471.379 70.8633C471.247 71.0091 471.053 71.082 470.798 71.082C470.543 71.082 470.347 71.0091 470.21 70.8633C470.078 70.7174 470.012 70.5397 470.012 70.3301ZM480.272 67.6504V68.6895H473.081V67.9443L477.538 61.0469H478.57L477.463 63.043L474.517 67.6504H480.272ZM478.885 61.0469V71H477.62V61.0469H478.885ZM483.021 66.2627L482.009 66.0029L482.508 61.0469H487.614V62.2158H483.581L483.28 64.9229C483.463 64.818 483.693 64.7201 483.971 64.6289C484.253 64.5378 484.577 64.4922 484.941 64.4922C485.402 64.4922 485.814 64.5719 486.179 64.7314C486.543 64.8864 486.853 65.1097 487.108 65.4014C487.368 65.693 487.566 66.0439 487.703 66.4541C487.84 66.8643 487.908 67.3223 487.908 67.8281C487.908 68.3066 487.842 68.7464 487.71 69.1475C487.582 69.5485 487.389 69.8994 487.129 70.2002C486.869 70.4964 486.541 70.7266 486.145 70.8906C485.753 71.0547 485.29 71.1367 484.757 71.1367C484.356 71.1367 483.975 71.082 483.615 70.9727C483.26 70.8587 482.941 70.6878 482.658 70.46C482.38 70.2275 482.152 69.9404 481.975 69.5986C481.801 69.2523 481.692 68.8467 481.646 68.3818H482.85C482.904 68.7555 483.014 69.07 483.178 69.3252C483.342 69.5804 483.556 69.7741 483.82 69.9062C484.089 70.0339 484.401 70.0977 484.757 70.0977C485.058 70.0977 485.324 70.0452 485.557 69.9404C485.789 69.8356 485.985 69.6852 486.145 69.4893C486.304 69.2933 486.425 69.0563 486.507 68.7783C486.593 68.5003 486.637 68.1882 486.637 67.8418C486.637 67.5273 486.593 67.2357 486.507 66.9668C486.42 66.6979 486.29 66.4632 486.117 66.2627C485.949 66.0622 485.741 65.9072 485.495 65.7979C485.249 65.6839 484.966 65.627 484.647 65.627C484.224 65.627 483.902 65.6839 483.684 65.7979C483.469 65.9118 483.248 66.0667 483.021 66.2627ZM489.187 63.4873V62.9609C489.187 62.5827 489.269 62.2386 489.433 61.9287C489.597 61.6188 489.831 61.3704 490.137 61.1836C490.442 60.9967 490.804 60.9033 491.224 60.9033C491.652 60.9033 492.017 60.9967 492.317 61.1836C492.623 61.3704 492.857 61.6188 493.021 61.9287C493.186 62.2386 493.268 62.5827 493.268 62.9609V63.4873C493.268 63.8564 493.186 64.196 493.021 64.5059C492.862 64.8158 492.63 65.0641 492.324 65.251C492.023 65.4378 491.661 65.5312 491.237 65.5312C490.813 65.5312 490.447 65.4378 490.137 65.251C489.831 65.0641 489.597 64.8158 489.433 64.5059C489.269 64.196 489.187 63.8564 489.187 63.4873ZM490.137 62.9609V63.4873C490.137 63.6969 490.175 63.8952 490.253 64.082C490.335 64.2689 490.458 64.4215 490.622 64.54C490.786 64.654 490.991 64.7109 491.237 64.7109C491.483 64.7109 491.686 64.654 491.846 64.54C492.005 64.4215 492.124 64.2689 492.201 64.082C492.279 63.8952 492.317 63.6969 492.317 63.4873V62.9609C492.317 62.7467 492.276 62.5462 492.194 62.3594C492.117 62.168 491.996 62.0153 491.832 61.9014C491.673 61.7829 491.47 61.7236 491.224 61.7236C490.982 61.7236 490.779 61.7829 490.615 61.9014C490.456 62.0153 490.335 62.168 490.253 62.3594C490.175 62.5462 490.137 62.7467 490.137 62.9609ZM494.033 69.0928V68.5596C494.033 68.1859 494.115 67.8441 494.279 67.5342C494.443 67.2243 494.678 66.9759 494.983 66.7891C495.289 66.6022 495.651 66.5088 496.07 66.5088C496.499 66.5088 496.863 66.6022 497.164 66.7891C497.469 66.9759 497.704 67.2243 497.868 67.5342C498.032 67.8441 498.114 68.1859 498.114 68.5596V69.0928C498.114 69.4665 498.032 69.8083 497.868 70.1182C497.709 70.4281 497.476 70.6764 497.171 70.8633C496.87 71.0501 496.508 71.1436 496.084 71.1436C495.66 71.1436 495.296 71.0501 494.99 70.8633C494.685 70.6764 494.448 70.4281 494.279 70.1182C494.115 69.8083 494.033 69.4665 494.033 69.0928ZM494.983 68.5596V69.0928C494.983 69.3024 495.022 69.5029 495.1 69.6943C495.182 69.8812 495.305 70.0339 495.469 70.1523C495.633 70.2663 495.838 70.3232 496.084 70.3232C496.33 70.3232 496.533 70.2663 496.692 70.1523C496.856 70.0339 496.977 69.8812 497.055 69.6943C497.132 69.5075 497.171 69.307 497.171 69.0928V68.5596C497.171 68.3454 497.13 68.1449 497.048 67.958C496.97 67.7712 496.85 67.6208 496.686 67.5068C496.526 67.3883 496.321 67.3291 496.07 67.3291C495.829 67.3291 495.626 67.3883 495.462 67.5068C495.302 67.6208 495.182 67.7712 495.1 67.958C495.022 68.1449 494.983 68.3454 494.983 68.5596ZM496.385 62.4619L491.524 70.2412L490.813 69.79L495.674 62.0107L496.385 62.4619Z" fill="#21272A"/>
<path d="M23.9997 112.71C20.3177 112.71 17.333 109.725 17.333 106.043C17.333 102.361 20.3177 99.3765 23.9997 99.3765C27.6817 99.3765 30.6663 102.361 30.6663 106.043C30.6663 109.725 27.6817 112.71 23.9997 112.71Z" fill="#DDE1E6"/>
<path d="M37.8438 99.625L40.7969 105.336L43.7578 99.625H45.4688L41.5469 106.75V111H40.0391V106.75L36.1172 99.625H37.8438ZM49.7031 111.156C49.1146 111.156 48.5807 111.057 48.1016 110.859C47.6276 110.656 47.2188 110.372 46.875 110.008C46.5365 109.643 46.276 109.211 46.0938 108.711C45.9115 108.211 45.8203 107.664 45.8203 107.07V106.742C45.8203 106.055 45.9219 105.443 46.125 104.906C46.3281 104.365 46.6042 103.906 46.9531 103.531C47.3021 103.156 47.6979 102.872 48.1406 102.68C48.5833 102.487 49.0417 102.391 49.5156 102.391C50.1198 102.391 50.6406 102.495 51.0781 102.703C51.5208 102.911 51.8828 103.203 52.1641 103.578C52.4453 103.948 52.6536 104.385 52.7891 104.891C52.9245 105.391 52.9922 105.938 52.9922 106.531V107.18H46.6797V106H51.5469V105.891C51.526 105.516 51.4479 105.151 51.3125 104.797C51.1823 104.443 50.974 104.151 50.6875 103.922C50.401 103.693 50.0104 103.578 49.5156 103.578C49.1875 103.578 48.8854 103.648 48.6094 103.789C48.3333 103.924 48.0964 104.128 47.8984 104.398C47.7005 104.669 47.5469 105 47.4375 105.391C47.3281 105.781 47.2734 106.232 47.2734 106.742V107.07C47.2734 107.471 47.3281 107.849 47.4375 108.203C47.5521 108.552 47.7161 108.859 47.9297 109.125C48.1484 109.391 48.4115 109.599 48.7188 109.75C49.0312 109.901 49.3854 109.977 49.7812 109.977C50.2917 109.977 50.724 109.872 51.0781 109.664C51.4323 109.456 51.7422 109.177 52.0078 108.828L52.8828 109.523C52.7005 109.799 52.4688 110.062 52.1875 110.312C51.9062 110.562 51.5599 110.766 51.1484 110.922C50.7422 111.078 50.2604 111.156 49.7031 111.156ZM59.6016 108.758C59.6016 108.549 59.5547 108.357 59.4609 108.18C59.3724 107.997 59.1875 107.833 58.9062 107.688C58.6302 107.536 58.2135 107.406 57.6562 107.297C57.1875 107.198 56.763 107.081 56.3828 106.945C56.0078 106.81 55.6875 106.646 55.4219 106.453C55.1615 106.26 54.9609 106.034 54.8203 105.773C54.6797 105.513 54.6094 105.208 54.6094 104.859C54.6094 104.526 54.6823 104.211 54.8281 103.914C54.9792 103.617 55.1901 103.354 55.4609 103.125C55.737 102.896 56.0677 102.716 56.4531 102.586C56.8385 102.456 57.2682 102.391 57.7422 102.391C58.4193 102.391 58.9974 102.51 59.4766 102.75C59.9557 102.99 60.3229 103.31 60.5781 103.711C60.8333 104.107 60.9609 104.547 60.9609 105.031H59.5156C59.5156 104.797 59.4453 104.57 59.3047 104.352C59.1693 104.128 58.9688 103.943 58.7031 103.797C58.4427 103.651 58.1224 103.578 57.7422 103.578C57.3411 103.578 57.0156 103.641 56.7656 103.766C56.5208 103.885 56.3411 104.039 56.2266 104.227C56.1172 104.414 56.0625 104.612 56.0625 104.82C56.0625 104.977 56.0885 105.117 56.1406 105.242C56.1979 105.362 56.2969 105.474 56.4375 105.578C56.5781 105.677 56.776 105.771 57.0312 105.859C57.2865 105.948 57.612 106.036 58.0078 106.125C58.7005 106.281 59.2708 106.469 59.7188 106.688C60.1667 106.906 60.5 107.174 60.7188 107.492C60.9375 107.81 61.0469 108.195 61.0469 108.648C61.0469 109.018 60.9688 109.357 60.8125 109.664C60.6615 109.971 60.4401 110.237 60.1484 110.461C59.862 110.68 59.5182 110.852 59.1172 110.977C58.7214 111.096 58.276 111.156 57.7812 111.156C57.0365 111.156 56.4062 111.023 55.8906 110.758C55.375 110.492 54.9844 110.148 54.7188 109.727C54.4531 109.305 54.3203 108.859 54.3203 108.391H55.7734C55.7943 108.786 55.9089 109.102 56.1172 109.336C56.3255 109.565 56.5807 109.729 56.8828 109.828C57.1849 109.922 57.4844 109.969 57.7812 109.969C58.1771 109.969 58.5078 109.917 58.7734 109.812C59.0443 109.708 59.25 109.565 59.3906 109.383C59.5312 109.201 59.6016 108.992 59.6016 108.758Z" fill="#21272A"/>
<path d="M388.242 109.812V111H380.797V109.961L384.523 105.812C384.982 105.302 385.336 104.87 385.586 104.516C385.841 104.156 386.018 103.836 386.117 103.555C386.221 103.268 386.273 102.977 386.273 102.68C386.273 102.305 386.195 101.966 386.039 101.664C385.888 101.357 385.664 101.112 385.367 100.93C385.07 100.747 384.711 100.656 384.289 100.656C383.784 100.656 383.362 100.755 383.023 100.953C382.69 101.146 382.44 101.417 382.273 101.766C382.107 102.115 382.023 102.516 382.023 102.969H380.578C380.578 102.328 380.719 101.742 381 101.211C381.281 100.68 381.698 100.258 382.25 99.9453C382.802 99.6276 383.482 99.4688 384.289 99.4688C385.008 99.4688 385.622 99.5964 386.133 99.8516C386.643 100.102 387.034 100.456 387.305 100.914C387.581 101.367 387.719 101.898 387.719 102.508C387.719 102.841 387.661 103.18 387.547 103.523C387.438 103.862 387.284 104.201 387.086 104.539C386.893 104.878 386.667 105.211 386.406 105.539C386.151 105.867 385.878 106.19 385.586 106.508L382.539 109.812H388.242ZM396.93 104.406V106.141C396.93 107.073 396.846 107.859 396.68 108.5C396.513 109.141 396.273 109.656 395.961 110.047C395.648 110.438 395.271 110.721 394.828 110.898C394.391 111.07 393.896 111.156 393.344 111.156C392.906 111.156 392.503 111.102 392.133 110.992C391.763 110.883 391.43 110.708 391.133 110.469C390.841 110.224 390.591 109.906 390.383 109.516C390.174 109.125 390.016 108.651 389.906 108.094C389.797 107.536 389.742 106.885 389.742 106.141V104.406C389.742 103.474 389.826 102.693 389.992 102.062C390.164 101.432 390.406 100.927 390.719 100.547C391.031 100.161 391.406 99.8854 391.844 99.7188C392.286 99.5521 392.781 99.4688 393.328 99.4688C393.771 99.4688 394.177 99.5234 394.547 99.6328C394.922 99.737 395.255 99.9062 395.547 100.141C395.839 100.37 396.086 100.677 396.289 101.062C396.497 101.443 396.656 101.909 396.766 102.461C396.875 103.013 396.93 103.661 396.93 104.406ZM395.477 106.375V104.164C395.477 103.654 395.445 103.206 395.383 102.82C395.326 102.43 395.24 102.096 395.125 101.82C395.01 101.544 394.865 101.32 394.688 101.148C394.516 100.977 394.315 100.852 394.086 100.773C393.862 100.69 393.609 100.648 393.328 100.648C392.984 100.648 392.68 100.714 392.414 100.844C392.148 100.969 391.924 101.169 391.742 101.445C391.565 101.721 391.43 102.083 391.336 102.531C391.242 102.979 391.195 103.523 391.195 104.164V106.375C391.195 106.885 391.224 107.336 391.281 107.727C391.344 108.117 391.435 108.456 391.555 108.742C391.674 109.023 391.82 109.255 391.992 109.438C392.164 109.62 392.362 109.755 392.586 109.844C392.815 109.927 393.068 109.969 393.344 109.969C393.698 109.969 394.008 109.901 394.273 109.766C394.539 109.63 394.76 109.419 394.938 109.133C395.12 108.841 395.255 108.469 395.344 108.016C395.432 107.557 395.477 107.01 395.477 106.375ZM400.258 109.281V110.445C400.258 110.919 400.138 111.419 399.898 111.945C399.659 112.477 399.323 112.919 398.891 113.273L398.07 112.703C398.237 112.474 398.378 112.24 398.492 112C398.607 111.766 398.693 111.521 398.75 111.266C398.812 111.016 398.844 110.75 398.844 110.469V109.281H400.258ZM403.773 105.586L402.617 105.289L403.188 99.625H409.023V100.961H404.414L404.07 104.055C404.279 103.935 404.542 103.823 404.859 103.719C405.182 103.615 405.552 103.562 405.969 103.562C406.495 103.562 406.966 103.654 407.383 103.836C407.799 104.013 408.154 104.268 408.445 104.602C408.742 104.935 408.969 105.336 409.125 105.805C409.281 106.273 409.359 106.797 409.359 107.375C409.359 107.922 409.284 108.424 409.133 108.883C408.987 109.341 408.766 109.742 408.469 110.086C408.172 110.424 407.797 110.688 407.344 110.875C406.896 111.062 406.367 111.156 405.758 111.156C405.299 111.156 404.865 111.094 404.453 110.969C404.047 110.839 403.682 110.643 403.359 110.383C403.042 110.117 402.781 109.789 402.578 109.398C402.38 109.003 402.255 108.539 402.203 108.008H403.578C403.641 108.435 403.766 108.794 403.953 109.086C404.141 109.378 404.385 109.599 404.688 109.75C404.995 109.896 405.352 109.969 405.758 109.969C406.102 109.969 406.406 109.909 406.672 109.789C406.938 109.669 407.161 109.497 407.344 109.273C407.526 109.049 407.664 108.779 407.758 108.461C407.857 108.143 407.906 107.786 407.906 107.391C407.906 107.031 407.857 106.698 407.758 106.391C407.659 106.083 407.51 105.815 407.312 105.586C407.12 105.357 406.883 105.18 406.602 105.055C406.32 104.924 405.997 104.859 405.633 104.859C405.148 104.859 404.781 104.924 404.531 105.055C404.286 105.185 404.034 105.362 403.773 105.586ZM412.383 109.789H412.531C413.365 109.789 414.042 109.672 414.562 109.438C415.083 109.203 415.484 108.888 415.766 108.492C416.047 108.096 416.24 107.651 416.344 107.156C416.448 106.656 416.5 106.143 416.5 105.617V103.875C416.5 103.359 416.44 102.901 416.32 102.5C416.206 102.099 416.044 101.763 415.836 101.492C415.633 101.221 415.401 101.016 415.141 100.875C414.88 100.734 414.604 100.664 414.312 100.664C413.979 100.664 413.68 100.732 413.414 100.867C413.154 100.997 412.932 101.182 412.75 101.422C412.573 101.661 412.438 101.943 412.344 102.266C412.25 102.589 412.203 102.94 412.203 103.32C412.203 103.659 412.245 103.987 412.328 104.305C412.411 104.622 412.539 104.909 412.711 105.164C412.883 105.419 413.096 105.622 413.352 105.773C413.612 105.919 413.917 105.992 414.266 105.992C414.589 105.992 414.891 105.93 415.172 105.805C415.458 105.674 415.711 105.5 415.93 105.281C416.154 105.057 416.331 104.805 416.461 104.523C416.596 104.242 416.674 103.948 416.695 103.641H417.383C417.383 104.073 417.297 104.5 417.125 104.922C416.958 105.339 416.724 105.719 416.422 106.062C416.12 106.406 415.766 106.682 415.359 106.891C414.953 107.094 414.51 107.195 414.031 107.195C413.469 107.195 412.982 107.086 412.57 106.867C412.159 106.648 411.82 106.357 411.555 105.992C411.294 105.628 411.099 105.221 410.969 104.773C410.844 104.32 410.781 103.862 410.781 103.398C410.781 102.857 410.857 102.349 411.008 101.875C411.159 101.401 411.383 100.984 411.68 100.625C411.977 100.26 412.344 99.9766 412.781 99.7734C413.224 99.5703 413.734 99.4688 414.312 99.4688C414.964 99.4688 415.518 99.599 415.977 99.8594C416.435 100.12 416.807 100.469 417.094 100.906C417.385 101.344 417.599 101.836 417.734 102.383C417.87 102.93 417.938 103.492 417.938 104.07V104.594C417.938 105.182 417.898 105.781 417.82 106.391C417.747 106.995 417.604 107.573 417.391 108.125C417.182 108.677 416.878 109.172 416.477 109.609C416.076 110.042 415.552 110.385 414.906 110.641C414.266 110.891 413.474 111.016 412.531 111.016H412.383V109.789ZM427.633 107.172V108.359H419.414V107.508L424.508 99.625H425.688L424.422 101.906L421.055 107.172H427.633ZM426.047 99.625V111H424.602V99.625H426.047Z" fill="#21272A"/>
<rect x="444" y="94" width="64" height="24" rx="12" fill="#F2F4F8"/>
<path d="M458.261 100.992V111H456.996V102.571L454.446 103.501V102.359L458.062 100.992H458.261ZM468.228 105.23V106.748C468.228 107.564 468.155 108.252 468.009 108.812C467.863 109.373 467.653 109.824 467.38 110.166C467.106 110.508 466.776 110.756 466.389 110.911C466.006 111.062 465.573 111.137 465.09 111.137C464.707 111.137 464.354 111.089 464.03 110.993C463.707 110.897 463.415 110.745 463.155 110.535C462.9 110.321 462.681 110.043 462.499 109.701C462.317 109.359 462.178 108.945 462.082 108.457C461.986 107.969 461.938 107.4 461.938 106.748V105.23C461.938 104.415 462.011 103.731 462.157 103.18C462.308 102.628 462.52 102.186 462.793 101.854C463.066 101.516 463.395 101.275 463.777 101.129C464.165 100.983 464.598 100.91 465.076 100.91C465.464 100.91 465.819 100.958 466.143 101.054C466.471 101.145 466.762 101.293 467.018 101.498C467.273 101.699 467.489 101.967 467.667 102.305C467.849 102.637 467.988 103.045 468.084 103.528C468.18 104.011 468.228 104.579 468.228 105.23ZM466.956 106.953V105.019C466.956 104.572 466.929 104.18 466.874 103.843C466.824 103.501 466.749 103.209 466.648 102.968C466.548 102.726 466.421 102.53 466.266 102.38C466.115 102.229 465.94 102.12 465.739 102.052C465.543 101.979 465.322 101.942 465.076 101.942C464.775 101.942 464.509 101.999 464.276 102.113C464.044 102.223 463.848 102.398 463.688 102.64C463.534 102.881 463.415 103.198 463.333 103.59C463.251 103.982 463.21 104.458 463.21 105.019V106.953C463.21 107.4 463.235 107.794 463.285 108.136C463.34 108.478 463.42 108.774 463.524 109.024C463.629 109.271 463.757 109.473 463.907 109.633C464.058 109.792 464.231 109.911 464.427 109.988C464.627 110.061 464.848 110.098 465.09 110.098C465.4 110.098 465.671 110.038 465.903 109.92C466.136 109.801 466.329 109.617 466.484 109.366C466.644 109.111 466.762 108.785 466.84 108.389C466.917 107.988 466.956 107.509 466.956 106.953ZM470.012 110.33C470.012 110.116 470.078 109.936 470.21 109.79C470.347 109.64 470.543 109.564 470.798 109.564C471.053 109.564 471.247 109.64 471.379 109.79C471.516 109.936 471.584 110.116 471.584 110.33C471.584 110.54 471.516 110.717 471.379 110.863C471.247 111.009 471.053 111.082 470.798 111.082C470.543 111.082 470.347 111.009 470.21 110.863C470.078 110.717 470.012 110.54 470.012 110.33ZM475.146 106.263L474.134 106.003L474.633 101.047H479.739V102.216H475.706L475.405 104.923C475.588 104.818 475.818 104.72 476.096 104.629C476.378 104.538 476.702 104.492 477.066 104.492C477.527 104.492 477.939 104.572 478.304 104.731C478.668 104.886 478.978 105.11 479.233 105.401C479.493 105.693 479.691 106.044 479.828 106.454C479.965 106.864 480.033 107.322 480.033 107.828C480.033 108.307 479.967 108.746 479.835 109.147C479.707 109.549 479.514 109.899 479.254 110.2C478.994 110.496 478.666 110.727 478.27 110.891C477.878 111.055 477.415 111.137 476.882 111.137C476.481 111.137 476.1 111.082 475.74 110.973C475.385 110.859 475.066 110.688 474.783 110.46C474.505 110.228 474.277 109.94 474.1 109.599C473.926 109.252 473.817 108.847 473.771 108.382H474.975C475.029 108.756 475.139 109.07 475.303 109.325C475.467 109.58 475.681 109.774 475.945 109.906C476.214 110.034 476.526 110.098 476.882 110.098C477.183 110.098 477.449 110.045 477.682 109.94C477.914 109.836 478.11 109.685 478.27 109.489C478.429 109.293 478.55 109.056 478.632 108.778C478.718 108.5 478.762 108.188 478.762 107.842C478.762 107.527 478.718 107.236 478.632 106.967C478.545 106.698 478.415 106.463 478.242 106.263C478.074 106.062 477.866 105.907 477.62 105.798C477.374 105.684 477.091 105.627 476.772 105.627C476.349 105.627 476.027 105.684 475.809 105.798C475.594 105.912 475.373 106.067 475.146 106.263ZM483.021 106.263L482.009 106.003L482.508 101.047H487.614V102.216H483.581L483.28 104.923C483.463 104.818 483.693 104.72 483.971 104.629C484.253 104.538 484.577 104.492 484.941 104.492C485.402 104.492 485.814 104.572 486.179 104.731C486.543 104.886 486.853 105.11 487.108 105.401C487.368 105.693 487.566 106.044 487.703 106.454C487.84 106.864 487.908 107.322 487.908 107.828C487.908 108.307 487.842 108.746 487.71 109.147C487.582 109.549 487.389 109.899 487.129 110.2C486.869 110.496 486.541 110.727 486.145 110.891C485.753 111.055 485.29 111.137 484.757 111.137C484.356 111.137 483.975 111.082 483.615 110.973C483.26 110.859 482.941 110.688 482.658 110.46C482.38 110.228 482.152 109.94 481.975 109.599C481.801 109.252 481.692 108.847 481.646 108.382H482.85C482.904 108.756 483.014 109.07 483.178 109.325C483.342 109.58 483.556 109.774 483.82 109.906C484.089 110.034 484.401 110.098 484.757 110.098C485.058 110.098 485.324 110.045 485.557 109.94C485.789 109.836 485.985 109.685 486.145 109.489C486.304 109.293 486.425 109.056 486.507 108.778C486.593 108.5 486.637 108.188 486.637 107.842C486.637 107.527 486.593 107.236 486.507 106.967C486.42 106.698 486.29 106.463 486.117 106.263C485.949 106.062 485.741 105.907 485.495 105.798C485.249 105.684 484.966 105.627 484.647 105.627C484.224 105.627 483.902 105.684 483.684 105.798C483.469 105.912 483.248 106.067 483.021 106.263ZM489.187 103.487V102.961C489.187 102.583 489.269 102.239 489.433 101.929C489.597 101.619 489.831 101.37 490.137 101.184C490.442 100.997 490.804 100.903 491.224 100.903C491.652 100.903 492.017 100.997 492.317 101.184C492.623 101.37 492.857 101.619 493.021 101.929C493.186 102.239 493.268 102.583 493.268 102.961V103.487C493.268 103.856 493.186 104.196 493.021 104.506C492.862 104.816 492.63 105.064 492.324 105.251C492.023 105.438 491.661 105.531 491.237 105.531C490.813 105.531 490.447 105.438 490.137 105.251C489.831 105.064 489.597 104.816 489.433 104.506C489.269 104.196 489.187 103.856 489.187 103.487ZM490.137 102.961V103.487C490.137 103.697 490.175 103.895 490.253 104.082C490.335 104.269 490.458 104.422 490.622 104.54C490.786 104.654 490.991 104.711 491.237 104.711C491.483 104.711 491.686 104.654 491.846 104.54C492.005 104.422 492.124 104.269 492.201 104.082C492.279 103.895 492.317 103.697 492.317 103.487V102.961C492.317 102.747 492.276 102.546 492.194 102.359C492.117 102.168 491.996 102.015 491.832 101.901C491.673 101.783 491.47 101.724 491.224 101.724C490.982 101.724 490.779 101.783 490.615 101.901C490.456 102.015 490.335 102.168 490.253 102.359C490.175 102.546 490.137 102.747 490.137 102.961ZM494.033 109.093V108.56C494.033 108.186 494.115 107.844 494.279 107.534C494.443 107.224 494.678 106.976 494.983 106.789C495.289 106.602 495.651 106.509 496.07 106.509C496.499 106.509 496.863 106.602 497.164 106.789C497.469 106.976 497.704 107.224 497.868 107.534C498.032 107.844 498.114 108.186 498.114 108.56V109.093C498.114 109.466 498.032 109.808 497.868 110.118C497.709 110.428 497.476 110.676 497.171 110.863C496.87 111.05 496.508 111.144 496.084 111.144C495.66 111.144 495.296 111.05 494.99 110.863C494.685 110.676 494.448 110.428 494.279 110.118C494.115 109.808 494.033 109.466 494.033 109.093ZM494.983 108.56V109.093C494.983 109.302 495.022 109.503 495.1 109.694C495.182 109.881 495.305 110.034 495.469 110.152C495.633 110.266 495.838 110.323 496.084 110.323C496.33 110.323 496.533 110.266 496.692 110.152C496.856 110.034 496.977 109.881 497.055 109.694C497.132 109.507 497.171 109.307 497.171 109.093V108.56C497.171 108.345 497.13 108.145 497.048 107.958C496.97 107.771 496.85 107.621 496.686 107.507C496.526 107.388 496.321 107.329 496.07 107.329C495.829 107.329 495.626 107.388 495.462 107.507C495.302 107.621 495.182 107.771 495.1 107.958C495.022 108.145 494.983 108.345 494.983 108.56ZM496.385 102.462L491.524 110.241L490.813 109.79L495.674 102.011L496.385 102.462Z" fill="#21272A"/>
</svg>
