<svg width="524" height="142" viewBox="0 0 524 142" fill="none" xmlns="http://www.w3.org/2000/svg">
<rect width="524" height="142" fill="#F2F4F8"/>
<path d="M24.6484 30.1719V32H18.5938V30.1719H24.6484ZM19.3594 20.625V32H17.0156V20.625H19.3594ZM23.8594 25.2578V27.0391H18.5938V25.2578H23.8594ZM24.6406 20.625V22.4609H18.5938V20.625H24.6406ZM28.0781 25.3516V32H25.8281V23.5469H27.9375L28.0781 25.3516ZM27.75 27.4766H27.1406C27.1406 26.8516 27.2214 26.2891 27.3828 25.7891C27.5443 25.2839 27.7708 24.8542 28.0625 24.5C28.3542 24.1406 28.7005 23.8672 29.1016 23.6797C29.5078 23.487 29.9609 23.3906 30.4609 23.3906C30.8568 23.3906 31.2188 23.4479 31.5469 23.5625C31.875 23.6771 32.1562 23.8594 32.3906 24.1094C32.6302 24.3594 32.8125 24.6901 32.9375 25.1016C33.0677 25.513 33.1328 26.0156 33.1328 26.6094V32H30.8672V26.6016C30.8672 26.2266 30.8151 25.9349 30.7109 25.7266C30.6068 25.5182 30.4531 25.3724 30.25 25.2891C30.0521 25.2005 29.8073 25.1562 29.5156 25.1562C29.2135 25.1562 28.9505 25.2161 28.7266 25.3359C28.5078 25.4557 28.3255 25.6224 28.1797 25.8359C28.0391 26.0443 27.9323 26.2891 27.8594 26.5703C27.7865 26.8516 27.75 27.1536 27.75 27.4766ZM40.1953 23.5469H42.2344V31.7188C42.2344 32.4896 42.0625 33.1432 41.7188 33.6797C41.3802 34.2214 40.9062 34.6302 40.2969 34.9062C39.6875 35.1875 38.9792 35.3281 38.1719 35.3281C37.8177 35.3281 37.4427 35.2812 37.0469 35.1875C36.6562 35.0938 36.2812 34.9479 35.9219 34.75C35.5677 34.5521 35.2708 34.3021 35.0312 34L36.0234 32.6719C36.2839 32.974 36.5859 33.2083 36.9297 33.375C37.2734 33.5469 37.6536 33.6328 38.0703 33.6328C38.4766 33.6328 38.8203 33.5573 39.1016 33.4062C39.3828 33.2604 39.599 33.0443 39.75 32.7578C39.901 32.4766 39.9766 32.1354 39.9766 31.7344V25.5L40.1953 23.5469ZM34.5078 27.875V27.7109C34.5078 27.0651 34.5859 26.4792 34.7422 25.9531C34.9036 25.4219 35.1302 24.9661 35.4219 24.5859C35.7188 24.2057 36.0781 23.9115 36.5 23.7031C36.9219 23.4948 37.3984 23.3906 37.9297 23.3906C38.4922 23.3906 38.9635 23.4948 39.3438 23.7031C39.724 23.9115 40.0365 24.2083 40.2812 24.5938C40.526 24.974 40.7161 25.4245 40.8516 25.9453C40.9922 26.4609 41.1016 27.026 41.1797 27.6406V28C41.1016 28.5885 40.9844 29.1354 40.8281 29.6406C40.6719 30.1458 40.4661 30.5885 40.2109 30.9688C39.9557 31.3438 39.638 31.6354 39.2578 31.8438C38.8828 32.0521 38.4349 32.1562 37.9141 32.1562C37.3932 32.1562 36.9219 32.0495 36.5 31.8359C36.0833 31.6224 35.7266 31.3229 35.4297 30.9375C35.1328 30.5521 34.9036 30.099 34.7422 29.5781C34.5859 29.0573 34.5078 28.4896 34.5078 27.875ZM36.7578 27.7109V27.875C36.7578 28.224 36.7917 28.5495 36.8594 28.8516C36.9271 29.1536 37.0312 29.4219 37.1719 29.6562C37.3177 29.8854 37.4974 30.0651 37.7109 30.1953C37.9297 30.3203 38.1875 30.3828 38.4844 30.3828C38.8958 30.3828 39.2318 30.2969 39.4922 30.125C39.7526 29.9479 39.9479 29.7057 40.0781 29.3984C40.2083 29.0911 40.2839 28.737 40.3047 28.3359V27.3125C40.2943 26.9844 40.25 26.6901 40.1719 26.4297C40.0938 26.1641 39.9844 25.9375 39.8438 25.75C39.7031 25.5625 39.5208 25.4167 39.2969 25.3125C39.0729 25.2083 38.8073 25.1562 38.5 25.1562C38.2031 25.1562 37.9453 25.224 37.7266 25.3594C37.513 25.4896 37.3333 25.6693 37.1875 25.8984C37.0469 26.1276 36.9401 26.3984 36.8672 26.7109C36.7943 27.0182 36.7578 27.3516 36.7578 27.7109ZM46.3594 20V32H44.1016V20H46.3594ZM50.5938 23.5469V32H48.3359V23.5469H50.5938ZM48.1953 21.3438C48.1953 21.0156 48.3099 20.7448 48.5391 20.5312C48.7682 20.3177 49.0755 20.2109 49.4609 20.2109C49.8411 20.2109 50.1458 20.3177 50.375 20.5312C50.6094 20.7448 50.7266 21.0156 50.7266 21.3438C50.7266 21.6719 50.6094 21.9427 50.375 22.1562C50.1458 22.3698 49.8411 22.4766 49.4609 22.4766C49.0755 22.4766 48.7682 22.3698 48.5391 22.1562C48.3099 21.9427 48.1953 21.6719 48.1953 21.3438ZM57.0234 29.6641C57.0234 29.5026 56.9766 29.3568 56.8828 29.2266C56.7891 29.0964 56.6146 28.9766 56.3594 28.8672C56.1094 28.7526 55.7474 28.6484 55.2734 28.5547C54.8464 28.4609 54.4479 28.3438 54.0781 28.2031C53.7135 28.0573 53.3958 27.8828 53.125 27.6797C52.8594 27.4766 52.651 27.237 52.5 26.9609C52.349 26.6797 52.2734 26.3594 52.2734 26C52.2734 25.6458 52.349 25.3125 52.5 25C52.6562 24.6875 52.8776 24.4115 53.1641 24.1719C53.4557 23.9271 53.8099 23.737 54.2266 23.6016C54.6484 23.4609 55.1224 23.3906 55.6484 23.3906C56.3828 23.3906 57.013 23.5078 57.5391 23.7422C58.0703 23.9766 58.4766 24.2995 58.7578 24.7109C59.0443 25.1172 59.1875 25.5807 59.1875 26.1016H56.9375C56.9375 25.8828 56.8906 25.6875 56.7969 25.5156C56.7083 25.3385 56.5677 25.2005 56.375 25.1016C56.1875 24.9974 55.9427 24.9453 55.6406 24.9453C55.3906 24.9453 55.1745 24.9896 54.9922 25.0781C54.8099 25.1615 54.6693 25.276 54.5703 25.4219C54.4766 25.5625 54.4297 25.7188 54.4297 25.8906C54.4297 26.0208 54.4557 26.138 54.5078 26.2422C54.5651 26.3411 54.6562 26.4323 54.7812 26.5156C54.9062 26.599 55.0677 26.6771 55.2656 26.75C55.4688 26.8177 55.7188 26.8802 56.0156 26.9375C56.625 27.0625 57.1693 27.2266 57.6484 27.4297C58.1276 27.6276 58.5078 27.8984 58.7891 28.2422C59.0703 28.5807 59.2109 29.026 59.2109 29.5781C59.2109 29.9531 59.1276 30.2969 58.9609 30.6094C58.7943 30.9219 58.5547 31.1953 58.2422 31.4297C57.9297 31.6589 57.5547 31.8385 57.1172 31.9688C56.6849 32.0938 56.1979 32.1562 55.6562 32.1562C54.8698 32.1562 54.2031 32.0156 53.6562 31.7344C53.1146 31.4531 52.7031 31.0964 52.4219 30.6641C52.1458 30.2266 52.0078 29.7786 52.0078 29.3203H54.1406C54.151 29.6276 54.2292 29.875 54.375 30.0625C54.526 30.25 54.7161 30.3854 54.9453 30.4688C55.1797 30.5521 55.4323 30.5938 55.7031 30.5938C55.9948 30.5938 56.237 30.5547 56.4297 30.4766C56.6224 30.3932 56.7682 30.2839 56.8672 30.1484C56.9714 30.0078 57.0234 29.8464 57.0234 29.6641ZM62.8672 20V32H60.6172V20H62.8672ZM62.5469 27.4766H61.9297C61.9349 26.888 62.013 26.3464 62.1641 25.8516C62.3151 25.3516 62.5312 24.9193 62.8125 24.5547C63.0938 24.1849 63.4297 23.8984 63.8203 23.6953C64.2161 23.4922 64.6536 23.3906 65.1328 23.3906C65.5495 23.3906 65.9271 23.4505 66.2656 23.5703C66.6094 23.6849 66.9036 23.8724 67.1484 24.1328C67.3984 24.388 67.5911 24.724 67.7266 25.1406C67.862 25.5573 67.9297 26.0625 67.9297 26.6562V32H65.6641V26.6406C65.6641 26.2656 65.6094 25.9714 65.5 25.7578C65.3958 25.5391 65.2422 25.3854 65.0391 25.2969C64.8411 25.2031 64.5964 25.1562 64.3047 25.1562C63.9818 25.1562 63.7057 25.2161 63.4766 25.3359C63.2526 25.4557 63.0729 25.6224 62.9375 25.8359C62.8021 26.0443 62.7031 26.2891 62.6406 26.5703C62.5781 26.8516 62.5469 27.1536 62.5469 27.4766ZM76 20V32H73.7422V20H76ZM81.75 32.1562C81.0938 32.1562 80.5052 32.0521 79.9844 31.8438C79.4635 31.6302 79.0208 31.3359 78.6562 30.9609C78.2969 30.5859 78.0208 30.151 77.8281 29.6562C77.6354 29.1562 77.5391 28.625 77.5391 28.0625V27.75C77.5391 27.1094 77.6302 26.5234 77.8125 25.9922C77.9948 25.4609 78.2552 25 78.5938 24.6094C78.9375 24.2188 79.3542 23.9193 79.8438 23.7109C80.3333 23.4974 80.8854 23.3906 81.5 23.3906C82.099 23.3906 82.6302 23.4896 83.0938 23.6875C83.5573 23.8854 83.9453 24.1667 84.2578 24.5312C84.5755 24.8958 84.8151 25.3333 84.9766 25.8438C85.138 26.349 85.2188 26.9115 85.2188 27.5312V28.4688H78.5V26.9688H83.0078V26.7969C83.0078 26.4844 82.9505 26.2057 82.8359 25.9609C82.7266 25.7109 82.5599 25.513 82.3359 25.3672C82.112 25.2214 81.8255 25.1484 81.4766 25.1484C81.1797 25.1484 80.9245 25.2135 80.7109 25.3438C80.4974 25.474 80.3229 25.6562 80.1875 25.8906C80.0573 26.125 79.9583 26.401 79.8906 26.7188C79.8281 27.0312 79.7969 27.375 79.7969 27.75V28.0625C79.7969 28.401 79.8438 28.7135 79.9375 29C80.0365 29.2865 80.1745 29.5339 80.3516 29.7422C80.5339 29.9505 80.7526 30.112 81.0078 30.2266C81.2682 30.3411 81.5625 30.3984 81.8906 30.3984C82.2969 30.3984 82.6745 30.3203 83.0234 30.1641C83.3776 30.0026 83.6823 29.7604 83.9375 29.4375L85.0312 30.625C84.8542 30.8802 84.612 31.125 84.3047 31.3594C84.0026 31.5938 83.638 31.7865 83.2109 31.9375C82.7839 32.0833 82.2969 32.1562 81.75 32.1562ZM91.0625 30.0938V26.3281C91.0625 26.0573 91.0182 25.8255 90.9297 25.6328C90.8411 25.4349 90.7031 25.2812 90.5156 25.1719C90.3333 25.0625 90.0964 25.0078 89.8047 25.0078C89.5547 25.0078 89.3385 25.0521 89.1562 25.1406C88.974 25.224 88.8333 25.3464 88.7344 25.5078C88.6354 25.6641 88.5859 25.849 88.5859 26.0625H86.3359C86.3359 25.7031 86.4193 25.362 86.5859 25.0391C86.7526 24.7161 86.9948 24.4323 87.3125 24.1875C87.6302 23.9375 88.0078 23.7422 88.4453 23.6016C88.888 23.4609 89.3828 23.3906 89.9297 23.3906C90.5859 23.3906 91.1693 23.5 91.6797 23.7188C92.1901 23.9375 92.5911 24.2656 92.8828 24.7031C93.1797 25.1406 93.3281 25.6875 93.3281 26.3438V29.9609C93.3281 30.4245 93.3568 30.8047 93.4141 31.1016C93.4714 31.3932 93.5547 31.6484 93.6641 31.8672V32H91.3906C91.2812 31.7708 91.1979 31.4844 91.1406 31.1406C91.0885 30.7917 91.0625 30.4427 91.0625 30.0938ZM91.3594 26.8516L91.375 28.125H90.1172C89.8203 28.125 89.5625 28.1589 89.3438 28.2266C89.125 28.2943 88.9453 28.3906 88.8047 28.5156C88.6641 28.6354 88.5599 28.776 88.4922 28.9375C88.4297 29.099 88.3984 29.276 88.3984 29.4688C88.3984 29.6615 88.4427 29.8359 88.5312 29.9922C88.6198 30.1432 88.7474 30.263 88.9141 30.3516C89.0807 30.4349 89.276 30.4766 89.5 30.4766C89.8385 30.4766 90.1328 30.4089 90.3828 30.2734C90.6328 30.138 90.8255 29.9714 90.9609 29.7734C91.1016 29.5755 91.1745 29.388 91.1797 29.2109L91.7734 30.1641C91.6901 30.3776 91.5755 30.599 91.4297 30.8281C91.2891 31.0573 91.1094 31.2734 90.8906 31.4766C90.6719 31.6745 90.4089 31.8385 90.1016 31.9688C89.7943 32.0938 89.4297 32.1562 89.0078 32.1562C88.4714 32.1562 87.9844 32.0495 87.5469 31.8359C87.1146 31.6172 86.7708 31.3177 86.5156 30.9375C86.2656 30.5521 86.1406 30.1146 86.1406 29.625C86.1406 29.1823 86.224 28.7891 86.3906 28.4453C86.5573 28.1016 86.8021 27.8125 87.125 27.5781C87.4531 27.3385 87.862 27.1589 88.3516 27.0391C88.8411 26.9141 89.4089 26.8516 90.0547 26.8516H91.3594ZM97.3125 25.3906V32H95.0625V23.5469H97.1797L97.3125 25.3906ZM99.8594 23.4922L99.8203 25.5781C99.7109 25.5625 99.5781 25.5495 99.4219 25.5391C99.2708 25.5234 99.1328 25.5156 99.0078 25.5156C98.6901 25.5156 98.4141 25.5573 98.1797 25.6406C97.9505 25.7188 97.7578 25.8359 97.6016 25.9922C97.4505 26.1484 97.3359 26.3385 97.2578 26.5625C97.1849 26.7865 97.1432 27.0417 97.1328 27.3281L96.6797 27.1875C96.6797 26.6406 96.7344 26.138 96.8438 25.6797C96.9531 25.2161 97.112 24.8125 97.3203 24.4688C97.5339 24.125 97.7943 23.8594 98.1016 23.6719C98.4089 23.4844 98.7604 23.3906 99.1562 23.3906C99.2812 23.3906 99.4089 23.401 99.5391 23.4219C99.6693 23.4375 99.776 23.4609 99.8594 23.4922ZM103.125 25.3516V32H100.875V23.5469H102.984L103.125 25.3516ZM102.797 27.4766H102.188C102.188 26.8516 102.268 26.2891 102.43 25.7891C102.591 25.2839 102.818 24.8542 103.109 24.5C103.401 24.1406 103.747 23.8672 104.148 23.6797C104.555 23.487 105.008 23.3906 105.508 23.3906C105.904 23.3906 106.266 23.4479 106.594 23.5625C106.922 23.6771 107.203 23.8594 107.438 24.1094C107.677 24.3594 107.859 24.6901 107.984 25.1016C108.115 25.513 108.18 26.0156 108.18 26.6094V32H105.914V26.6016C105.914 26.2266 105.862 25.9349 105.758 25.7266C105.654 25.5182 105.5 25.3724 105.297 25.2891C105.099 25.2005 104.854 25.1562 104.562 25.1562C104.26 25.1562 103.997 25.2161 103.773 25.3359C103.555 25.4557 103.372 25.6224 103.227 25.8359C103.086 26.0443 102.979 26.2891 102.906 26.5703C102.833 26.8516 102.797 27.1536 102.797 27.4766ZM113.781 32.1562C113.125 32.1562 112.536 32.0521 112.016 31.8438C111.495 31.6302 111.052 31.3359 110.688 30.9609C110.328 30.5859 110.052 30.151 109.859 29.6562C109.667 29.1562 109.57 28.625 109.57 28.0625V27.75C109.57 27.1094 109.661 26.5234 109.844 25.9922C110.026 25.4609 110.286 25 110.625 24.6094C110.969 24.2188 111.385 23.9193 111.875 23.7109C112.365 23.4974 112.917 23.3906 113.531 23.3906C114.13 23.3906 114.661 23.4896 115.125 23.6875C115.589 23.8854 115.977 24.1667 116.289 24.5312C116.607 24.8958 116.846 25.3333 117.008 25.8438C117.169 26.349 117.25 26.9115 117.25 27.5312V28.4688H110.531V26.9688H115.039V26.7969C115.039 26.4844 114.982 26.2057 114.867 25.9609C114.758 25.7109 114.591 25.513 114.367 25.3672C114.143 25.2214 113.857 25.1484 113.508 25.1484C113.211 25.1484 112.956 25.2135 112.742 25.3438C112.529 25.474 112.354 25.6562 112.219 25.8906C112.089 26.125 111.99 26.401 111.922 26.7188C111.859 27.0312 111.828 27.375 111.828 27.75V28.0625C111.828 28.401 111.875 28.7135 111.969 29C112.068 29.2865 112.206 29.5339 112.383 29.7422C112.565 29.9505 112.784 30.112 113.039 30.2266C113.299 30.3411 113.594 30.3984 113.922 30.3984C114.328 30.3984 114.706 30.3203 115.055 30.1641C115.409 30.0026 115.714 29.7604 115.969 29.4375L117.062 30.625C116.885 30.8802 116.643 31.125 116.336 31.3594C116.034 31.5938 115.669 31.7865 115.242 31.9375C114.815 32.0833 114.328 32.1562 113.781 32.1562ZM120.781 25.3906V32H118.531V23.5469H120.648L120.781 25.3906ZM123.328 23.4922L123.289 25.5781C123.18 25.5625 123.047 25.5495 122.891 25.5391C122.74 25.5234 122.602 25.5156 122.477 25.5156C122.159 25.5156 121.883 25.5573 121.648 25.6406C121.419 25.7188 121.227 25.8359 121.07 25.9922C120.919 26.1484 120.805 26.3385 120.727 26.5625C120.654 26.7865 120.612 27.0417 120.602 27.3281L120.148 27.1875C120.148 26.6406 120.203 26.138 120.312 25.6797C120.422 25.2161 120.581 24.8125 120.789 24.4688C121.003 24.125 121.263 23.8594 121.57 23.6719C121.878 23.4844 122.229 23.3906 122.625 23.3906C122.75 23.3906 122.878 23.401 123.008 23.4219C123.138 23.4375 123.245 23.4609 123.328 23.4922ZM128.227 28.5234H126.234C126.24 28.0547 126.276 27.651 126.344 27.3125C126.417 26.9688 126.539 26.6589 126.711 26.3828C126.888 26.1068 127.122 25.8333 127.414 25.5625C127.659 25.3438 127.872 25.1354 128.055 24.9375C128.237 24.7396 128.38 24.5365 128.484 24.3281C128.589 24.1146 128.641 23.8776 128.641 23.6172C128.641 23.3151 128.594 23.0651 128.5 22.8672C128.411 22.6641 128.276 22.5104 128.094 22.4062C127.917 22.3021 127.693 22.25 127.422 22.25C127.198 22.25 126.99 22.2995 126.797 22.3984C126.604 22.4922 126.445 22.638 126.32 22.8359C126.201 23.0339 126.138 23.2943 126.133 23.6172H123.867C123.883 22.9036 124.047 22.3151 124.359 21.8516C124.677 21.3828 125.102 21.0365 125.633 20.8125C126.164 20.5833 126.76 20.4688 127.422 20.4688C128.151 20.4688 128.776 20.5885 129.297 20.8281C129.818 21.0625 130.216 21.4089 130.492 21.8672C130.768 22.3203 130.906 22.8724 130.906 23.5234C130.906 23.9766 130.818 24.3802 130.641 24.7344C130.464 25.0833 130.232 25.4089 129.945 25.7109C129.659 26.013 129.344 26.3255 129 26.6484C128.703 26.9141 128.5 27.1927 128.391 27.4844C128.286 27.776 128.232 28.1224 128.227 28.5234ZM126 30.9375C126 30.6042 126.115 30.3281 126.344 30.1094C126.573 29.8854 126.88 29.7734 127.266 29.7734C127.646 29.7734 127.951 29.8854 128.18 30.1094C128.414 30.3281 128.531 30.6042 128.531 30.9375C128.531 31.2604 128.414 31.5339 128.18 31.7578C127.951 31.9818 127.646 32.0938 127.266 32.0938C126.88 32.0938 126.573 31.9818 126.344 31.7578C126.115 31.5339 126 31.2604 126 30.9375Z" fill="#21272A"/>
<path d="M392.75 28.2266H395.086C395.039 28.9922 394.828 29.6719 394.453 30.2656C394.083 30.8594 393.565 31.3229 392.898 31.6562C392.237 31.9896 391.44 32.1562 390.508 32.1562C389.779 32.1562 389.125 32.0312 388.547 31.7812C387.969 31.526 387.474 31.1615 387.062 30.6875C386.656 30.2135 386.346 29.6406 386.133 28.9688C385.919 28.2969 385.812 27.5443 385.812 26.7109V25.9219C385.812 25.0885 385.922 24.3359 386.141 23.6641C386.365 22.987 386.682 22.4115 387.094 21.9375C387.51 21.4635 388.008 21.099 388.586 20.8438C389.164 20.5885 389.81 20.4609 390.523 20.4609C391.471 20.4609 392.271 20.6328 392.922 20.9766C393.578 21.3203 394.086 21.7943 394.445 22.3984C394.81 23.0026 395.029 23.6901 395.102 24.4609H392.758C392.732 24.0026 392.641 23.6146 392.484 23.2969C392.328 22.974 392.091 22.7318 391.773 22.5703C391.461 22.4036 391.044 22.3203 390.523 22.3203C390.133 22.3203 389.792 22.3932 389.5 22.5391C389.208 22.6849 388.964 22.9062 388.766 23.2031C388.568 23.5 388.419 23.875 388.32 24.3281C388.227 24.776 388.18 25.3021 388.18 25.9062V26.7109C388.18 27.2995 388.224 27.8177 388.312 28.2656C388.401 28.7083 388.536 29.0833 388.719 29.3906C388.906 29.6927 389.146 29.9219 389.438 30.0781C389.734 30.2292 390.091 30.3047 390.508 30.3047C390.997 30.3047 391.401 30.2266 391.719 30.0703C392.036 29.9141 392.279 29.6823 392.445 29.375C392.617 29.0677 392.719 28.6849 392.75 28.2266ZM396.125 27.8594V27.6953C396.125 27.0755 396.214 26.5052 396.391 25.9844C396.568 25.4583 396.826 25.0026 397.164 24.6172C397.503 24.2318 397.919 23.9323 398.414 23.7188C398.909 23.5 399.477 23.3906 400.117 23.3906C400.758 23.3906 401.328 23.5 401.828 23.7188C402.328 23.9323 402.747 24.2318 403.086 24.6172C403.43 25.0026 403.69 25.4583 403.867 25.9844C404.044 26.5052 404.133 27.0755 404.133 27.6953V27.8594C404.133 28.474 404.044 29.0443 403.867 29.5703C403.69 30.0911 403.43 30.5469 403.086 30.9375C402.747 31.3229 402.331 31.6224 401.836 31.8359C401.341 32.0495 400.773 32.1562 400.133 32.1562C399.492 32.1562 398.922 32.0495 398.422 31.8359C397.927 31.6224 397.508 31.3229 397.164 30.9375C396.826 30.5469 396.568 30.0911 396.391 29.5703C396.214 29.0443 396.125 28.474 396.125 27.8594ZM398.375 27.6953V27.8594C398.375 28.2135 398.406 28.5443 398.469 28.8516C398.531 29.1589 398.63 29.4297 398.766 29.6641C398.906 29.8932 399.089 30.0729 399.312 30.2031C399.536 30.3333 399.81 30.3984 400.133 30.3984C400.445 30.3984 400.714 30.3333 400.938 30.2031C401.161 30.0729 401.341 29.8932 401.477 29.6641C401.612 29.4297 401.711 29.1589 401.773 28.8516C401.841 28.5443 401.875 28.2135 401.875 27.8594V27.6953C401.875 27.3516 401.841 27.0286 401.773 26.7266C401.711 26.4193 401.609 26.1484 401.469 25.9141C401.333 25.6745 401.154 25.487 400.93 25.3516C400.706 25.2161 400.435 25.1484 400.117 25.1484C399.799 25.1484 399.529 25.2161 399.305 25.3516C399.086 25.487 398.906 25.6745 398.766 25.9141C398.63 26.1484 398.531 26.4193 398.469 26.7266C398.406 27.0286 398.375 27.3516 398.375 27.6953ZM410.516 29.9766V23.5469H412.766V32H410.648L410.516 29.9766ZM410.766 28.2422L411.43 28.2266C411.43 28.7891 411.365 29.3125 411.234 29.7969C411.104 30.276 410.909 30.6927 410.648 31.0469C410.388 31.3958 410.06 31.6693 409.664 31.8672C409.268 32.0599 408.802 32.1562 408.266 32.1562C407.854 32.1562 407.474 32.099 407.125 31.9844C406.781 31.8646 406.484 31.6797 406.234 31.4297C405.99 31.1745 405.797 30.849 405.656 30.4531C405.521 30.0521 405.453 29.5703 405.453 29.0078V23.5469H407.703V29.0234C407.703 29.2734 407.732 29.4844 407.789 29.6562C407.852 29.8281 407.938 29.9688 408.047 30.0781C408.156 30.1875 408.284 30.2656 408.43 30.3125C408.581 30.3594 408.747 30.3828 408.93 30.3828C409.393 30.3828 409.758 30.2891 410.023 30.1016C410.294 29.9141 410.484 29.6589 410.594 29.3359C410.708 29.0078 410.766 28.6432 410.766 28.2422ZM416.688 25.3516V32H414.438V23.5469H416.547L416.688 25.3516ZM416.359 27.4766H415.75C415.75 26.8516 415.831 26.2891 415.992 25.7891C416.154 25.2839 416.38 24.8542 416.672 24.5C416.964 24.1406 417.31 23.8672 417.711 23.6797C418.117 23.487 418.57 23.3906 419.07 23.3906C419.466 23.3906 419.828 23.4479 420.156 23.5625C420.484 23.6771 420.766 23.8594 421 24.1094C421.24 24.3594 421.422 24.6901 421.547 25.1016C421.677 25.513 421.742 26.0156 421.742 26.6094V32H419.477V26.6016C419.477 26.2266 419.424 25.9349 419.32 25.7266C419.216 25.5182 419.062 25.3724 418.859 25.2891C418.661 25.2005 418.417 25.1562 418.125 25.1562C417.823 25.1562 417.56 25.2161 417.336 25.3359C417.117 25.4557 416.935 25.6224 416.789 25.8359C416.648 26.0443 416.542 26.2891 416.469 26.5703C416.396 26.8516 416.359 27.1536 416.359 27.4766ZM427.594 23.5469V25.1406H422.672V23.5469H427.594ZM423.891 21.4609H426.141V29.4531C426.141 29.6979 426.172 29.8854 426.234 30.0156C426.302 30.1458 426.401 30.237 426.531 30.2891C426.661 30.3359 426.826 30.3594 427.023 30.3594C427.164 30.3594 427.289 30.3542 427.398 30.3438C427.513 30.3281 427.609 30.3125 427.688 30.2969L427.695 31.9531C427.503 32.0156 427.294 32.0651 427.07 32.1016C426.846 32.138 426.599 32.1562 426.328 32.1562C425.833 32.1562 425.401 32.0755 425.031 31.9141C424.667 31.7474 424.385 31.4818 424.188 31.1172C423.99 30.7526 423.891 30.2734 423.891 29.6797V21.4609Z" fill="#21272A"/>
<path d="M457.523 27.9453H454.625V26.1172H457.523C457.971 26.1172 458.336 26.0443 458.617 25.8984C458.898 25.7474 459.104 25.5391 459.234 25.2734C459.365 25.0078 459.43 24.7083 459.43 24.375C459.43 24.0365 459.365 23.7214 459.234 23.4297C459.104 23.138 458.898 22.9036 458.617 22.7266C458.336 22.5495 457.971 22.4609 457.523 22.4609H455.438V32H453.094V20.625H457.523C458.414 20.625 459.177 20.7865 459.812 21.1094C460.453 21.4271 460.943 21.8672 461.281 22.4297C461.62 22.9922 461.789 23.6354 461.789 24.3594C461.789 25.0938 461.62 25.7292 461.281 26.2656C460.943 26.8021 460.453 27.2161 459.812 27.5078C459.177 27.7995 458.414 27.9453 457.523 27.9453ZM467.047 32.1562C466.391 32.1562 465.802 32.0521 465.281 31.8438C464.76 31.6302 464.318 31.3359 463.953 30.9609C463.594 30.5859 463.318 30.151 463.125 29.6562C462.932 29.1562 462.836 28.625 462.836 28.0625V27.75C462.836 27.1094 462.927 26.5234 463.109 25.9922C463.292 25.4609 463.552 25 463.891 24.6094C464.234 24.2188 464.651 23.9193 465.141 23.7109C465.63 23.4974 466.182 23.3906 466.797 23.3906C467.396 23.3906 467.927 23.4896 468.391 23.6875C468.854 23.8854 469.242 24.1667 469.555 24.5312C469.872 24.8958 470.112 25.3333 470.273 25.8438C470.435 26.349 470.516 26.9115 470.516 27.5312V28.4688H463.797V26.9688H468.305V26.7969C468.305 26.4844 468.247 26.2057 468.133 25.9609C468.023 25.7109 467.857 25.513 467.633 25.3672C467.409 25.2214 467.122 25.1484 466.773 25.1484C466.477 25.1484 466.221 25.2135 466.008 25.3438C465.794 25.474 465.62 25.6562 465.484 25.8906C465.354 26.125 465.255 26.401 465.188 26.7188C465.125 27.0312 465.094 27.375 465.094 27.75V28.0625C465.094 28.401 465.141 28.7135 465.234 29C465.333 29.2865 465.471 29.5339 465.648 29.7422C465.831 29.9505 466.049 30.112 466.305 30.2266C466.565 30.3411 466.859 30.3984 467.188 30.3984C467.594 30.3984 467.971 30.3203 468.32 30.1641C468.674 30.0026 468.979 29.7604 469.234 29.4375L470.328 30.625C470.151 30.8802 469.909 31.125 469.602 31.3594C469.299 31.5938 468.935 31.7865 468.508 31.9375C468.081 32.0833 467.594 32.1562 467.047 32.1562ZM474.047 25.3906V32H471.797V23.5469H473.914L474.047 25.3906ZM476.594 23.4922L476.555 25.5781C476.445 25.5625 476.312 25.5495 476.156 25.5391C476.005 25.5234 475.867 25.5156 475.742 25.5156C475.424 25.5156 475.148 25.5573 474.914 25.6406C474.685 25.7188 474.492 25.8359 474.336 25.9922C474.185 26.1484 474.07 26.3385 473.992 26.5625C473.919 26.7865 473.878 27.0417 473.867 27.3281L473.414 27.1875C473.414 26.6406 473.469 26.138 473.578 25.6797C473.688 25.2161 473.846 24.8125 474.055 24.4688C474.268 24.125 474.529 23.8594 474.836 23.6719C475.143 23.4844 475.495 23.3906 475.891 23.3906C476.016 23.3906 476.143 23.401 476.273 23.4219C476.404 23.4375 476.51 23.4609 476.594 23.4922ZM480.992 30.3984C481.268 30.3984 481.513 30.3464 481.727 30.2422C481.94 30.1328 482.107 29.9818 482.227 29.7891C482.352 29.5911 482.417 29.3594 482.422 29.0938H484.539C484.534 29.6875 484.375 30.2161 484.062 30.6797C483.75 31.138 483.331 31.5 482.805 31.7656C482.279 32.026 481.69 32.1562 481.039 32.1562C480.383 32.1562 479.81 32.0469 479.32 31.8281C478.836 31.6094 478.432 31.3073 478.109 30.9219C477.786 30.5312 477.544 30.0781 477.383 29.5625C477.221 29.0417 477.141 28.4844 477.141 27.8906V27.6641C477.141 27.0651 477.221 26.5078 477.383 25.9922C477.544 25.4714 477.786 25.0182 478.109 24.6328C478.432 24.2422 478.836 23.9375 479.32 23.7188C479.805 23.5 480.372 23.3906 481.023 23.3906C481.716 23.3906 482.323 23.5234 482.844 23.7891C483.37 24.0547 483.781 24.4349 484.078 24.9297C484.38 25.4193 484.534 26 484.539 26.6719H482.422C482.417 26.3906 482.357 26.1354 482.242 25.9062C482.133 25.6771 481.971 25.4948 481.758 25.3594C481.549 25.2188 481.292 25.1484 480.984 25.1484C480.656 25.1484 480.388 25.2188 480.18 25.3594C479.971 25.4948 479.81 25.6823 479.695 25.9219C479.581 26.1562 479.5 26.4245 479.453 26.7266C479.411 27.0234 479.391 27.3359 479.391 27.6641V27.8906C479.391 28.2188 479.411 28.5339 479.453 28.8359C479.495 29.138 479.573 29.4062 479.688 29.6406C479.807 29.875 479.971 30.0599 480.18 30.1953C480.388 30.3307 480.659 30.3984 480.992 30.3984ZM489.734 32.1562C489.078 32.1562 488.49 32.0521 487.969 31.8438C487.448 31.6302 487.005 31.3359 486.641 30.9609C486.281 30.5859 486.005 30.151 485.812 29.6562C485.62 29.1562 485.523 28.625 485.523 28.0625V27.75C485.523 27.1094 485.615 26.5234 485.797 25.9922C485.979 25.4609 486.24 25 486.578 24.6094C486.922 24.2188 487.339 23.9193 487.828 23.7109C488.318 23.4974 488.87 23.3906 489.484 23.3906C490.083 23.3906 490.615 23.4896 491.078 23.6875C491.542 23.8854 491.93 24.1667 492.242 24.5312C492.56 24.8958 492.799 25.3333 492.961 25.8438C493.122 26.349 493.203 26.9115 493.203 27.5312V28.4688H486.484V26.9688H490.992V26.7969C490.992 26.4844 490.935 26.2057 490.82 25.9609C490.711 25.7109 490.544 25.513 490.32 25.3672C490.096 25.2214 489.81 25.1484 489.461 25.1484C489.164 25.1484 488.909 25.2135 488.695 25.3438C488.482 25.474 488.307 25.6562 488.172 25.8906C488.042 26.125 487.943 26.401 487.875 26.7188C487.812 27.0312 487.781 27.375 487.781 27.75V28.0625C487.781 28.401 487.828 28.7135 487.922 29C488.021 29.2865 488.159 29.5339 488.336 29.7422C488.518 29.9505 488.737 30.112 488.992 30.2266C489.253 30.3411 489.547 30.3984 489.875 30.3984C490.281 30.3984 490.659 30.3203 491.008 30.1641C491.362 30.0026 491.667 29.7604 491.922 29.4375L493.016 30.625C492.839 30.8802 492.596 31.125 492.289 31.3594C491.987 31.5938 491.622 31.7865 491.195 31.9375C490.768 32.0833 490.281 32.1562 489.734 32.1562ZM496.688 25.3516V32H494.438V23.5469H496.547L496.688 25.3516ZM496.359 27.4766H495.75C495.75 26.8516 495.831 26.2891 495.992 25.7891C496.154 25.2839 496.38 24.8542 496.672 24.5C496.964 24.1406 497.31 23.8672 497.711 23.6797C498.117 23.487 498.57 23.3906 499.07 23.3906C499.466 23.3906 499.828 23.4479 500.156 23.5625C500.484 23.6771 500.766 23.8594 501 24.1094C501.24 24.3594 501.422 24.6901 501.547 25.1016C501.677 25.513 501.742 26.0156 501.742 26.6094V32H499.477V26.6016C499.477 26.2266 499.424 25.9349 499.32 25.7266C499.216 25.5182 499.062 25.3724 498.859 25.2891C498.661 25.2005 498.417 25.1562 498.125 25.1562C497.823 25.1562 497.56 25.2161 497.336 25.3359C497.117 25.4557 496.935 25.6224 496.789 25.8359C496.648 26.0443 496.542 26.2891 496.469 26.5703C496.396 26.8516 496.359 27.1536 496.359 27.4766ZM507.594 23.5469V25.1406H502.672V23.5469H507.594ZM503.891 21.4609H506.141V29.4531C506.141 29.6979 506.172 29.8854 506.234 30.0156C506.302 30.1458 506.401 30.237 506.531 30.2891C506.661 30.3359 506.826 30.3594 507.023 30.3594C507.164 30.3594 507.289 30.3542 507.398 30.3438C507.513 30.3281 507.609 30.3125 507.688 30.2969L507.695 31.9531C507.503 32.0156 507.294 32.0651 507.07 32.1016C506.846 32.138 506.599 32.1562 506.328 32.1562C505.833 32.1562 505.401 32.0755 505.031 31.9141C504.667 31.7474 504.385 31.4818 504.188 31.1172C503.99 30.7526 503.891 30.2734 503.891 29.6797V21.4609Z" fill="#21272A"/>
<path d="M23.9997 72.7098C20.3177 72.7098 17.333 69.7251 17.333 66.0431C17.333 62.3611 20.3177 59.3765 23.9997 59.3765C27.6817 59.3765 30.6663 62.3611 30.6663 66.0431C30.6663 69.7251 27.6817 72.7098 23.9997 72.7098Z" fill="#A2A9B0"/>
<path d="M46.0703 59.625V71H44.5547L38.8281 62.2266V71H37.3203V59.625H38.8281L44.5781 68.4219V59.625H46.0703ZM48.1406 66.8672V66.6875C48.1406 66.0781 48.2292 65.513 48.4062 64.9922C48.5833 64.4661 48.8385 64.0104 49.1719 63.625C49.5052 63.2344 49.9089 62.9323 50.3828 62.7188C50.8568 62.5 51.388 62.3906 51.9766 62.3906C52.5703 62.3906 53.1042 62.5 53.5781 62.7188C54.0573 62.9323 54.4635 63.2344 54.7969 63.625C55.1354 64.0104 55.3932 64.4661 55.5703 64.9922C55.7474 65.513 55.8359 66.0781 55.8359 66.6875V66.8672C55.8359 67.4766 55.7474 68.0417 55.5703 68.5625C55.3932 69.0833 55.1354 69.5391 54.7969 69.9297C54.4635 70.3151 54.0599 70.6172 53.5859 70.8359C53.1172 71.0495 52.5859 71.1562 51.9922 71.1562C51.3984 71.1562 50.8646 71.0495 50.3906 70.8359C49.9167 70.6172 49.5104 70.3151 49.1719 69.9297C48.8385 69.5391 48.5833 69.0833 48.4062 68.5625C48.2292 68.0417 48.1406 67.4766 48.1406 66.8672ZM49.5859 66.6875V66.8672C49.5859 67.2891 49.6354 67.6875 49.7344 68.0625C49.8333 68.4323 49.9818 68.7604 50.1797 69.0469C50.3828 69.3333 50.6354 69.5599 50.9375 69.7266C51.2396 69.888 51.5911 69.9688 51.9922 69.9688C52.388 69.9688 52.7344 69.888 53.0312 69.7266C53.3333 69.5599 53.5833 69.3333 53.7812 69.0469C53.9792 68.7604 54.1276 68.4323 54.2266 68.0625C54.3307 67.6875 54.3828 67.2891 54.3828 66.8672V66.6875C54.3828 66.2708 54.3307 65.8776 54.2266 65.5078C54.1276 65.1328 53.9766 64.8021 53.7734 64.5156C53.5755 64.224 53.3255 63.9948 53.0234 63.8281C52.7266 63.6615 52.3776 63.5781 51.9766 63.5781C51.5807 63.5781 51.2318 63.6615 50.9297 63.8281C50.6328 63.9948 50.3828 64.224 50.1797 64.5156C49.9818 64.8021 49.8333 65.1328 49.7344 65.5078C49.6354 65.8776 49.5859 66.2708 49.5859 66.6875Z" fill="#21272A"/>
<path d="M396.961 67.9219C396.961 68.6146 396.799 69.2031 396.477 69.6875C396.159 70.1667 395.727 70.5312 395.18 70.7812C394.638 71.0312 394.026 71.1562 393.344 71.1562C392.661 71.1562 392.047 71.0312 391.5 70.7812C390.953 70.5312 390.521 70.1667 390.203 69.6875C389.885 69.2031 389.727 68.6146 389.727 67.9219C389.727 67.4688 389.812 67.0547 389.984 66.6797C390.161 66.2995 390.409 65.9688 390.727 65.6875C391.049 65.4062 391.43 65.1901 391.867 65.0391C392.31 64.8828 392.797 64.8047 393.328 64.8047C394.026 64.8047 394.648 64.9401 395.195 65.2109C395.742 65.4766 396.172 65.8438 396.484 66.3125C396.802 66.7812 396.961 67.3177 396.961 67.9219ZM395.508 67.8906C395.508 67.4688 395.417 67.0964 395.234 66.7734C395.052 66.4453 394.797 66.1901 394.469 66.0078C394.141 65.8255 393.76 65.7344 393.328 65.7344C392.885 65.7344 392.503 65.8255 392.18 66.0078C391.862 66.1901 391.615 66.4453 391.438 66.7734C391.26 67.0964 391.172 67.4688 391.172 67.8906C391.172 68.3281 391.258 68.7031 391.43 69.0156C391.607 69.3229 391.857 69.5599 392.18 69.7266C392.508 69.888 392.896 69.9688 393.344 69.9688C393.792 69.9688 394.177 69.888 394.5 69.7266C394.823 69.5599 395.07 69.3229 395.242 69.0156C395.419 68.7031 395.508 68.3281 395.508 67.8906ZM396.695 62.5859C396.695 63.138 396.549 63.6354 396.258 64.0781C395.966 64.5208 395.568 64.8698 395.062 65.125C394.557 65.3802 393.984 65.5078 393.344 65.5078C392.693 65.5078 392.112 65.3802 391.602 65.125C391.096 64.8698 390.701 64.5208 390.414 64.0781C390.128 63.6354 389.984 63.138 389.984 62.5859C389.984 61.9245 390.128 61.362 390.414 60.8984C390.706 60.4349 391.104 60.0807 391.609 59.8359C392.115 59.5911 392.69 59.4688 393.336 59.4688C393.987 59.4688 394.565 59.5911 395.07 59.8359C395.576 60.0807 395.971 60.4349 396.258 60.8984C396.549 61.362 396.695 61.9245 396.695 62.5859ZM395.25 62.6094C395.25 62.2292 395.169 61.8932 395.008 61.6016C394.846 61.3099 394.622 61.0807 394.336 60.9141C394.049 60.7422 393.716 60.6562 393.336 60.6562C392.956 60.6562 392.622 60.737 392.336 60.8984C392.055 61.0547 391.833 61.2786 391.672 61.5703C391.516 61.862 391.438 62.2083 391.438 62.6094C391.438 63 391.516 63.3411 391.672 63.6328C391.833 63.9245 392.057 64.151 392.344 64.3125C392.63 64.474 392.964 64.5547 393.344 64.5547C393.724 64.5547 394.055 64.474 394.336 64.3125C394.622 64.151 394.846 63.9245 395.008 63.6328C395.169 63.3411 395.25 63 395.25 62.6094ZM400.258 69.2812V70.4453C400.258 70.9193 400.138 71.4193 399.898 71.9453C399.659 72.4766 399.323 72.9193 398.891 73.2734L398.07 72.7031C398.237 72.474 398.378 72.2396 398.492 72C398.607 71.7656 398.693 71.5208 398.75 71.2656C398.812 71.0156 398.844 70.75 398.844 70.4688V69.2812H400.258ZM409.117 67.9219C409.117 68.6146 408.956 69.2031 408.633 69.6875C408.315 70.1667 407.883 70.5312 407.336 70.7812C406.794 71.0312 406.182 71.1562 405.5 71.1562C404.818 71.1562 404.203 71.0312 403.656 70.7812C403.109 70.5312 402.677 70.1667 402.359 69.6875C402.042 69.2031 401.883 68.6146 401.883 67.9219C401.883 67.4688 401.969 67.0547 402.141 66.6797C402.318 66.2995 402.565 65.9688 402.883 65.6875C403.206 65.4062 403.586 65.1901 404.023 65.0391C404.466 64.8828 404.953 64.8047 405.484 64.8047C406.182 64.8047 406.805 64.9401 407.352 65.2109C407.898 65.4766 408.328 65.8438 408.641 66.3125C408.958 66.7812 409.117 67.3177 409.117 67.9219ZM407.664 67.8906C407.664 67.4688 407.573 67.0964 407.391 66.7734C407.208 66.4453 406.953 66.1901 406.625 66.0078C406.297 65.8255 405.917 65.7344 405.484 65.7344C405.042 65.7344 404.659 65.8255 404.336 66.0078C404.018 66.1901 403.771 66.4453 403.594 66.7734C403.417 67.0964 403.328 67.4688 403.328 67.8906C403.328 68.3281 403.414 68.7031 403.586 69.0156C403.763 69.3229 404.013 69.5599 404.336 69.7266C404.664 69.888 405.052 69.9688 405.5 69.9688C405.948 69.9688 406.333 69.888 406.656 69.7266C406.979 69.5599 407.227 69.3229 407.398 69.0156C407.576 68.7031 407.664 68.3281 407.664 67.8906ZM408.852 62.5859C408.852 63.138 408.706 63.6354 408.414 64.0781C408.122 64.5208 407.724 64.8698 407.219 65.125C406.714 65.3802 406.141 65.5078 405.5 65.5078C404.849 65.5078 404.268 65.3802 403.758 65.125C403.253 64.8698 402.857 64.5208 402.57 64.0781C402.284 63.6354 402.141 63.138 402.141 62.5859C402.141 61.9245 402.284 61.362 402.57 60.8984C402.862 60.4349 403.26 60.0807 403.766 59.8359C404.271 59.5911 404.846 59.4688 405.492 59.4688C406.143 59.4688 406.721 59.5911 407.227 59.8359C407.732 60.0807 408.128 60.4349 408.414 60.8984C408.706 61.362 408.852 61.9245 408.852 62.5859ZM407.406 62.6094C407.406 62.2292 407.326 61.8932 407.164 61.6016C407.003 61.3099 406.779 61.0807 406.492 60.9141C406.206 60.7422 405.872 60.6562 405.492 60.6562C405.112 60.6562 404.779 60.737 404.492 60.8984C404.211 61.0547 403.99 61.2786 403.828 61.5703C403.672 61.862 403.594 62.2083 403.594 62.6094C403.594 63 403.672 63.3411 403.828 63.6328C403.99 63.9245 404.214 64.151 404.5 64.3125C404.786 64.474 405.12 64.5547 405.5 64.5547C405.88 64.5547 406.211 64.474 406.492 64.3125C406.779 64.151 407.003 63.9245 407.164 63.6328C407.326 63.3411 407.406 63 407.406 62.6094ZM415.695 59.5625V71H414.25V61.3672L411.336 62.4297V61.125L415.469 59.5625H415.695ZM427.086 64.4062V66.1406C427.086 67.0729 427.003 67.8594 426.836 68.5C426.669 69.1406 426.43 69.6562 426.117 70.0469C425.805 70.4375 425.427 70.7214 424.984 70.8984C424.547 71.0703 424.052 71.1562 423.5 71.1562C423.062 71.1562 422.659 71.1016 422.289 70.9922C421.919 70.8828 421.586 70.7083 421.289 70.4688C420.997 70.224 420.747 69.9062 420.539 69.5156C420.331 69.125 420.172 68.651 420.062 68.0938C419.953 67.5365 419.898 66.8854 419.898 66.1406V64.4062C419.898 63.474 419.982 62.6927 420.148 62.0625C420.32 61.4323 420.562 60.9271 420.875 60.5469C421.188 60.1615 421.562 59.8854 422 59.7188C422.443 59.5521 422.938 59.4688 423.484 59.4688C423.927 59.4688 424.333 59.5234 424.703 59.6328C425.078 59.737 425.411 59.9062 425.703 60.1406C425.995 60.3698 426.242 60.6771 426.445 61.0625C426.654 61.4427 426.812 61.9089 426.922 62.4609C427.031 63.013 427.086 63.6615 427.086 64.4062ZM425.633 66.375V64.1641C425.633 63.6536 425.602 63.2057 425.539 62.8203C425.482 62.4297 425.396 62.0964 425.281 61.8203C425.167 61.5443 425.021 61.3203 424.844 61.1484C424.672 60.9766 424.471 60.8516 424.242 60.7734C424.018 60.6901 423.766 60.6484 423.484 60.6484C423.141 60.6484 422.836 60.7135 422.57 60.8438C422.305 60.9688 422.081 61.1693 421.898 61.4453C421.721 61.7214 421.586 62.0833 421.492 62.5312C421.398 62.9792 421.352 63.5234 421.352 64.1641V66.375C421.352 66.8854 421.38 67.3359 421.438 67.7266C421.5 68.1172 421.591 68.4557 421.711 68.7422C421.831 69.0234 421.977 69.2552 422.148 69.4375C422.32 69.6198 422.518 69.7552 422.742 69.8438C422.971 69.9271 423.224 69.9688 423.5 69.9688C423.854 69.9688 424.164 69.901 424.43 69.7656C424.695 69.6302 424.917 69.4193 425.094 69.1328C425.276 68.8411 425.411 68.4688 425.5 68.0156C425.589 67.5573 425.633 67.0104 425.633 66.375Z" fill="#21272A"/>
<rect x="444" y="54" width="64" height="24" rx="12" fill="#F2F4F8"/>
<path d="M460.537 61.0469V61.7578L456.415 71H455.082L459.197 62.0859H453.811V61.0469H460.537ZM466.833 61.0332H466.942V62.1064H466.833C466.163 62.1064 465.603 62.2158 465.151 62.4346C464.7 62.6488 464.342 62.9382 464.078 63.3027C463.814 63.6628 463.622 64.0684 463.504 64.5195C463.39 64.9707 463.333 65.4287 463.333 65.8936V67.3564C463.333 67.7985 463.385 68.1904 463.49 68.5322C463.595 68.8695 463.739 69.1543 463.921 69.3867C464.103 69.6191 464.308 69.7946 464.536 69.9131C464.769 70.0316 465.01 70.0908 465.261 70.0908C465.552 70.0908 465.812 70.0361 466.04 69.9268C466.268 69.8128 466.459 69.6556 466.614 69.4551C466.774 69.25 466.895 69.0085 466.977 68.7305C467.059 68.4525 467.1 68.1471 467.1 67.8145C467.1 67.5182 467.063 67.2334 466.99 66.96C466.917 66.682 466.806 66.4359 466.655 66.2217C466.505 66.0029 466.316 65.832 466.088 65.709C465.865 65.5814 465.598 65.5176 465.288 65.5176C464.937 65.5176 464.609 65.6042 464.304 65.7773C464.003 65.946 463.755 66.1693 463.559 66.4473C463.367 66.7207 463.258 67.0192 463.23 67.3428L462.561 67.3359C462.624 66.8255 462.743 66.3903 462.916 66.0303C463.094 65.6657 463.312 65.3695 463.572 65.1416C463.837 64.9092 464.131 64.7406 464.454 64.6357C464.782 64.5264 465.129 64.4717 465.493 64.4717C465.99 64.4717 466.418 64.5651 466.778 64.752C467.138 64.9388 467.435 65.1895 467.667 65.5039C467.899 65.8138 468.07 66.1647 468.18 66.5566C468.294 66.944 468.351 67.3428 468.351 67.7529C468.351 68.2223 468.285 68.6621 468.152 69.0723C468.02 69.4824 467.822 69.8424 467.558 70.1523C467.298 70.4622 466.977 70.7038 466.594 70.877C466.211 71.0501 465.767 71.1367 465.261 71.1367C464.723 71.1367 464.254 71.0273 463.853 70.8086C463.451 70.5853 463.119 70.2891 462.854 69.9199C462.59 69.5508 462.392 69.1406 462.26 68.6895C462.128 68.2383 462.062 67.7803 462.062 67.3154V66.7207C462.062 66.0189 462.132 65.3307 462.273 64.6562C462.415 63.9818 462.659 63.3711 463.005 62.8242C463.356 62.2773 463.841 61.8421 464.461 61.5186C465.081 61.195 465.871 61.0332 466.833 61.0332ZM470.012 70.3301C470.012 70.1159 470.078 69.9359 470.21 69.79C470.347 69.6396 470.543 69.5645 470.798 69.5645C471.053 69.5645 471.247 69.6396 471.379 69.79C471.516 69.9359 471.584 70.1159 471.584 70.3301C471.584 70.5397 471.516 70.7174 471.379 70.8633C471.247 71.0091 471.053 71.082 470.798 71.082C470.543 71.082 470.347 71.0091 470.21 70.8633C470.078 70.7174 470.012 70.5397 470.012 70.3301ZM480.272 67.6504V68.6895H473.081V67.9443L477.538 61.0469H478.57L477.463 63.043L474.517 67.6504H480.272ZM478.885 61.0469V71H477.62V61.0469H478.885ZM487.696 68.3066C487.696 68.9128 487.555 69.4277 487.272 69.8516C486.994 70.2708 486.616 70.5898 486.138 70.8086C485.664 71.0273 485.128 71.1367 484.531 71.1367C483.934 71.1367 483.396 71.0273 482.918 70.8086C482.439 70.5898 482.061 70.2708 481.783 69.8516C481.505 69.4277 481.366 68.9128 481.366 68.3066C481.366 67.9102 481.441 67.5479 481.592 67.2197C481.747 66.887 481.963 66.5977 482.241 66.3516C482.524 66.1055 482.856 65.9163 483.239 65.7842C483.627 65.6475 484.053 65.5791 484.518 65.5791C485.128 65.5791 485.673 65.6976 486.151 65.9346C486.63 66.167 487.006 66.4883 487.279 66.8984C487.557 67.3086 487.696 67.778 487.696 68.3066ZM486.425 68.2793C486.425 67.9102 486.345 67.5843 486.186 67.3018C486.026 67.0146 485.803 66.7913 485.516 66.6318C485.229 66.4723 484.896 66.3926 484.518 66.3926C484.13 66.3926 483.795 66.4723 483.513 66.6318C483.235 66.7913 483.018 67.0146 482.863 67.3018C482.708 67.5843 482.631 67.9102 482.631 68.2793C482.631 68.6621 482.706 68.9902 482.856 69.2637C483.011 69.5326 483.23 69.7399 483.513 69.8857C483.8 70.027 484.139 70.0977 484.531 70.0977C484.923 70.0977 485.26 70.027 485.543 69.8857C485.826 69.7399 486.042 69.5326 486.192 69.2637C486.347 68.9902 486.425 68.6621 486.425 68.2793ZM487.464 63.6377C487.464 64.1208 487.336 64.556 487.081 64.9434C486.826 65.3307 486.477 65.6361 486.035 65.8594C485.593 66.0827 485.092 66.1943 484.531 66.1943C483.962 66.1943 483.453 66.0827 483.007 65.8594C482.565 65.6361 482.218 65.3307 481.968 64.9434C481.717 64.556 481.592 64.1208 481.592 63.6377C481.592 63.0589 481.717 62.5667 481.968 62.1611C482.223 61.7555 482.572 61.4456 483.014 61.2314C483.456 61.0173 483.959 60.9102 484.524 60.9102C485.094 60.9102 485.6 61.0173 486.042 61.2314C486.484 61.4456 486.83 61.7555 487.081 62.1611C487.336 62.5667 487.464 63.0589 487.464 63.6377ZM486.199 63.6582C486.199 63.3255 486.129 63.0316 485.987 62.7764C485.846 62.5212 485.65 62.3206 485.399 62.1748C485.149 62.0244 484.857 61.9492 484.524 61.9492C484.192 61.9492 483.9 62.0199 483.649 62.1611C483.403 62.2979 483.21 62.4938 483.068 62.749C482.932 63.0042 482.863 63.3073 482.863 63.6582C482.863 64 482.932 64.2985 483.068 64.5537C483.21 64.8089 483.406 65.0072 483.656 65.1484C483.907 65.2897 484.199 65.3604 484.531 65.3604C484.864 65.3604 485.153 65.2897 485.399 65.1484C485.65 65.0072 485.846 64.8089 485.987 64.5537C486.129 64.2985 486.199 64 486.199 63.6582ZM489.187 63.4873V62.9609C489.187 62.5827 489.269 62.2386 489.433 61.9287C489.597 61.6188 489.831 61.3704 490.137 61.1836C490.442 60.9967 490.804 60.9033 491.224 60.9033C491.652 60.9033 492.017 60.9967 492.317 61.1836C492.623 61.3704 492.857 61.6188 493.021 61.9287C493.186 62.2386 493.268 62.5827 493.268 62.9609V63.4873C493.268 63.8564 493.186 64.196 493.021 64.5059C492.862 64.8158 492.63 65.0641 492.324 65.251C492.023 65.4378 491.661 65.5312 491.237 65.5312C490.813 65.5312 490.447 65.4378 490.137 65.251C489.831 65.0641 489.597 64.8158 489.433 64.5059C489.269 64.196 489.187 63.8564 489.187 63.4873ZM490.137 62.9609V63.4873C490.137 63.6969 490.175 63.8952 490.253 64.082C490.335 64.2689 490.458 64.4215 490.622 64.54C490.786 64.654 490.991 64.7109 491.237 64.7109C491.483 64.7109 491.686 64.654 491.846 64.54C492.005 64.4215 492.124 64.2689 492.201 64.082C492.279 63.8952 492.317 63.6969 492.317 63.4873V62.9609C492.317 62.7467 492.276 62.5462 492.194 62.3594C492.117 62.168 491.996 62.0153 491.832 61.9014C491.673 61.7829 491.47 61.7236 491.224 61.7236C490.982 61.7236 490.779 61.7829 490.615 61.9014C490.456 62.0153 490.335 62.168 490.253 62.3594C490.175 62.5462 490.137 62.7467 490.137 62.9609ZM494.033 69.0928V68.5596C494.033 68.1859 494.115 67.8441 494.279 67.5342C494.443 67.2243 494.678 66.9759 494.983 66.7891C495.289 66.6022 495.651 66.5088 496.07 66.5088C496.499 66.5088 496.863 66.6022 497.164 66.7891C497.469 66.9759 497.704 67.2243 497.868 67.5342C498.032 67.8441 498.114 68.1859 498.114 68.5596V69.0928C498.114 69.4665 498.032 69.8083 497.868 70.1182C497.709 70.4281 497.476 70.6764 497.171 70.8633C496.87 71.0501 496.508 71.1436 496.084 71.1436C495.66 71.1436 495.296 71.0501 494.99 70.8633C494.685 70.6764 494.448 70.4281 494.279 70.1182C494.115 69.8083 494.033 69.4665 494.033 69.0928ZM494.983 68.5596V69.0928C494.983 69.3024 495.022 69.5029 495.1 69.6943C495.182 69.8812 495.305 70.0339 495.469 70.1523C495.633 70.2663 495.838 70.3232 496.084 70.3232C496.33 70.3232 496.533 70.2663 496.692 70.1523C496.856 70.0339 496.977 69.8812 497.055 69.6943C497.132 69.5075 497.171 69.307 497.171 69.0928V68.5596C497.171 68.3454 497.13 68.1449 497.048 67.958C496.97 67.7712 496.85 67.6208 496.686 67.5068C496.526 67.3883 496.321 67.3291 496.07 67.3291C495.829 67.3291 495.626 67.3883 495.462 67.5068C495.302 67.6208 495.182 67.7712 495.1 67.958C495.022 68.1449 494.983 68.3454 494.983 68.5596ZM496.385 62.4619L491.524 70.2412L490.813 69.79L495.674 62.0107L496.385 62.4619Z" fill="#21272A"/>
<rect width="492" height="32" transform="translate(16 94)" fill="#F2F4F8"/>
<path d="M23.9997 116.71C20.3177 116.71 17.333 113.725 17.333 110.043C17.333 106.361 20.3177 103.376 23.9997 103.376C27.6817 103.376 30.6663 106.361 30.6663 110.043C30.6663 113.725 27.6817 116.71 23.9997 116.71Z" fill="#001D6C"/>
<path d="M38.5781 103.625L40.9531 108.812L43.3281 103.625H45.8828L42.1406 110.859V115H39.7656V110.859L36.0156 103.625H38.5781ZM50.1562 115.156C49.5 115.156 48.9115 115.052 48.3906 114.844C47.8698 114.63 47.4271 114.336 47.0625 113.961C46.7031 113.586 46.4271 113.151 46.2344 112.656C46.0417 112.156 45.9453 111.625 45.9453 111.062V110.75C45.9453 110.109 46.0365 109.523 46.2188 108.992C46.401 108.461 46.6615 108 47 107.609C47.3438 107.219 47.7604 106.919 48.25 106.711C48.7396 106.497 49.2917 106.391 49.9062 106.391C50.5052 106.391 51.0365 106.49 51.5 106.688C51.9635 106.885 52.3516 107.167 52.6641 107.531C52.9818 107.896 53.2214 108.333 53.3828 108.844C53.5443 109.349 53.625 109.911 53.625 110.531V111.469H46.9062V109.969H51.4141V109.797C51.4141 109.484 51.3568 109.206 51.2422 108.961C51.1328 108.711 50.9661 108.513 50.7422 108.367C50.5182 108.221 50.2318 108.148 49.8828 108.148C49.5859 108.148 49.3307 108.214 49.1172 108.344C48.9036 108.474 48.7292 108.656 48.5938 108.891C48.4635 109.125 48.3646 109.401 48.2969 109.719C48.2344 110.031 48.2031 110.375 48.2031 110.75V111.062C48.2031 111.401 48.25 111.714 48.3438 112C48.4427 112.286 48.5807 112.534 48.7578 112.742C48.9401 112.951 49.1589 113.112 49.4141 113.227C49.6745 113.341 49.9688 113.398 50.2969 113.398C50.7031 113.398 51.0807 113.32 51.4297 113.164C51.7839 113.003 52.0885 112.76 52.3438 112.438L53.4375 113.625C53.2604 113.88 53.0182 114.125 52.7109 114.359C52.4089 114.594 52.0443 114.786 51.6172 114.938C51.1901 115.083 50.7031 115.156 50.1562 115.156ZM59.4766 112.664C59.4766 112.503 59.4297 112.357 59.3359 112.227C59.2422 112.096 59.0677 111.977 58.8125 111.867C58.5625 111.753 58.2005 111.648 57.7266 111.555C57.2995 111.461 56.901 111.344 56.5312 111.203C56.1667 111.057 55.849 110.883 55.5781 110.68C55.3125 110.477 55.1042 110.237 54.9531 109.961C54.8021 109.68 54.7266 109.359 54.7266 109C54.7266 108.646 54.8021 108.312 54.9531 108C55.1094 107.688 55.3307 107.411 55.6172 107.172C55.9089 106.927 56.263 106.737 56.6797 106.602C57.1016 106.461 57.5755 106.391 58.1016 106.391C58.8359 106.391 59.4661 106.508 59.9922 106.742C60.5234 106.977 60.9297 107.299 61.2109 107.711C61.4974 108.117 61.6406 108.581 61.6406 109.102H59.3906C59.3906 108.883 59.3438 108.688 59.25 108.516C59.1615 108.339 59.0208 108.201 58.8281 108.102C58.6406 107.997 58.3958 107.945 58.0938 107.945C57.8438 107.945 57.6276 107.99 57.4453 108.078C57.263 108.161 57.1224 108.276 57.0234 108.422C56.9297 108.562 56.8828 108.719 56.8828 108.891C56.8828 109.021 56.9089 109.138 56.9609 109.242C57.0182 109.341 57.1094 109.432 57.2344 109.516C57.3594 109.599 57.5208 109.677 57.7188 109.75C57.9219 109.818 58.1719 109.88 58.4688 109.938C59.0781 110.062 59.6224 110.227 60.1016 110.43C60.5807 110.628 60.9609 110.898 61.2422 111.242C61.5234 111.581 61.6641 112.026 61.6641 112.578C61.6641 112.953 61.5807 113.297 61.4141 113.609C61.2474 113.922 61.0078 114.195 60.6953 114.43C60.3828 114.659 60.0078 114.839 59.5703 114.969C59.138 115.094 58.651 115.156 58.1094 115.156C57.3229 115.156 56.6562 115.016 56.1094 114.734C55.5677 114.453 55.1562 114.096 54.875 113.664C54.599 113.227 54.4609 112.779 54.4609 112.32H56.5938C56.6042 112.628 56.6823 112.875 56.8281 113.062C56.9792 113.25 57.1693 113.385 57.3984 113.469C57.6328 113.552 57.8854 113.594 58.1562 113.594C58.4479 113.594 58.6901 113.555 58.8828 113.477C59.0755 113.393 59.2214 113.284 59.3203 113.148C59.4245 113.008 59.4766 112.846 59.4766 112.664Z" fill="#21272A"/>
<path d="M395.875 113.242V115H388.094V113.5L391.773 109.555C392.143 109.143 392.435 108.781 392.648 108.469C392.862 108.151 393.016 107.867 393.109 107.617C393.208 107.362 393.258 107.12 393.258 106.891C393.258 106.547 393.201 106.253 393.086 106.008C392.971 105.758 392.802 105.565 392.578 105.43C392.359 105.294 392.089 105.227 391.766 105.227C391.422 105.227 391.125 105.31 390.875 105.477C390.63 105.643 390.443 105.875 390.312 106.172C390.188 106.469 390.125 106.805 390.125 107.18H387.867C387.867 106.503 388.029 105.883 388.352 105.32C388.674 104.753 389.13 104.302 389.719 103.969C390.307 103.63 391.005 103.461 391.812 103.461C392.609 103.461 393.281 103.591 393.828 103.852C394.38 104.107 394.797 104.477 395.078 104.961C395.365 105.44 395.508 106.013 395.508 106.68C395.508 107.055 395.448 107.422 395.328 107.781C395.208 108.135 395.036 108.49 394.812 108.844C394.594 109.193 394.328 109.547 394.016 109.906C393.703 110.266 393.357 110.638 392.977 111.023L391 113.242H395.875ZM399.508 113.102L399.5 114.609C399.5 115.188 399.354 115.771 399.062 116.359C398.776 116.948 398.411 117.43 397.969 117.805L396.797 117.203C396.927 116.964 397.055 116.724 397.18 116.484C397.305 116.245 397.409 115.982 397.492 115.695C397.576 115.409 397.617 115.083 397.617 114.719V113.102H399.508ZM408.945 103.625V104.836L404.547 115H402.172L406.57 105.383H400.906V103.625H408.945ZM418.062 108.312V110.281C418.062 111.135 417.971 111.872 417.789 112.492C417.607 113.107 417.344 113.612 417 114.008C416.661 114.398 416.258 114.688 415.789 114.875C415.32 115.062 414.799 115.156 414.227 115.156C413.768 115.156 413.341 115.099 412.945 114.984C412.549 114.865 412.193 114.68 411.875 114.43C411.562 114.18 411.292 113.865 411.062 113.484C410.839 113.099 410.667 112.641 410.547 112.109C410.427 111.578 410.367 110.969 410.367 110.281V108.312C410.367 107.458 410.458 106.727 410.641 106.117C410.828 105.503 411.091 105 411.43 104.609C411.773 104.219 412.18 103.932 412.648 103.75C413.117 103.562 413.638 103.469 414.211 103.469C414.669 103.469 415.094 103.529 415.484 103.648C415.88 103.763 416.237 103.943 416.555 104.188C416.872 104.432 417.143 104.747 417.367 105.133C417.591 105.513 417.763 105.969 417.883 106.5C418.003 107.026 418.062 107.63 418.062 108.312ZM415.805 110.578V108.008C415.805 107.596 415.781 107.237 415.734 106.93C415.693 106.622 415.628 106.362 415.539 106.148C415.451 105.93 415.341 105.753 415.211 105.617C415.081 105.482 414.932 105.383 414.766 105.32C414.599 105.258 414.414 105.227 414.211 105.227C413.956 105.227 413.729 105.276 413.531 105.375C413.339 105.474 413.174 105.633 413.039 105.852C412.904 106.065 412.799 106.352 412.727 106.711C412.659 107.065 412.625 107.497 412.625 108.008V110.578C412.625 110.99 412.646 111.352 412.688 111.664C412.734 111.977 412.802 112.245 412.891 112.469C412.984 112.688 413.094 112.867 413.219 113.008C413.349 113.143 413.497 113.242 413.664 113.305C413.836 113.367 414.023 113.398 414.227 113.398C414.477 113.398 414.698 113.349 414.891 113.25C415.089 113.146 415.255 112.984 415.391 112.766C415.531 112.542 415.635 112.25 415.703 111.891C415.771 111.531 415.805 111.094 415.805 110.578ZM421.188 113.289H421.336C421.961 113.289 422.497 113.214 422.945 113.062C423.398 112.906 423.771 112.682 424.062 112.391C424.354 112.099 424.57 111.742 424.711 111.32C424.852 110.893 424.922 110.409 424.922 109.867V107.711C424.922 107.299 424.88 106.938 424.797 106.625C424.719 106.312 424.604 106.055 424.453 105.852C424.307 105.643 424.135 105.487 423.938 105.383C423.745 105.279 423.531 105.227 423.297 105.227C423.047 105.227 422.826 105.289 422.633 105.414C422.44 105.534 422.276 105.698 422.141 105.906C422.01 106.115 421.909 106.354 421.836 106.625C421.768 106.891 421.734 107.169 421.734 107.461C421.734 107.753 421.768 108.031 421.836 108.297C421.904 108.557 422.005 108.789 422.141 108.992C422.276 109.19 422.445 109.349 422.648 109.469C422.852 109.583 423.091 109.641 423.367 109.641C423.633 109.641 423.87 109.591 424.078 109.492C424.292 109.388 424.471 109.253 424.617 109.086C424.768 108.919 424.883 108.734 424.961 108.531C425.044 108.328 425.086 108.122 425.086 107.914L425.828 108.32C425.828 108.685 425.75 109.044 425.594 109.398C425.438 109.753 425.219 110.076 424.938 110.367C424.661 110.654 424.341 110.883 423.977 111.055C423.612 111.227 423.221 111.312 422.805 111.312C422.273 111.312 421.802 111.216 421.391 111.023C420.979 110.826 420.63 110.555 420.344 110.211C420.062 109.862 419.849 109.456 419.703 108.992C419.557 108.529 419.484 108.026 419.484 107.484C419.484 106.932 419.573 106.414 419.75 105.93C419.932 105.445 420.19 105.018 420.523 104.648C420.862 104.279 421.266 103.99 421.734 103.781C422.208 103.568 422.734 103.461 423.312 103.461C423.891 103.461 424.417 103.573 424.891 103.797C425.365 104.021 425.771 104.339 426.109 104.75C426.448 105.156 426.708 105.643 426.891 106.211C427.078 106.779 427.172 107.409 427.172 108.102V108.883C427.172 109.622 427.091 110.31 426.93 110.945C426.773 111.581 426.536 112.156 426.219 112.672C425.906 113.182 425.516 113.62 425.047 113.984C424.583 114.349 424.044 114.628 423.43 114.82C422.815 115.013 422.128 115.109 421.367 115.109H421.188V113.289Z" fill="#21272A"/>
<rect x="444" y="98" width="64" height="24" rx="12" fill="#001D6C"/>
<path d="M460.209 113.462V115H453.4V113.688L456.62 110.235C456.944 109.875 457.199 109.559 457.386 109.285C457.573 109.007 457.707 108.759 457.789 108.54C457.876 108.317 457.919 108.105 457.919 107.904C457.919 107.604 457.869 107.346 457.769 107.132C457.668 106.913 457.52 106.744 457.324 106.626C457.133 106.507 456.896 106.448 456.613 106.448C456.312 106.448 456.053 106.521 455.834 106.667C455.62 106.813 455.456 107.016 455.342 107.275C455.232 107.535 455.178 107.829 455.178 108.157H453.202C453.202 107.565 453.343 107.022 453.626 106.53C453.909 106.034 454.307 105.639 454.822 105.348C455.337 105.051 455.948 104.903 456.654 104.903C457.352 104.903 457.939 105.017 458.418 105.245C458.901 105.468 459.266 105.792 459.512 106.216C459.762 106.635 459.888 107.136 459.888 107.72C459.888 108.048 459.835 108.369 459.73 108.684C459.626 108.993 459.475 109.303 459.279 109.613C459.088 109.919 458.855 110.229 458.582 110.543C458.309 110.857 458.006 111.183 457.673 111.521L455.943 113.462H460.209ZM463.456 109.169H464.509C464.846 109.169 465.124 109.112 465.343 108.998C465.562 108.88 465.723 108.715 465.828 108.506C465.938 108.292 465.992 108.043 465.992 107.761C465.992 107.506 465.942 107.28 465.842 107.084C465.746 106.883 465.598 106.729 465.397 106.619C465.197 106.505 464.944 106.448 464.639 106.448C464.397 106.448 464.174 106.496 463.969 106.592C463.764 106.688 463.6 106.822 463.477 106.995C463.354 107.168 463.292 107.378 463.292 107.624H461.316C461.316 107.077 461.462 106.601 461.754 106.195C462.05 105.79 462.447 105.473 462.943 105.245C463.44 105.017 463.987 104.903 464.584 104.903C465.258 104.903 465.849 105.013 466.354 105.231C466.86 105.446 467.255 105.762 467.537 106.182C467.82 106.601 467.961 107.12 467.961 107.74C467.961 108.055 467.888 108.36 467.742 108.656C467.596 108.948 467.387 109.212 467.113 109.449C466.844 109.682 466.516 109.868 466.129 110.01C465.742 110.146 465.306 110.215 464.823 110.215H463.456V109.169ZM463.456 110.666V109.647H464.823C465.366 109.647 465.842 109.709 466.252 109.832C466.662 109.955 467.006 110.133 467.284 110.365C467.562 110.593 467.772 110.864 467.913 111.179C468.054 111.489 468.125 111.833 468.125 112.211C468.125 112.676 468.036 113.09 467.858 113.455C467.681 113.815 467.43 114.12 467.106 114.371C466.787 114.622 466.414 114.813 465.985 114.945C465.557 115.073 465.09 115.137 464.584 115.137C464.165 115.137 463.752 115.08 463.347 114.966C462.946 114.847 462.581 114.672 462.253 114.439C461.929 114.202 461.67 113.906 461.474 113.551C461.282 113.191 461.187 112.765 461.187 112.272H463.162C463.162 112.528 463.226 112.756 463.354 112.956C463.481 113.157 463.657 113.314 463.88 113.428C464.108 113.542 464.361 113.599 464.639 113.599C464.953 113.599 465.222 113.542 465.445 113.428C465.673 113.309 465.846 113.145 465.965 112.936C466.088 112.721 466.149 112.473 466.149 112.19C466.149 111.826 466.083 111.534 465.951 111.315C465.819 111.092 465.63 110.928 465.384 110.823C465.138 110.718 464.846 110.666 464.509 110.666H463.456ZM469.656 114.05C469.656 113.758 469.757 113.514 469.957 113.318C470.162 113.122 470.433 113.024 470.771 113.024C471.108 113.024 471.377 113.122 471.577 113.318C471.782 113.514 471.885 113.758 471.885 114.05C471.885 114.341 471.782 114.585 471.577 114.781C471.377 114.977 471.108 115.075 470.771 115.075C470.433 115.075 470.162 114.977 469.957 114.781C469.757 114.585 469.656 114.341 469.656 114.05ZM475.392 110.468L473.819 110.092L474.387 105.047H479.979V106.64H476.007L475.761 108.848C475.893 108.77 476.093 108.688 476.362 108.602C476.631 108.51 476.932 108.465 477.265 108.465C477.748 108.465 478.176 108.54 478.55 108.69C478.924 108.841 479.24 109.06 479.5 109.347C479.764 109.634 479.965 109.985 480.102 110.399C480.238 110.814 480.307 111.284 480.307 111.808C480.307 112.25 480.238 112.671 480.102 113.072C479.965 113.469 479.757 113.824 479.479 114.139C479.201 114.449 478.853 114.692 478.434 114.87C478.014 115.048 477.518 115.137 476.943 115.137C476.515 115.137 476.1 115.073 475.699 114.945C475.303 114.818 474.945 114.629 474.626 114.378C474.312 114.127 474.059 113.824 473.867 113.469C473.68 113.109 473.582 112.699 473.573 112.238H475.528C475.556 112.521 475.629 112.765 475.747 112.97C475.87 113.17 476.032 113.325 476.232 113.435C476.433 113.544 476.668 113.599 476.937 113.599C477.187 113.599 477.401 113.551 477.579 113.455C477.757 113.359 477.9 113.227 478.01 113.059C478.119 112.885 478.199 112.685 478.249 112.457C478.304 112.225 478.331 111.974 478.331 111.705C478.331 111.436 478.299 111.192 478.235 110.974C478.172 110.755 478.074 110.566 477.941 110.406C477.809 110.247 477.641 110.124 477.436 110.037C477.235 109.951 477 109.907 476.731 109.907C476.367 109.907 476.084 109.964 475.884 110.078C475.688 110.192 475.524 110.322 475.392 110.468ZM488.387 113.462V115H481.578V113.688L484.798 110.235C485.121 109.875 485.377 109.559 485.563 109.285C485.75 109.007 485.885 108.759 485.967 108.54C486.053 108.317 486.097 108.105 486.097 107.904C486.097 107.604 486.047 107.346 485.946 107.132C485.846 106.913 485.698 106.744 485.502 106.626C485.311 106.507 485.074 106.448 484.791 106.448C484.49 106.448 484.23 106.521 484.012 106.667C483.798 106.813 483.633 107.016 483.52 107.275C483.41 107.535 483.355 107.829 483.355 108.157H481.38C481.38 107.565 481.521 107.022 481.804 106.53C482.086 106.034 482.485 105.639 483 105.348C483.515 105.051 484.126 104.903 484.832 104.903C485.529 104.903 486.117 105.017 486.596 105.245C487.079 105.468 487.443 105.792 487.689 106.216C487.94 106.635 488.065 107.136 488.065 107.72C488.065 108.048 488.013 108.369 487.908 108.684C487.803 108.993 487.653 109.303 487.457 109.613C487.266 109.919 487.033 110.229 486.76 110.543C486.486 110.857 486.183 111.183 485.851 111.521L484.121 113.462H488.387ZM489.59 107.487V106.961C489.59 106.583 489.672 106.239 489.836 105.929C490 105.619 490.242 105.37 490.561 105.184C490.88 104.997 491.271 104.903 491.736 104.903C492.215 104.903 492.614 104.997 492.933 105.184C493.256 105.37 493.498 105.619 493.657 105.929C493.821 106.239 493.903 106.583 493.903 106.961V107.487C493.903 107.856 493.821 108.196 493.657 108.506C493.498 108.816 493.258 109.064 492.939 109.251C492.62 109.438 492.226 109.531 491.757 109.531C491.283 109.531 490.884 109.438 490.561 109.251C490.242 109.064 490 108.816 489.836 108.506C489.672 108.196 489.59 107.856 489.59 107.487ZM490.896 106.961V107.487C490.896 107.647 490.925 107.799 490.984 107.945C491.048 108.087 491.144 108.203 491.271 108.294C491.404 108.381 491.563 108.424 491.75 108.424C491.946 108.424 492.105 108.381 492.229 108.294C492.352 108.203 492.443 108.087 492.502 107.945C492.561 107.799 492.591 107.647 492.591 107.487V106.961C492.591 106.792 492.559 106.637 492.495 106.496C492.436 106.35 492.342 106.234 492.215 106.147C492.092 106.056 491.932 106.011 491.736 106.011C491.554 106.011 491.399 106.056 491.271 106.147C491.144 106.234 491.048 106.35 490.984 106.496C490.925 106.637 490.896 106.792 490.896 106.961ZM494.348 113.086V112.56C494.348 112.186 494.43 111.844 494.594 111.534C494.762 111.224 495.006 110.976 495.325 110.789C495.649 110.602 496.045 110.509 496.515 110.509C496.989 110.509 497.385 110.602 497.704 110.789C498.023 110.976 498.265 111.224 498.429 111.534C498.593 111.844 498.675 112.186 498.675 112.56V113.086C498.675 113.46 498.593 113.801 498.429 114.111C498.269 114.421 498.03 114.67 497.711 114.856C497.392 115.043 496.998 115.137 496.528 115.137C496.054 115.137 495.656 115.043 495.332 114.856C495.008 114.67 494.762 114.421 494.594 114.111C494.43 113.801 494.348 113.46 494.348 113.086ZM495.66 112.56V113.086C495.66 113.25 495.697 113.405 495.77 113.551C495.842 113.697 495.943 113.813 496.07 113.899C496.202 113.986 496.355 114.029 496.528 114.029C496.747 114.029 496.918 113.986 497.041 113.899C497.164 113.813 497.248 113.697 497.294 113.551C497.344 113.405 497.369 113.25 497.369 113.086V112.56C497.369 112.396 497.337 112.243 497.273 112.102C497.21 111.956 497.114 111.84 496.986 111.753C496.863 111.662 496.706 111.616 496.515 111.616C496.323 111.616 496.164 111.662 496.036 111.753C495.913 111.84 495.82 111.956 495.756 112.102C495.692 112.243 495.66 112.396 495.66 112.56ZM497 106.469L492.14 114.248L491.183 113.742L496.043 105.963L497 106.469Z" fill="white"/>
</svg>
