<svg width="524" height="134" viewBox="0 0 524 134" fill="none" xmlns="http://www.w3.org/2000/svg">
<rect width="524" height="134" fill="#F2F4F8"/>
<path d="M26.0312 26.0547V30.5625C25.8542 30.776 25.5807 31.0078 25.2109 31.2578C24.8411 31.5026 24.3646 31.7135 23.7812 31.8906C23.1979 32.0677 22.4922 32.1562 21.6641 32.1562C20.9297 32.1562 20.2604 32.0365 19.6562 31.7969C19.0521 31.5521 18.5312 31.1953 18.0938 30.7266C17.6615 30.2578 17.3281 29.6849 17.0938 29.0078C16.8594 28.3255 16.7422 27.5469 16.7422 26.6719V25.9609C16.7422 25.0859 16.8542 24.3073 17.0781 23.625C17.3073 22.9427 17.6328 22.3672 18.0547 21.8984C18.4766 21.4297 18.9792 21.0729 19.5625 20.8281C20.1458 20.5833 20.7943 20.4609 21.5078 20.4609C22.4974 20.4609 23.3099 20.6224 23.9453 20.9453C24.5807 21.263 25.0651 21.7057 25.3984 22.2734C25.737 22.8359 25.9453 23.4818 26.0234 24.2109H23.75C23.6927 23.8255 23.5833 23.4896 23.4219 23.2031C23.2604 22.9167 23.0286 22.6927 22.7266 22.5312C22.4297 22.3698 22.0443 22.2891 21.5703 22.2891C21.1797 22.2891 20.8307 22.3698 20.5234 22.5312C20.2214 22.6875 19.9661 22.9193 19.7578 23.2266C19.5495 23.5339 19.3906 23.9141 19.2812 24.3672C19.1719 24.8203 19.1172 25.3464 19.1172 25.9453V26.6719C19.1172 27.2656 19.1745 27.7917 19.2891 28.25C19.4036 28.7031 19.5729 29.0859 19.7969 29.3984C20.026 29.7057 20.3073 29.9375 20.6406 30.0938C20.974 30.25 21.362 30.3281 21.8047 30.3281C22.1745 30.3281 22.4818 30.2969 22.7266 30.2344C22.9766 30.1719 23.1771 30.0964 23.3281 30.0078C23.4844 29.9141 23.6042 29.8255 23.6875 29.7422V27.7266H21.5469V26.0547H26.0312ZM31.6719 32.1562C31.0156 32.1562 30.4271 32.0521 29.9062 31.8438C29.3854 31.6302 28.9427 31.3359 28.5781 30.9609C28.2188 30.5859 27.9427 30.151 27.75 29.6562C27.5573 29.1562 27.4609 28.625 27.4609 28.0625V27.75C27.4609 27.1094 27.5521 26.5234 27.7344 25.9922C27.9167 25.4609 28.1771 25 28.5156 24.6094C28.8594 24.2188 29.276 23.9193 29.7656 23.7109C30.2552 23.4974 30.8073 23.3906 31.4219 23.3906C32.0208 23.3906 32.5521 23.4896 33.0156 23.6875C33.4792 23.8854 33.8672 24.1667 34.1797 24.5312C34.4974 24.8958 34.737 25.3333 34.8984 25.8438C35.0599 26.349 35.1406 26.9115 35.1406 27.5312V28.4688H28.4219V26.9688H32.9297V26.7969C32.9297 26.4844 32.8724 26.2057 32.7578 25.9609C32.6484 25.7109 32.4818 25.513 32.2578 25.3672C32.0339 25.2214 31.7474 25.1484 31.3984 25.1484C31.1016 25.1484 30.8464 25.2135 30.6328 25.3438C30.4193 25.474 30.2448 25.6562 30.1094 25.8906C29.9792 26.125 29.8802 26.401 29.8125 26.7188C29.75 27.0312 29.7188 27.375 29.7188 27.75V28.0625C29.7188 28.401 29.7656 28.7135 29.8594 29C29.9583 29.2865 30.0964 29.5339 30.2734 29.7422C30.4557 29.9505 30.6745 30.112 30.9297 30.2266C31.1901 30.3411 31.4844 30.3984 31.8125 30.3984C32.2188 30.3984 32.5964 30.3203 32.9453 30.1641C33.2995 30.0026 33.6042 29.7604 33.8594 29.4375L34.9531 30.625C34.776 30.8802 34.5339 31.125 34.2266 31.3594C33.9245 31.5938 33.5599 31.7865 33.1328 31.9375C32.7057 32.0833 32.2188 32.1562 31.6719 32.1562ZM38.625 25.3516V32H36.375V23.5469H38.4844L38.625 25.3516ZM38.2969 27.4766H37.6875C37.6875 26.8516 37.7682 26.2891 37.9297 25.7891C38.0911 25.2839 38.3177 24.8542 38.6094 24.5C38.901 24.1406 39.2474 23.8672 39.6484 23.6797C40.0547 23.487 40.5078 23.3906 41.0078 23.3906C41.4036 23.3906 41.7656 23.4479 42.0938 23.5625C42.4219 23.6771 42.7031 23.8594 42.9375 24.1094C43.1771 24.3594 43.3594 24.6901 43.4844 25.1016C43.6146 25.513 43.6797 26.0156 43.6797 26.6094V32H41.4141V26.6016C41.4141 26.2266 41.362 25.9349 41.2578 25.7266C41.1536 25.5182 41 25.3724 40.7969 25.2891C40.599 25.2005 40.3542 25.1562 40.0625 25.1562C39.7604 25.1562 39.4974 25.2161 39.2734 25.3359C39.0547 25.4557 38.8724 25.6224 38.7266 25.8359C38.5859 26.0443 38.4792 26.2891 38.4062 26.5703C38.3333 26.8516 38.2969 27.1536 38.2969 27.4766ZM50.3828 30.1562V20H52.6484V32H50.6094L50.3828 30.1562ZM45.0391 27.875V27.7109C45.0391 27.0651 45.112 26.4792 45.2578 25.9531C45.4036 25.4219 45.6172 24.9661 45.8984 24.5859C46.1797 24.2057 46.526 23.9115 46.9375 23.7031C47.349 23.4948 47.8177 23.3906 48.3438 23.3906C48.8385 23.3906 49.2708 23.4948 49.6406 23.7031C50.0156 23.9115 50.3333 24.2083 50.5938 24.5938C50.8594 24.974 51.0729 25.4245 51.2344 25.9453C51.3958 26.4609 51.513 27.026 51.5859 27.6406V28C51.513 28.5885 51.3958 29.1354 51.2344 29.6406C51.0729 30.1458 50.8594 30.5885 50.5938 30.9688C50.3333 31.3438 50.0156 31.6354 49.6406 31.8438C49.2656 32.0521 48.8281 32.1562 48.3281 32.1562C47.8021 32.1562 47.3333 32.0495 46.9219 31.8359C46.5156 31.6224 46.1719 31.3229 45.8906 30.9375C45.6146 30.5521 45.4036 30.099 45.2578 29.5781C45.112 29.0573 45.0391 28.4896 45.0391 27.875ZM47.2891 27.7109V27.875C47.2891 28.224 47.3151 28.5495 47.3672 28.8516C47.4245 29.1536 47.5156 29.4219 47.6406 29.6562C47.7708 29.8854 47.9375 30.0651 48.1406 30.1953C48.349 30.3203 48.6016 30.3828 48.8984 30.3828C49.2839 30.3828 49.6016 30.2969 49.8516 30.125C50.1016 29.9479 50.2917 29.7057 50.4219 29.3984C50.5573 29.0911 50.6354 28.737 50.6562 28.3359V27.3125C50.6406 26.9844 50.5938 26.6901 50.5156 26.4297C50.4427 26.1641 50.3333 25.9375 50.1875 25.75C50.0469 25.5625 49.8698 25.4167 49.6562 25.3125C49.4479 25.2083 49.2005 25.1562 48.9141 25.1562C48.6224 25.1562 48.3724 25.224 48.1641 25.3594C47.9557 25.4896 47.7865 25.6693 47.6562 25.8984C47.5312 26.1276 47.4375 26.3984 47.375 26.7109C47.3177 27.0182 47.2891 27.3516 47.2891 27.7109ZM58.2969 32.1562C57.6406 32.1562 57.0521 32.0521 56.5312 31.8438C56.0104 31.6302 55.5677 31.3359 55.2031 30.9609C54.8438 30.5859 54.5677 30.151 54.375 29.6562C54.1823 29.1562 54.0859 28.625 54.0859 28.0625V27.75C54.0859 27.1094 54.1771 26.5234 54.3594 25.9922C54.5417 25.4609 54.8021 25 55.1406 24.6094C55.4844 24.2188 55.901 23.9193 56.3906 23.7109C56.8802 23.4974 57.4323 23.3906 58.0469 23.3906C58.6458 23.3906 59.1771 23.4896 59.6406 23.6875C60.1042 23.8854 60.4922 24.1667 60.8047 24.5312C61.1224 24.8958 61.362 25.3333 61.5234 25.8438C61.6849 26.349 61.7656 26.9115 61.7656 27.5312V28.4688H55.0469V26.9688H59.5547V26.7969C59.5547 26.4844 59.4974 26.2057 59.3828 25.9609C59.2734 25.7109 59.1068 25.513 58.8828 25.3672C58.6589 25.2214 58.3724 25.1484 58.0234 25.1484C57.7266 25.1484 57.4714 25.2135 57.2578 25.3438C57.0443 25.474 56.8698 25.6562 56.7344 25.8906C56.6042 26.125 56.5052 26.401 56.4375 26.7188C56.375 27.0312 56.3438 27.375 56.3438 27.75V28.0625C56.3438 28.401 56.3906 28.7135 56.4844 29C56.5833 29.2865 56.7214 29.5339 56.8984 29.7422C57.0807 29.9505 57.2995 30.112 57.5547 30.2266C57.8151 30.3411 58.1094 30.3984 58.4375 30.3984C58.8438 30.3984 59.2214 30.3203 59.5703 30.1641C59.9245 30.0026 60.2292 29.7604 60.4844 29.4375L61.5781 30.625C61.401 30.8802 61.1589 31.125 60.8516 31.3594C60.5495 31.5938 60.1849 31.7865 59.7578 31.9375C59.3307 32.0833 58.8438 32.1562 58.2969 32.1562ZM65.2969 25.3906V32H63.0469V23.5469H65.1641L65.2969 25.3906ZM67.8438 23.4922L67.8047 25.5781C67.6953 25.5625 67.5625 25.5495 67.4062 25.5391C67.2552 25.5234 67.1172 25.5156 66.9922 25.5156C66.6745 25.5156 66.3984 25.5573 66.1641 25.6406C65.9349 25.7188 65.7422 25.8359 65.5859 25.9922C65.4349 26.1484 65.3203 26.3385 65.2422 26.5625C65.1693 26.7865 65.1276 27.0417 65.1172 27.3281L64.6641 27.1875C64.6641 26.6406 64.7188 26.138 64.8281 25.6797C64.9375 25.2161 65.0964 24.8125 65.3047 24.4688C65.5182 24.125 65.7786 23.8594 66.0859 23.6719C66.3932 23.4844 66.7448 23.3906 67.1406 23.3906C67.2656 23.3906 67.3932 23.401 67.5234 23.4219C67.6536 23.4375 67.7604 23.4609 67.8438 23.4922Z" fill="#21272A"/>
<path d="M392.75 28.2266H395.086C395.039 28.9922 394.828 29.6719 394.453 30.2656C394.083 30.8594 393.565 31.3229 392.898 31.6562C392.237 31.9896 391.44 32.1562 390.508 32.1562C389.779 32.1562 389.125 32.0312 388.547 31.7812C387.969 31.526 387.474 31.1615 387.062 30.6875C386.656 30.2135 386.346 29.6406 386.133 28.9688C385.919 28.2969 385.812 27.5443 385.812 26.7109V25.9219C385.812 25.0885 385.922 24.3359 386.141 23.6641C386.365 22.987 386.682 22.4115 387.094 21.9375C387.51 21.4635 388.008 21.099 388.586 20.8438C389.164 20.5885 389.81 20.4609 390.523 20.4609C391.471 20.4609 392.271 20.6328 392.922 20.9766C393.578 21.3203 394.086 21.7943 394.445 22.3984C394.81 23.0026 395.029 23.6901 395.102 24.4609H392.758C392.732 24.0026 392.641 23.6146 392.484 23.2969C392.328 22.974 392.091 22.7318 391.773 22.5703C391.461 22.4036 391.044 22.3203 390.523 22.3203C390.133 22.3203 389.792 22.3932 389.5 22.5391C389.208 22.6849 388.964 22.9062 388.766 23.2031C388.568 23.5 388.419 23.875 388.32 24.3281C388.227 24.776 388.18 25.3021 388.18 25.9062V26.7109C388.18 27.2995 388.224 27.8177 388.312 28.2656C388.401 28.7083 388.536 29.0833 388.719 29.3906C388.906 29.6927 389.146 29.9219 389.438 30.0781C389.734 30.2292 390.091 30.3047 390.508 30.3047C390.997 30.3047 391.401 30.2266 391.719 30.0703C392.036 29.9141 392.279 29.6823 392.445 29.375C392.617 29.0677 392.719 28.6849 392.75 28.2266ZM396.125 27.8594V27.6953C396.125 27.0755 396.214 26.5052 396.391 25.9844C396.568 25.4583 396.826 25.0026 397.164 24.6172C397.503 24.2318 397.919 23.9323 398.414 23.7188C398.909 23.5 399.477 23.3906 400.117 23.3906C400.758 23.3906 401.328 23.5 401.828 23.7188C402.328 23.9323 402.747 24.2318 403.086 24.6172C403.43 25.0026 403.69 25.4583 403.867 25.9844C404.044 26.5052 404.133 27.0755 404.133 27.6953V27.8594C404.133 28.474 404.044 29.0443 403.867 29.5703C403.69 30.0911 403.43 30.5469 403.086 30.9375C402.747 31.3229 402.331 31.6224 401.836 31.8359C401.341 32.0495 400.773 32.1562 400.133 32.1562C399.492 32.1562 398.922 32.0495 398.422 31.8359C397.927 31.6224 397.508 31.3229 397.164 30.9375C396.826 30.5469 396.568 30.0911 396.391 29.5703C396.214 29.0443 396.125 28.474 396.125 27.8594ZM398.375 27.6953V27.8594C398.375 28.2135 398.406 28.5443 398.469 28.8516C398.531 29.1589 398.63 29.4297 398.766 29.6641C398.906 29.8932 399.089 30.0729 399.312 30.2031C399.536 30.3333 399.81 30.3984 400.133 30.3984C400.445 30.3984 400.714 30.3333 400.938 30.2031C401.161 30.0729 401.341 29.8932 401.477 29.6641C401.612 29.4297 401.711 29.1589 401.773 28.8516C401.841 28.5443 401.875 28.2135 401.875 27.8594V27.6953C401.875 27.3516 401.841 27.0286 401.773 26.7266C401.711 26.4193 401.609 26.1484 401.469 25.9141C401.333 25.6745 401.154 25.487 400.93 25.3516C400.706 25.2161 400.435 25.1484 400.117 25.1484C399.799 25.1484 399.529 25.2161 399.305 25.3516C399.086 25.487 398.906 25.6745 398.766 25.9141C398.63 26.1484 398.531 26.4193 398.469 26.7266C398.406 27.0286 398.375 27.3516 398.375 27.6953ZM410.516 29.9766V23.5469H412.766V32H410.648L410.516 29.9766ZM410.766 28.2422L411.43 28.2266C411.43 28.7891 411.365 29.3125 411.234 29.7969C411.104 30.276 410.909 30.6927 410.648 31.0469C410.388 31.3958 410.06 31.6693 409.664 31.8672C409.268 32.0599 408.802 32.1562 408.266 32.1562C407.854 32.1562 407.474 32.099 407.125 31.9844C406.781 31.8646 406.484 31.6797 406.234 31.4297C405.99 31.1745 405.797 30.849 405.656 30.4531C405.521 30.0521 405.453 29.5703 405.453 29.0078V23.5469H407.703V29.0234C407.703 29.2734 407.732 29.4844 407.789 29.6562C407.852 29.8281 407.938 29.9688 408.047 30.0781C408.156 30.1875 408.284 30.2656 408.43 30.3125C408.581 30.3594 408.747 30.3828 408.93 30.3828C409.393 30.3828 409.758 30.2891 410.023 30.1016C410.294 29.9141 410.484 29.6589 410.594 29.3359C410.708 29.0078 410.766 28.6432 410.766 28.2422ZM416.688 25.3516V32H414.438V23.5469H416.547L416.688 25.3516ZM416.359 27.4766H415.75C415.75 26.8516 415.831 26.2891 415.992 25.7891C416.154 25.2839 416.38 24.8542 416.672 24.5C416.964 24.1406 417.31 23.8672 417.711 23.6797C418.117 23.487 418.57 23.3906 419.07 23.3906C419.466 23.3906 419.828 23.4479 420.156 23.5625C420.484 23.6771 420.766 23.8594 421 24.1094C421.24 24.3594 421.422 24.6901 421.547 25.1016C421.677 25.513 421.742 26.0156 421.742 26.6094V32H419.477V26.6016C419.477 26.2266 419.424 25.9349 419.32 25.7266C419.216 25.5182 419.062 25.3724 418.859 25.2891C418.661 25.2005 418.417 25.1562 418.125 25.1562C417.823 25.1562 417.56 25.2161 417.336 25.3359C417.117 25.4557 416.935 25.6224 416.789 25.8359C416.648 26.0443 416.542 26.2891 416.469 26.5703C416.396 26.8516 416.359 27.1536 416.359 27.4766ZM427.594 23.5469V25.1406H422.672V23.5469H427.594ZM423.891 21.4609H426.141V29.4531C426.141 29.6979 426.172 29.8854 426.234 30.0156C426.302 30.1458 426.401 30.237 426.531 30.2891C426.661 30.3359 426.826 30.3594 427.023 30.3594C427.164 30.3594 427.289 30.3542 427.398 30.3438C427.513 30.3281 427.609 30.3125 427.688 30.2969L427.695 31.9531C427.503 32.0156 427.294 32.0651 427.07 32.1016C426.846 32.138 426.599 32.1562 426.328 32.1562C425.833 32.1562 425.401 32.0755 425.031 31.9141C424.667 31.7474 424.385 31.4818 424.188 31.1172C423.99 30.7526 423.891 30.2734 423.891 29.6797V21.4609Z" fill="#21272A"/>
<path d="M457.523 27.9453H454.625V26.1172H457.523C457.971 26.1172 458.336 26.0443 458.617 25.8984C458.898 25.7474 459.104 25.5391 459.234 25.2734C459.365 25.0078 459.43 24.7083 459.43 24.375C459.43 24.0365 459.365 23.7214 459.234 23.4297C459.104 23.138 458.898 22.9036 458.617 22.7266C458.336 22.5495 457.971 22.4609 457.523 22.4609H455.438V32H453.094V20.625H457.523C458.414 20.625 459.177 20.7865 459.812 21.1094C460.453 21.4271 460.943 21.8672 461.281 22.4297C461.62 22.9922 461.789 23.6354 461.789 24.3594C461.789 25.0938 461.62 25.7292 461.281 26.2656C460.943 26.8021 460.453 27.2161 459.812 27.5078C459.177 27.7995 458.414 27.9453 457.523 27.9453ZM467.047 32.1562C466.391 32.1562 465.802 32.0521 465.281 31.8438C464.76 31.6302 464.318 31.3359 463.953 30.9609C463.594 30.5859 463.318 30.151 463.125 29.6562C462.932 29.1562 462.836 28.625 462.836 28.0625V27.75C462.836 27.1094 462.927 26.5234 463.109 25.9922C463.292 25.4609 463.552 25 463.891 24.6094C464.234 24.2188 464.651 23.9193 465.141 23.7109C465.63 23.4974 466.182 23.3906 466.797 23.3906C467.396 23.3906 467.927 23.4896 468.391 23.6875C468.854 23.8854 469.242 24.1667 469.555 24.5312C469.872 24.8958 470.112 25.3333 470.273 25.8438C470.435 26.349 470.516 26.9115 470.516 27.5312V28.4688H463.797V26.9688H468.305V26.7969C468.305 26.4844 468.247 26.2057 468.133 25.9609C468.023 25.7109 467.857 25.513 467.633 25.3672C467.409 25.2214 467.122 25.1484 466.773 25.1484C466.477 25.1484 466.221 25.2135 466.008 25.3438C465.794 25.474 465.62 25.6562 465.484 25.8906C465.354 26.125 465.255 26.401 465.188 26.7188C465.125 27.0312 465.094 27.375 465.094 27.75V28.0625C465.094 28.401 465.141 28.7135 465.234 29C465.333 29.2865 465.471 29.5339 465.648 29.7422C465.831 29.9505 466.049 30.112 466.305 30.2266C466.565 30.3411 466.859 30.3984 467.188 30.3984C467.594 30.3984 467.971 30.3203 468.32 30.1641C468.674 30.0026 468.979 29.7604 469.234 29.4375L470.328 30.625C470.151 30.8802 469.909 31.125 469.602 31.3594C469.299 31.5938 468.935 31.7865 468.508 31.9375C468.081 32.0833 467.594 32.1562 467.047 32.1562ZM474.047 25.3906V32H471.797V23.5469H473.914L474.047 25.3906ZM476.594 23.4922L476.555 25.5781C476.445 25.5625 476.312 25.5495 476.156 25.5391C476.005 25.5234 475.867 25.5156 475.742 25.5156C475.424 25.5156 475.148 25.5573 474.914 25.6406C474.685 25.7188 474.492 25.8359 474.336 25.9922C474.185 26.1484 474.07 26.3385 473.992 26.5625C473.919 26.7865 473.878 27.0417 473.867 27.3281L473.414 27.1875C473.414 26.6406 473.469 26.138 473.578 25.6797C473.688 25.2161 473.846 24.8125 474.055 24.4688C474.268 24.125 474.529 23.8594 474.836 23.6719C475.143 23.4844 475.495 23.3906 475.891 23.3906C476.016 23.3906 476.143 23.401 476.273 23.4219C476.404 23.4375 476.51 23.4609 476.594 23.4922ZM480.992 30.3984C481.268 30.3984 481.513 30.3464 481.727 30.2422C481.94 30.1328 482.107 29.9818 482.227 29.7891C482.352 29.5911 482.417 29.3594 482.422 29.0938H484.539C484.534 29.6875 484.375 30.2161 484.062 30.6797C483.75 31.138 483.331 31.5 482.805 31.7656C482.279 32.026 481.69 32.1562 481.039 32.1562C480.383 32.1562 479.81 32.0469 479.32 31.8281C478.836 31.6094 478.432 31.3073 478.109 30.9219C477.786 30.5312 477.544 30.0781 477.383 29.5625C477.221 29.0417 477.141 28.4844 477.141 27.8906V27.6641C477.141 27.0651 477.221 26.5078 477.383 25.9922C477.544 25.4714 477.786 25.0182 478.109 24.6328C478.432 24.2422 478.836 23.9375 479.32 23.7188C479.805 23.5 480.372 23.3906 481.023 23.3906C481.716 23.3906 482.323 23.5234 482.844 23.7891C483.37 24.0547 483.781 24.4349 484.078 24.9297C484.38 25.4193 484.534 26 484.539 26.6719H482.422C482.417 26.3906 482.357 26.1354 482.242 25.9062C482.133 25.6771 481.971 25.4948 481.758 25.3594C481.549 25.2188 481.292 25.1484 480.984 25.1484C480.656 25.1484 480.388 25.2188 480.18 25.3594C479.971 25.4948 479.81 25.6823 479.695 25.9219C479.581 26.1562 479.5 26.4245 479.453 26.7266C479.411 27.0234 479.391 27.3359 479.391 27.6641V27.8906C479.391 28.2188 479.411 28.5339 479.453 28.8359C479.495 29.138 479.573 29.4062 479.688 29.6406C479.807 29.875 479.971 30.0599 480.18 30.1953C480.388 30.3307 480.659 30.3984 480.992 30.3984ZM489.734 32.1562C489.078 32.1562 488.49 32.0521 487.969 31.8438C487.448 31.6302 487.005 31.3359 486.641 30.9609C486.281 30.5859 486.005 30.151 485.812 29.6562C485.62 29.1562 485.523 28.625 485.523 28.0625V27.75C485.523 27.1094 485.615 26.5234 485.797 25.9922C485.979 25.4609 486.24 25 486.578 24.6094C486.922 24.2188 487.339 23.9193 487.828 23.7109C488.318 23.4974 488.87 23.3906 489.484 23.3906C490.083 23.3906 490.615 23.4896 491.078 23.6875C491.542 23.8854 491.93 24.1667 492.242 24.5312C492.56 24.8958 492.799 25.3333 492.961 25.8438C493.122 26.349 493.203 26.9115 493.203 27.5312V28.4688H486.484V26.9688H490.992V26.7969C490.992 26.4844 490.935 26.2057 490.82 25.9609C490.711 25.7109 490.544 25.513 490.32 25.3672C490.096 25.2214 489.81 25.1484 489.461 25.1484C489.164 25.1484 488.909 25.2135 488.695 25.3438C488.482 25.474 488.307 25.6562 488.172 25.8906C488.042 26.125 487.943 26.401 487.875 26.7188C487.812 27.0312 487.781 27.375 487.781 27.75V28.0625C487.781 28.401 487.828 28.7135 487.922 29C488.021 29.2865 488.159 29.5339 488.336 29.7422C488.518 29.9505 488.737 30.112 488.992 30.2266C489.253 30.3411 489.547 30.3984 489.875 30.3984C490.281 30.3984 490.659 30.3203 491.008 30.1641C491.362 30.0026 491.667 29.7604 491.922 29.4375L493.016 30.625C492.839 30.8802 492.596 31.125 492.289 31.3594C491.987 31.5938 491.622 31.7865 491.195 31.9375C490.768 32.0833 490.281 32.1562 489.734 32.1562ZM496.688 25.3516V32H494.438V23.5469H496.547L496.688 25.3516ZM496.359 27.4766H495.75C495.75 26.8516 495.831 26.2891 495.992 25.7891C496.154 25.2839 496.38 24.8542 496.672 24.5C496.964 24.1406 497.31 23.8672 497.711 23.6797C498.117 23.487 498.57 23.3906 499.07 23.3906C499.466 23.3906 499.828 23.4479 500.156 23.5625C500.484 23.6771 500.766 23.8594 501 24.1094C501.24 24.3594 501.422 24.6901 501.547 25.1016C501.677 25.513 501.742 26.0156 501.742 26.6094V32H499.477V26.6016C499.477 26.2266 499.424 25.9349 499.32 25.7266C499.216 25.5182 499.062 25.3724 498.859 25.2891C498.661 25.2005 498.417 25.1562 498.125 25.1562C497.823 25.1562 497.56 25.2161 497.336 25.3359C497.117 25.4557 496.935 25.6224 496.789 25.8359C496.648 26.0443 496.542 26.2891 496.469 26.5703C496.396 26.8516 496.359 27.1536 496.359 27.4766ZM507.594 23.5469V25.1406H502.672V23.5469H507.594ZM503.891 21.4609H506.141V29.4531C506.141 29.6979 506.172 29.8854 506.234 30.0156C506.302 30.1458 506.401 30.237 506.531 30.2891C506.661 30.3359 506.826 30.3594 507.023 30.3594C507.164 30.3594 507.289 30.3542 507.398 30.3438C507.513 30.3281 507.609 30.3125 507.688 30.2969L507.695 31.9531C507.503 32.0156 507.294 32.0651 507.07 32.1016C506.846 32.138 506.599 32.1562 506.328 32.1562C505.833 32.1562 505.401 32.0755 505.031 31.9141C504.667 31.7474 504.385 31.4818 504.188 31.1172C503.99 30.7526 503.891 30.2734 503.891 29.6797V21.4609Z" fill="#21272A"/>
<path d="M23.9997 72.7098C20.3177 72.7098 17.333 69.7251 17.333 66.0431C17.333 62.3611 20.3177 59.3765 23.9997 59.3765C27.6817 59.3765 30.6663 62.3611 30.6663 66.0431C30.6663 69.7251 27.6817 72.7098 23.9997 72.7098Z" fill="#A2A9B0"/>
<path d="M37.7969 59.625H39.2578L42.9844 68.8984L46.7031 59.625H48.1719L43.5469 71H42.4062L37.7969 59.625ZM37.3203 59.625H38.6094L38.8203 66.5625V71H37.3203V59.625ZM47.3516 59.625H48.6406V71H47.1406V66.5625L47.3516 59.625ZM56.0547 69.5547V65.2031C56.0547 64.8698 55.987 64.5807 55.8516 64.3359C55.7214 64.0859 55.5234 63.8932 55.2578 63.7578C54.9922 63.6224 54.6641 63.5547 54.2734 63.5547C53.9089 63.5547 53.5885 63.6172 53.3125 63.7422C53.0417 63.8672 52.8281 64.0312 52.6719 64.2344C52.5208 64.4375 52.4453 64.6562 52.4453 64.8906H51C51 64.5885 51.0781 64.2891 51.2344 63.9922C51.3906 63.6953 51.6146 63.4271 51.9062 63.1875C52.2031 62.9427 52.5573 62.75 52.9688 62.6094C53.3854 62.4635 53.849 62.3906 54.3594 62.3906C54.974 62.3906 55.5156 62.4948 55.9844 62.7031C56.4583 62.9115 56.8281 63.2266 57.0938 63.6484C57.3646 64.0651 57.5 64.5885 57.5 65.2188V69.1562C57.5 69.4375 57.5234 69.737 57.5703 70.0547C57.6224 70.3724 57.6979 70.6458 57.7969 70.875V71H56.2891C56.2161 70.8333 56.1589 70.612 56.1172 70.3359C56.0755 70.0547 56.0547 69.7943 56.0547 69.5547ZM56.3047 65.875L56.3203 66.8906H54.8594C54.4479 66.8906 54.0807 66.9245 53.7578 66.9922C53.4349 67.0547 53.1641 67.151 52.9453 67.2812C52.7266 67.4115 52.5599 67.5755 52.4453 67.7734C52.3307 67.9661 52.2734 68.1927 52.2734 68.4531C52.2734 68.7188 52.3333 68.9609 52.4531 69.1797C52.5729 69.3984 52.7526 69.5729 52.9922 69.7031C53.237 69.8281 53.5365 69.8906 53.8906 69.8906C54.3333 69.8906 54.724 69.7969 55.0625 69.6094C55.401 69.4219 55.6693 69.1927 55.8672 68.9219C56.0703 68.651 56.1797 68.388 56.1953 68.1328L56.8125 68.8281C56.776 69.0469 56.6771 69.2891 56.5156 69.5547C56.3542 69.8203 56.138 70.0755 55.8672 70.3203C55.6016 70.5599 55.2839 70.7604 54.9141 70.9219C54.5495 71.0781 54.138 71.1562 53.6797 71.1562C53.1068 71.1562 52.6042 71.0443 52.1719 70.8203C51.7448 70.5964 51.4115 70.2969 51.1719 69.9219C50.9375 69.5417 50.8203 69.1172 50.8203 68.6484C50.8203 68.1953 50.9089 67.7969 51.0859 67.4531C51.263 67.1042 51.5182 66.8151 51.8516 66.5859C52.1849 66.3516 52.5859 66.1745 53.0547 66.0547C53.5234 65.9349 54.0469 65.875 54.625 65.875H56.3047ZM61.3438 59V71H59.8906V59H61.3438ZM67.1719 71.1562C66.5833 71.1562 66.0495 71.0573 65.5703 70.8594C65.0964 70.6562 64.6875 70.3724 64.3438 70.0078C64.0052 69.6432 63.7448 69.2109 63.5625 68.7109C63.3802 68.2109 63.2891 67.6641 63.2891 67.0703V66.7422C63.2891 66.0547 63.3906 65.4427 63.5938 64.9062C63.7969 64.3646 64.0729 63.9062 64.4219 63.5312C64.7708 63.1562 65.1667 62.8724 65.6094 62.6797C66.0521 62.487 66.5104 62.3906 66.9844 62.3906C67.5885 62.3906 68.1094 62.4948 68.5469 62.7031C68.9896 62.9115 69.3516 63.2031 69.6328 63.5781C69.9141 63.9479 70.1224 64.3854 70.2578 64.8906C70.3932 65.3906 70.4609 65.9375 70.4609 66.5312V67.1797H64.1484V66H69.0156V65.8906C68.9948 65.5156 68.9167 65.151 68.7812 64.7969C68.651 64.4427 68.4427 64.151 68.1562 63.9219C67.8698 63.6927 67.4792 63.5781 66.9844 63.5781C66.6562 63.5781 66.3542 63.6484 66.0781 63.7891C65.8021 63.9245 65.5651 64.1276 65.3672 64.3984C65.1693 64.6693 65.0156 65 64.9062 65.3906C64.7969 65.7812 64.7422 66.2318 64.7422 66.7422V67.0703C64.7422 67.4714 64.7969 67.849 64.9062 68.2031C65.0208 68.5521 65.1849 68.8594 65.3984 69.125C65.6172 69.3906 65.8802 69.599 66.1875 69.75C66.5 69.901 66.8542 69.9766 67.25 69.9766C67.7604 69.9766 68.1927 69.8724 68.5469 69.6641C68.901 69.4557 69.2109 69.1771 69.4766 68.8281L70.3516 69.5234C70.1693 69.7995 69.9375 70.0625 69.6562 70.3125C69.375 70.5625 69.0286 70.7656 68.6172 70.9219C68.2109 71.0781 67.7292 71.1562 67.1719 71.1562Z" fill="#21272A"/>
<path d="M376.539 59.5625V71H375.094V61.3672L372.18 62.4297V61.125L376.312 59.5625H376.539ZM388.242 69.8125V71H380.797V69.9609L384.523 65.8125C384.982 65.3021 385.336 64.8698 385.586 64.5156C385.841 64.1562 386.018 63.8359 386.117 63.5547C386.221 63.2682 386.273 62.9766 386.273 62.6797C386.273 62.3047 386.195 61.9661 386.039 61.6641C385.888 61.3568 385.664 61.112 385.367 60.9297C385.07 60.7474 384.711 60.6562 384.289 60.6562C383.784 60.6562 383.362 60.7552 383.023 60.9531C382.69 61.1458 382.44 61.4167 382.273 61.7656C382.107 62.1146 382.023 62.5156 382.023 62.9688H380.578C380.578 62.3281 380.719 61.7422 381 61.2109C381.281 60.6797 381.698 60.2578 382.25 59.9453C382.802 59.6276 383.482 59.4688 384.289 59.4688C385.008 59.4688 385.622 59.5964 386.133 59.8516C386.643 60.1016 387.034 60.4557 387.305 60.9141C387.581 61.3672 387.719 61.8984 387.719 62.5078C387.719 62.8411 387.661 63.1797 387.547 63.5234C387.438 63.862 387.284 64.2005 387.086 64.5391C386.893 64.8776 386.667 65.2109 386.406 65.5391C386.151 65.8672 385.878 66.1901 385.586 66.5078L382.539 69.8125H388.242ZM396.961 67.9219C396.961 68.6146 396.799 69.2031 396.477 69.6875C396.159 70.1667 395.727 70.5312 395.18 70.7812C394.638 71.0312 394.026 71.1562 393.344 71.1562C392.661 71.1562 392.047 71.0312 391.5 70.7812C390.953 70.5312 390.521 70.1667 390.203 69.6875C389.885 69.2031 389.727 68.6146 389.727 67.9219C389.727 67.4688 389.812 67.0547 389.984 66.6797C390.161 66.2995 390.409 65.9688 390.727 65.6875C391.049 65.4062 391.43 65.1901 391.867 65.0391C392.31 64.8828 392.797 64.8047 393.328 64.8047C394.026 64.8047 394.648 64.9401 395.195 65.2109C395.742 65.4766 396.172 65.8438 396.484 66.3125C396.802 66.7812 396.961 67.3177 396.961 67.9219ZM395.508 67.8906C395.508 67.4688 395.417 67.0964 395.234 66.7734C395.052 66.4453 394.797 66.1901 394.469 66.0078C394.141 65.8255 393.76 65.7344 393.328 65.7344C392.885 65.7344 392.503 65.8255 392.18 66.0078C391.862 66.1901 391.615 66.4453 391.438 66.7734C391.26 67.0964 391.172 67.4688 391.172 67.8906C391.172 68.3281 391.258 68.7031 391.43 69.0156C391.607 69.3229 391.857 69.5599 392.18 69.7266C392.508 69.888 392.896 69.9688 393.344 69.9688C393.792 69.9688 394.177 69.888 394.5 69.7266C394.823 69.5599 395.07 69.3229 395.242 69.0156C395.419 68.7031 395.508 68.3281 395.508 67.8906ZM396.695 62.5859C396.695 63.138 396.549 63.6354 396.258 64.0781C395.966 64.5208 395.568 64.8698 395.062 65.125C394.557 65.3802 393.984 65.5078 393.344 65.5078C392.693 65.5078 392.112 65.3802 391.602 65.125C391.096 64.8698 390.701 64.5208 390.414 64.0781C390.128 63.6354 389.984 63.138 389.984 62.5859C389.984 61.9245 390.128 61.362 390.414 60.8984C390.706 60.4349 391.104 60.0807 391.609 59.8359C392.115 59.5911 392.69 59.4688 393.336 59.4688C393.987 59.4688 394.565 59.5911 395.07 59.8359C395.576 60.0807 395.971 60.4349 396.258 60.8984C396.549 61.362 396.695 61.9245 396.695 62.5859ZM395.25 62.6094C395.25 62.2292 395.169 61.8932 395.008 61.6016C394.846 61.3099 394.622 61.0807 394.336 60.9141C394.049 60.7422 393.716 60.6562 393.336 60.6562C392.956 60.6562 392.622 60.737 392.336 60.8984C392.055 61.0547 391.833 61.2786 391.672 61.5703C391.516 61.862 391.438 62.2083 391.438 62.6094C391.438 63 391.516 63.3411 391.672 63.6328C391.833 63.9245 392.057 64.151 392.344 64.3125C392.63 64.474 392.964 64.5547 393.344 64.5547C393.724 64.5547 394.055 64.474 394.336 64.3125C394.622 64.151 394.846 63.9245 395.008 63.6328C395.169 63.3411 395.25 63 395.25 62.6094ZM400.258 69.2812V70.4453C400.258 70.9193 400.138 71.4193 399.898 71.9453C399.659 72.4766 399.323 72.9193 398.891 73.2734L398.07 72.7031C398.237 72.474 398.378 72.2396 398.492 72C398.607 71.7656 398.693 71.5208 398.75 71.2656C398.812 71.0156 398.844 70.75 398.844 70.4688V69.2812H400.258ZM409.117 67.9219C409.117 68.6146 408.956 69.2031 408.633 69.6875C408.315 70.1667 407.883 70.5312 407.336 70.7812C406.794 71.0312 406.182 71.1562 405.5 71.1562C404.818 71.1562 404.203 71.0312 403.656 70.7812C403.109 70.5312 402.677 70.1667 402.359 69.6875C402.042 69.2031 401.883 68.6146 401.883 67.9219C401.883 67.4688 401.969 67.0547 402.141 66.6797C402.318 66.2995 402.565 65.9688 402.883 65.6875C403.206 65.4062 403.586 65.1901 404.023 65.0391C404.466 64.8828 404.953 64.8047 405.484 64.8047C406.182 64.8047 406.805 64.9401 407.352 65.2109C407.898 65.4766 408.328 65.8438 408.641 66.3125C408.958 66.7812 409.117 67.3177 409.117 67.9219ZM407.664 67.8906C407.664 67.4688 407.573 67.0964 407.391 66.7734C407.208 66.4453 406.953 66.1901 406.625 66.0078C406.297 65.8255 405.917 65.7344 405.484 65.7344C405.042 65.7344 404.659 65.8255 404.336 66.0078C404.018 66.1901 403.771 66.4453 403.594 66.7734C403.417 67.0964 403.328 67.4688 403.328 67.8906C403.328 68.3281 403.414 68.7031 403.586 69.0156C403.763 69.3229 404.013 69.5599 404.336 69.7266C404.664 69.888 405.052 69.9688 405.5 69.9688C405.948 69.9688 406.333 69.888 406.656 69.7266C406.979 69.5599 407.227 69.3229 407.398 69.0156C407.576 68.7031 407.664 68.3281 407.664 67.8906ZM408.852 62.5859C408.852 63.138 408.706 63.6354 408.414 64.0781C408.122 64.5208 407.724 64.8698 407.219 65.125C406.714 65.3802 406.141 65.5078 405.5 65.5078C404.849 65.5078 404.268 65.3802 403.758 65.125C403.253 64.8698 402.857 64.5208 402.57 64.0781C402.284 63.6354 402.141 63.138 402.141 62.5859C402.141 61.9245 402.284 61.362 402.57 60.8984C402.862 60.4349 403.26 60.0807 403.766 59.8359C404.271 59.5911 404.846 59.4688 405.492 59.4688C406.143 59.4688 406.721 59.5911 407.227 59.8359C407.732 60.0807 408.128 60.4349 408.414 60.8984C408.706 61.362 408.852 61.9245 408.852 62.5859ZM407.406 62.6094C407.406 62.2292 407.326 61.8932 407.164 61.6016C407.003 61.3099 406.779 61.0807 406.492 60.9141C406.206 60.7422 405.872 60.6562 405.492 60.6562C405.112 60.6562 404.779 60.737 404.492 60.8984C404.211 61.0547 403.99 61.2786 403.828 61.5703C403.672 61.862 403.594 62.2083 403.594 62.6094C403.594 63 403.672 63.3411 403.828 63.6328C403.99 63.9245 404.214 64.151 404.5 64.3125C404.786 64.474 405.12 64.5547 405.5 64.5547C405.88 64.5547 406.211 64.474 406.492 64.3125C406.779 64.151 407.003 63.9245 407.164 63.6328C407.326 63.3411 407.406 63 407.406 62.6094ZM416.492 59.6094H416.617V60.8359H416.492C415.727 60.8359 415.086 60.9609 414.57 61.2109C414.055 61.4557 413.646 61.7865 413.344 62.2031C413.042 62.6146 412.823 63.0781 412.688 63.5938C412.557 64.1094 412.492 64.6328 412.492 65.1641V66.8359C412.492 67.3411 412.552 67.7891 412.672 68.1797C412.792 68.5651 412.956 68.8906 413.164 69.1562C413.372 69.4219 413.607 69.6224 413.867 69.7578C414.133 69.8932 414.409 69.9609 414.695 69.9609C415.029 69.9609 415.326 69.8984 415.586 69.7734C415.846 69.6432 416.065 69.4635 416.242 69.2344C416.424 69 416.562 68.724 416.656 68.4062C416.75 68.0885 416.797 67.7396 416.797 67.3594C416.797 67.0208 416.755 66.6953 416.672 66.3828C416.589 66.0651 416.461 65.7839 416.289 65.5391C416.117 65.2891 415.901 65.0938 415.641 64.9531C415.385 64.8073 415.081 64.7344 414.727 64.7344C414.326 64.7344 413.951 64.8333 413.602 65.0312C413.258 65.224 412.974 65.4792 412.75 65.7969C412.531 66.1094 412.406 66.4505 412.375 66.8203L411.609 66.8125C411.682 66.2292 411.818 65.7318 412.016 65.3203C412.219 64.9036 412.469 64.5651 412.766 64.3047C413.068 64.0391 413.404 63.8464 413.773 63.7266C414.148 63.6016 414.544 63.5391 414.961 63.5391C415.529 63.5391 416.018 63.6458 416.43 63.8594C416.841 64.0729 417.18 64.3594 417.445 64.7188C417.711 65.0729 417.906 65.474 418.031 65.9219C418.161 66.3646 418.227 66.8203 418.227 67.2891C418.227 67.8255 418.151 68.3281 418 68.7969C417.849 69.2656 417.622 69.6771 417.32 70.0312C417.023 70.3854 416.656 70.6615 416.219 70.8594C415.781 71.0573 415.273 71.1562 414.695 71.1562C414.081 71.1562 413.544 71.0312 413.086 70.7812C412.628 70.526 412.247 70.1875 411.945 69.7656C411.643 69.3438 411.417 68.875 411.266 68.3594C411.115 67.8438 411.039 67.3203 411.039 66.7891V66.1094C411.039 65.3073 411.12 64.5208 411.281 63.75C411.443 62.9792 411.721 62.2812 412.117 61.6562C412.518 61.0312 413.073 60.5339 413.781 60.1641C414.49 59.7943 415.393 59.6094 416.492 59.6094ZM427.633 67.1719V68.3594H419.414V67.5078L424.508 59.625H425.688L424.422 61.9062L421.055 67.1719H427.633ZM426.047 59.625V71H424.602V59.625H426.047Z" fill="#21272A"/>
<rect x="444" y="54" width="64" height="24" rx="12" fill="#F2F4F8"/>
<path d="M458.958 61.0332H459.067V62.1064H458.958C458.288 62.1064 457.728 62.2158 457.276 62.4346C456.825 62.6488 456.467 62.9382 456.203 63.3027C455.939 63.6628 455.747 64.0684 455.629 64.5195C455.515 64.9707 455.458 65.4287 455.458 65.8936V67.3564C455.458 67.7985 455.51 68.1904 455.615 68.5322C455.72 68.8695 455.864 69.1543 456.046 69.3867C456.228 69.6191 456.433 69.7946 456.661 69.9131C456.894 70.0316 457.135 70.0908 457.386 70.0908C457.677 70.0908 457.937 70.0361 458.165 69.9268C458.393 69.8128 458.584 69.6556 458.739 69.4551C458.899 69.25 459.02 69.0085 459.102 68.7305C459.184 68.4525 459.225 68.1471 459.225 67.8145C459.225 67.5182 459.188 67.2334 459.115 66.96C459.042 66.682 458.931 66.4359 458.78 66.2217C458.63 66.0029 458.441 65.832 458.213 65.709C457.99 65.5814 457.723 65.5176 457.413 65.5176C457.062 65.5176 456.734 65.6042 456.429 65.7773C456.128 65.946 455.88 66.1693 455.684 66.4473C455.492 66.7207 455.383 67.0192 455.355 67.3428L454.686 67.3359C454.749 66.8255 454.868 66.3903 455.041 66.0303C455.219 65.6657 455.438 65.3695 455.697 65.1416C455.962 64.9092 456.256 64.7406 456.579 64.6357C456.907 64.5264 457.254 64.4717 457.618 64.4717C458.115 64.4717 458.543 64.5651 458.903 64.752C459.263 64.9388 459.56 65.1895 459.792 65.5039C460.024 65.8138 460.195 66.1647 460.305 66.5566C460.419 66.944 460.476 67.3428 460.476 67.7529C460.476 68.2223 460.41 68.6621 460.277 69.0723C460.145 69.4824 459.947 69.8424 459.683 70.1523C459.423 70.4622 459.102 70.7038 458.719 70.877C458.336 71.0501 457.892 71.1367 457.386 71.1367C456.848 71.1367 456.379 71.0273 455.978 70.8086C455.576 70.5853 455.244 70.2891 454.979 69.9199C454.715 69.5508 454.517 69.1406 454.385 68.6895C454.253 68.2383 454.187 67.7803 454.187 67.3154V66.7207C454.187 66.0189 454.257 65.3307 454.398 64.6562C454.54 63.9818 454.784 63.3711 455.13 62.8242C455.481 62.2773 455.966 61.8421 456.586 61.5186C457.206 61.195 457.996 61.0332 458.958 61.0332ZM463.579 66.2627L462.567 66.0029L463.066 61.0469H468.173V62.2158H464.14L463.839 64.9229C464.021 64.818 464.251 64.7201 464.529 64.6289C464.812 64.5378 465.135 64.4922 465.5 64.4922C465.96 64.4922 466.373 64.5719 466.737 64.7314C467.102 64.8864 467.412 65.1097 467.667 65.4014C467.927 65.693 468.125 66.0439 468.262 66.4541C468.398 66.8643 468.467 67.3223 468.467 67.8281C468.467 68.3066 468.401 68.7464 468.269 69.1475C468.141 69.5485 467.947 69.8994 467.688 70.2002C467.428 70.4964 467.1 70.7266 466.703 70.8906C466.311 71.0547 465.849 71.1367 465.315 71.1367C464.914 71.1367 464.534 71.082 464.174 70.9727C463.818 70.8587 463.499 70.6878 463.217 70.46C462.939 70.2275 462.711 69.9404 462.533 69.5986C462.36 69.2523 462.251 68.8467 462.205 68.3818H463.408C463.463 68.7555 463.572 69.07 463.736 69.3252C463.9 69.5804 464.115 69.7741 464.379 69.9062C464.648 70.0339 464.96 70.0977 465.315 70.0977C465.616 70.0977 465.883 70.0452 466.115 69.9404C466.348 69.8356 466.544 69.6852 466.703 69.4893C466.863 69.2933 466.983 69.0563 467.065 68.7783C467.152 68.5003 467.195 68.1882 467.195 67.8418C467.195 67.5273 467.152 67.2357 467.065 66.9668C466.979 66.6979 466.849 66.4632 466.676 66.2627C466.507 66.0622 466.3 65.9072 466.054 65.7979C465.808 65.6839 465.525 65.627 465.206 65.627C464.782 65.627 464.461 65.6839 464.242 65.7979C464.028 65.9118 463.807 66.0667 463.579 66.2627ZM470.012 70.3301C470.012 70.1159 470.078 69.9359 470.21 69.79C470.347 69.6396 470.543 69.5645 470.798 69.5645C471.053 69.5645 471.247 69.6396 471.379 69.79C471.516 69.9359 471.584 70.1159 471.584 70.3301C471.584 70.5397 471.516 70.7174 471.379 70.8633C471.247 71.0091 471.053 71.082 470.798 71.082C470.543 71.082 470.347 71.0091 470.21 70.8633C470.078 70.7174 470.012 70.5397 470.012 70.3301ZM474.804 69.9404H474.934C475.663 69.9404 476.255 69.8379 476.711 69.6328C477.167 69.4277 477.518 69.152 477.764 68.8057C478.01 68.4593 478.178 68.0697 478.27 67.6367C478.361 67.1992 478.406 66.7503 478.406 66.29V64.7656C478.406 64.3145 478.354 63.9134 478.249 63.5625C478.149 63.2116 478.007 62.9176 477.825 62.6807C477.647 62.4437 477.445 62.2637 477.217 62.1406C476.989 62.0176 476.747 61.9561 476.492 61.9561C476.201 61.9561 475.938 62.0153 475.706 62.1338C475.478 62.2477 475.285 62.4095 475.125 62.6191C474.97 62.8288 474.852 63.0749 474.77 63.3574C474.688 63.64 474.646 63.9476 474.646 64.2803C474.646 64.5765 474.683 64.8636 474.756 65.1416C474.829 65.4196 474.94 65.6702 475.091 65.8936C475.241 66.1169 475.428 66.2946 475.651 66.4268C475.879 66.5544 476.146 66.6182 476.451 66.6182C476.734 66.6182 476.998 66.5635 477.244 66.4541C477.495 66.3402 477.716 66.1875 477.907 65.9961C478.103 65.8001 478.258 65.5791 478.372 65.333C478.491 65.0869 478.559 64.8294 478.577 64.5605H479.179C479.179 64.9388 479.104 65.3125 478.953 65.6816C478.807 66.0462 478.602 66.3789 478.338 66.6797C478.074 66.9805 477.764 67.222 477.408 67.4043C477.053 67.582 476.665 67.6709 476.246 67.6709C475.754 67.6709 475.328 67.5752 474.968 67.3838C474.608 67.1924 474.312 66.9372 474.079 66.6182C473.851 66.2992 473.68 65.9437 473.566 65.5518C473.457 65.1553 473.402 64.7542 473.402 64.3486C473.402 63.8747 473.468 63.4303 473.601 63.0156C473.733 62.6009 473.929 62.2363 474.188 61.9219C474.448 61.6029 474.77 61.3545 475.152 61.1768C475.54 60.999 475.986 60.9102 476.492 60.9102C477.062 60.9102 477.547 61.0241 477.948 61.252C478.349 61.4798 478.675 61.7852 478.926 62.168C479.181 62.5508 479.368 62.9814 479.486 63.46C479.605 63.9385 479.664 64.4307 479.664 64.9365V65.3945C479.664 65.9095 479.63 66.4336 479.562 66.9668C479.498 67.4954 479.372 68.0013 479.186 68.4844C479.003 68.9674 478.737 69.4004 478.386 69.7832C478.035 70.1615 477.577 70.4622 477.012 70.6855C476.451 70.9043 475.758 71.0137 474.934 71.0137H474.804V69.9404ZM482.679 69.9404H482.809C483.538 69.9404 484.13 69.8379 484.586 69.6328C485.042 69.4277 485.393 69.152 485.639 68.8057C485.885 68.4593 486.053 68.0697 486.145 67.6367C486.236 67.1992 486.281 66.7503 486.281 66.29V64.7656C486.281 64.3145 486.229 63.9134 486.124 63.5625C486.024 63.2116 485.882 62.9176 485.7 62.6807C485.522 62.4437 485.32 62.2637 485.092 62.1406C484.864 62.0176 484.622 61.9561 484.367 61.9561C484.076 61.9561 483.813 62.0153 483.581 62.1338C483.353 62.2477 483.16 62.4095 483 62.6191C482.845 62.8288 482.727 63.0749 482.645 63.3574C482.562 63.64 482.521 63.9476 482.521 64.2803C482.521 64.5765 482.558 64.8636 482.631 65.1416C482.704 65.4196 482.815 65.6702 482.966 65.8936C483.116 66.1169 483.303 66.2946 483.526 66.4268C483.754 66.5544 484.021 66.6182 484.326 66.6182C484.609 66.6182 484.873 66.5635 485.119 66.4541C485.37 66.3402 485.591 66.1875 485.782 65.9961C485.978 65.8001 486.133 65.5791 486.247 65.333C486.366 65.0869 486.434 64.8294 486.452 64.5605H487.054C487.054 64.9388 486.979 65.3125 486.828 65.6816C486.682 66.0462 486.477 66.3789 486.213 66.6797C485.949 66.9805 485.639 67.222 485.283 67.4043C484.928 67.582 484.54 67.6709 484.121 67.6709C483.629 67.6709 483.203 67.5752 482.843 67.3838C482.483 67.1924 482.187 66.9372 481.954 66.6182C481.726 66.2992 481.555 65.9437 481.441 65.5518C481.332 65.1553 481.277 64.7542 481.277 64.3486C481.277 63.8747 481.343 63.4303 481.476 63.0156C481.608 62.6009 481.804 62.2363 482.063 61.9219C482.323 61.6029 482.645 61.3545 483.027 61.1768C483.415 60.999 483.861 60.9102 484.367 60.9102C484.937 60.9102 485.422 61.0241 485.823 61.252C486.224 61.4798 486.55 61.7852 486.801 62.168C487.056 62.5508 487.243 62.9814 487.361 63.46C487.48 63.9385 487.539 64.4307 487.539 64.9365V65.3945C487.539 65.9095 487.505 66.4336 487.437 66.9668C487.373 67.4954 487.247 68.0013 487.061 68.4844C486.878 68.9674 486.612 69.4004 486.261 69.7832C485.91 70.1615 485.452 70.4622 484.887 70.6855C484.326 70.9043 483.633 71.0137 482.809 71.0137H482.679V69.9404ZM489.187 63.4873V62.9609C489.187 62.5827 489.269 62.2386 489.433 61.9287C489.597 61.6188 489.831 61.3704 490.137 61.1836C490.442 60.9967 490.804 60.9033 491.224 60.9033C491.652 60.9033 492.017 60.9967 492.317 61.1836C492.623 61.3704 492.857 61.6188 493.021 61.9287C493.186 62.2386 493.268 62.5827 493.268 62.9609V63.4873C493.268 63.8564 493.186 64.196 493.021 64.5059C492.862 64.8158 492.63 65.0641 492.324 65.251C492.023 65.4378 491.661 65.5312 491.237 65.5312C490.813 65.5312 490.447 65.4378 490.137 65.251C489.831 65.0641 489.597 64.8158 489.433 64.5059C489.269 64.196 489.187 63.8564 489.187 63.4873ZM490.137 62.9609V63.4873C490.137 63.6969 490.175 63.8952 490.253 64.082C490.335 64.2689 490.458 64.4215 490.622 64.54C490.786 64.654 490.991 64.7109 491.237 64.7109C491.483 64.7109 491.686 64.654 491.846 64.54C492.005 64.4215 492.124 64.2689 492.201 64.082C492.279 63.8952 492.317 63.6969 492.317 63.4873V62.9609C492.317 62.7467 492.276 62.5462 492.194 62.3594C492.117 62.168 491.996 62.0153 491.832 61.9014C491.673 61.7829 491.47 61.7236 491.224 61.7236C490.982 61.7236 490.779 61.7829 490.615 61.9014C490.456 62.0153 490.335 62.168 490.253 62.3594C490.175 62.5462 490.137 62.7467 490.137 62.9609ZM494.033 69.0928V68.5596C494.033 68.1859 494.115 67.8441 494.279 67.5342C494.443 67.2243 494.678 66.9759 494.983 66.7891C495.289 66.6022 495.651 66.5088 496.07 66.5088C496.499 66.5088 496.863 66.6022 497.164 66.7891C497.469 66.9759 497.704 67.2243 497.868 67.5342C498.032 67.8441 498.114 68.1859 498.114 68.5596V69.0928C498.114 69.4665 498.032 69.8083 497.868 70.1182C497.709 70.4281 497.476 70.6764 497.171 70.8633C496.87 71.0501 496.508 71.1436 496.084 71.1436C495.66 71.1436 495.296 71.0501 494.99 70.8633C494.685 70.6764 494.448 70.4281 494.279 70.1182C494.115 69.8083 494.033 69.4665 494.033 69.0928ZM494.983 68.5596V69.0928C494.983 69.3024 495.022 69.5029 495.1 69.6943C495.182 69.8812 495.305 70.0339 495.469 70.1523C495.633 70.2663 495.838 70.3232 496.084 70.3232C496.33 70.3232 496.533 70.2663 496.692 70.1523C496.856 70.0339 496.977 69.8812 497.055 69.6943C497.132 69.5075 497.171 69.307 497.171 69.0928V68.5596C497.171 68.3454 497.13 68.1449 497.048 67.958C496.97 67.7712 496.85 67.6208 496.686 67.5068C496.526 67.3883 496.321 67.3291 496.07 67.3291C495.829 67.3291 495.626 67.3883 495.462 67.5068C495.302 67.6208 495.182 67.7712 495.1 67.958C495.022 68.1449 494.983 68.3454 494.983 68.5596ZM496.385 62.4619L491.524 70.2412L490.813 69.79L495.674 62.0107L496.385 62.4619Z" fill="#21272A"/>
<path d="M23.9997 112.71C20.3177 112.71 17.333 109.725 17.333 106.043C17.333 102.361 20.3177 99.3765 23.9997 99.3765C27.6817 99.3765 30.6663 102.361 30.6663 106.043C30.6663 109.725 27.6817 112.71 23.9997 112.71Z" fill="#DDE1E6"/>
<path d="M38.8281 99.625V111H37.3203V99.625H38.8281ZM43.5938 104.742V105.977H38.5V104.742H43.5938ZM44.3672 99.625V100.859H38.5V99.625H44.3672ZM49.2812 111.156C48.6927 111.156 48.1589 111.057 47.6797 110.859C47.2057 110.656 46.7969 110.372 46.4531 110.008C46.1146 109.643 45.8542 109.211 45.6719 108.711C45.4896 108.211 45.3984 107.664 45.3984 107.07V106.742C45.3984 106.055 45.5 105.443 45.7031 104.906C45.9062 104.365 46.1823 103.906 46.5312 103.531C46.8802 103.156 47.276 102.872 47.7188 102.68C48.1615 102.487 48.6198 102.391 49.0938 102.391C49.6979 102.391 50.2188 102.495 50.6562 102.703C51.099 102.911 51.4609 103.203 51.7422 103.578C52.0234 103.948 52.2318 104.385 52.3672 104.891C52.5026 105.391 52.5703 105.938 52.5703 106.531V107.18H46.2578V106H51.125V105.891C51.1042 105.516 51.026 105.151 50.8906 104.797C50.7604 104.443 50.5521 104.151 50.2656 103.922C49.9792 103.693 49.5885 103.578 49.0938 103.578C48.7656 103.578 48.4635 103.648 48.1875 103.789C47.9115 103.924 47.6745 104.128 47.4766 104.398C47.2786 104.669 47.125 105 47.0156 105.391C46.9062 105.781 46.8516 106.232 46.8516 106.742V107.07C46.8516 107.471 46.9062 107.849 47.0156 108.203C47.1302 108.552 47.2943 108.859 47.5078 109.125C47.7266 109.391 47.9896 109.599 48.2969 109.75C48.6094 109.901 48.9635 109.977 49.3594 109.977C49.8698 109.977 50.3021 109.872 50.6562 109.664C51.0104 109.456 51.3203 109.177 51.5859 108.828L52.4609 109.523C52.2786 109.799 52.0469 110.062 51.7656 110.312C51.4844 110.562 51.138 110.766 50.7266 110.922C50.3203 111.078 49.8385 111.156 49.2812 111.156ZM55.6953 104.227V111H54.2422V102.547H55.6172L55.6953 104.227ZM55.3984 106.453L54.7266 106.43C54.7318 105.852 54.8073 105.318 54.9531 104.828C55.099 104.333 55.3151 103.904 55.6016 103.539C55.888 103.174 56.2448 102.893 56.6719 102.695C57.099 102.492 57.5938 102.391 58.1562 102.391C58.5521 102.391 58.9167 102.448 59.25 102.562C59.5833 102.672 59.8724 102.846 60.1172 103.086C60.362 103.326 60.5521 103.633 60.6875 104.008C60.8229 104.383 60.8906 104.836 60.8906 105.367V111H59.4453V105.438C59.4453 104.995 59.3698 104.641 59.2188 104.375C59.0729 104.109 58.8646 103.917 58.5938 103.797C58.3229 103.672 58.0052 103.609 57.6406 103.609C57.2135 103.609 56.8568 103.685 56.5703 103.836C56.2839 103.987 56.0547 104.195 55.8828 104.461C55.7109 104.727 55.5859 105.031 55.5078 105.375C55.4349 105.714 55.3984 106.073 55.3984 106.453ZM60.875 105.656L59.9062 105.953C59.9115 105.49 59.987 105.044 60.1328 104.617C60.2839 104.19 60.5 103.81 60.7812 103.477C61.0677 103.143 61.4193 102.88 61.8359 102.688C62.2526 102.49 62.7292 102.391 63.2656 102.391C63.7188 102.391 64.1198 102.451 64.4688 102.57C64.8229 102.69 65.1198 102.875 65.3594 103.125C65.6042 103.37 65.7891 103.685 65.9141 104.07C66.0391 104.456 66.1016 104.914 66.1016 105.445V111H64.6484V105.43C64.6484 104.956 64.5729 104.589 64.4219 104.328C64.276 104.062 64.0677 103.878 63.7969 103.773C63.5312 103.664 63.2135 103.609 62.8438 103.609C62.526 103.609 62.2448 103.664 62 103.773C61.7552 103.883 61.5495 104.034 61.3828 104.227C61.2161 104.414 61.0885 104.63 61 104.875C60.9167 105.12 60.875 105.38 60.875 105.656ZM73.2734 109.555V105.203C73.2734 104.87 73.2057 104.581 73.0703 104.336C72.9401 104.086 72.7422 103.893 72.4766 103.758C72.2109 103.622 71.8828 103.555 71.4922 103.555C71.1276 103.555 70.8073 103.617 70.5312 103.742C70.2604 103.867 70.0469 104.031 69.8906 104.234C69.7396 104.438 69.6641 104.656 69.6641 104.891H68.2188C68.2188 104.589 68.2969 104.289 68.4531 103.992C68.6094 103.695 68.8333 103.427 69.125 103.188C69.4219 102.943 69.776 102.75 70.1875 102.609C70.6042 102.464 71.0677 102.391 71.5781 102.391C72.1927 102.391 72.7344 102.495 73.2031 102.703C73.6771 102.911 74.0469 103.227 74.3125 103.648C74.5833 104.065 74.7188 104.589 74.7188 105.219V109.156C74.7188 109.438 74.7422 109.737 74.7891 110.055C74.8411 110.372 74.9167 110.646 75.0156 110.875V111H73.5078C73.4349 110.833 73.3776 110.612 73.3359 110.336C73.2943 110.055 73.2734 109.794 73.2734 109.555ZM73.5234 105.875L73.5391 106.891H72.0781C71.6667 106.891 71.2995 106.924 70.9766 106.992C70.6536 107.055 70.3828 107.151 70.1641 107.281C69.9453 107.411 69.7786 107.576 69.6641 107.773C69.5495 107.966 69.4922 108.193 69.4922 108.453C69.4922 108.719 69.5521 108.961 69.6719 109.18C69.7917 109.398 69.9714 109.573 70.2109 109.703C70.4557 109.828 70.7552 109.891 71.1094 109.891C71.5521 109.891 71.9427 109.797 72.2812 109.609C72.6198 109.422 72.888 109.193 73.0859 108.922C73.2891 108.651 73.3984 108.388 73.4141 108.133L74.0312 108.828C73.9948 109.047 73.8958 109.289 73.7344 109.555C73.5729 109.82 73.3568 110.076 73.0859 110.32C72.8203 110.56 72.5026 110.76 72.1328 110.922C71.7682 111.078 71.3568 111.156 70.8984 111.156C70.3255 111.156 69.8229 111.044 69.3906 110.82C68.9635 110.596 68.6302 110.297 68.3906 109.922C68.1562 109.542 68.0391 109.117 68.0391 108.648C68.0391 108.195 68.1276 107.797 68.3047 107.453C68.4818 107.104 68.737 106.815 69.0703 106.586C69.4036 106.352 69.8047 106.174 70.2734 106.055C70.7422 105.935 71.2656 105.875 71.8438 105.875H73.5234ZM78.5625 99V111H77.1094V99H78.5625ZM84.3906 111.156C83.8021 111.156 83.2682 111.057 82.7891 110.859C82.3151 110.656 81.9062 110.372 81.5625 110.008C81.224 109.643 80.9635 109.211 80.7812 108.711C80.599 108.211 80.5078 107.664 80.5078 107.07V106.742C80.5078 106.055 80.6094 105.443 80.8125 104.906C81.0156 104.365 81.2917 103.906 81.6406 103.531C81.9896 103.156 82.3854 102.872 82.8281 102.68C83.2708 102.487 83.7292 102.391 84.2031 102.391C84.8073 102.391 85.3281 102.495 85.7656 102.703C86.2083 102.911 86.5703 103.203 86.8516 103.578C87.1328 103.948 87.3411 104.385 87.4766 104.891C87.612 105.391 87.6797 105.938 87.6797 106.531V107.18H81.3672V106H86.2344V105.891C86.2135 105.516 86.1354 105.151 86 104.797C85.8698 104.443 85.6615 104.151 85.375 103.922C85.0885 103.693 84.6979 103.578 84.2031 103.578C83.875 103.578 83.5729 103.648 83.2969 103.789C83.0208 103.924 82.7839 104.128 82.5859 104.398C82.388 104.669 82.2344 105 82.125 105.391C82.0156 105.781 81.9609 106.232 81.9609 106.742V107.07C81.9609 107.471 82.0156 107.849 82.125 108.203C82.2396 108.552 82.4036 108.859 82.6172 109.125C82.8359 109.391 83.099 109.599 83.4062 109.75C83.7188 109.901 84.0729 109.977 84.4688 109.977C84.9792 109.977 85.4115 109.872 85.7656 109.664C86.1198 109.456 86.4297 109.177 86.6953 108.828L87.5703 109.523C87.388 109.799 87.1562 110.062 86.875 110.312C86.5938 110.562 86.2474 110.766 85.8359 110.922C85.4297 111.078 84.9479 111.156 84.3906 111.156Z" fill="#21272A"/>
<path d="M386.336 99.6094H386.461V100.836H386.336C385.57 100.836 384.93 100.961 384.414 101.211C383.898 101.456 383.49 101.786 383.188 102.203C382.885 102.615 382.667 103.078 382.531 103.594C382.401 104.109 382.336 104.633 382.336 105.164V106.836C382.336 107.341 382.396 107.789 382.516 108.18C382.635 108.565 382.799 108.891 383.008 109.156C383.216 109.422 383.451 109.622 383.711 109.758C383.977 109.893 384.253 109.961 384.539 109.961C384.872 109.961 385.169 109.898 385.43 109.773C385.69 109.643 385.909 109.464 386.086 109.234C386.268 109 386.406 108.724 386.5 108.406C386.594 108.089 386.641 107.74 386.641 107.359C386.641 107.021 386.599 106.695 386.516 106.383C386.432 106.065 386.305 105.784 386.133 105.539C385.961 105.289 385.745 105.094 385.484 104.953C385.229 104.807 384.924 104.734 384.57 104.734C384.169 104.734 383.794 104.833 383.445 105.031C383.102 105.224 382.818 105.479 382.594 105.797C382.375 106.109 382.25 106.451 382.219 106.82L381.453 106.812C381.526 106.229 381.661 105.732 381.859 105.32C382.062 104.904 382.312 104.565 382.609 104.305C382.911 104.039 383.247 103.846 383.617 103.727C383.992 103.602 384.388 103.539 384.805 103.539C385.372 103.539 385.862 103.646 386.273 103.859C386.685 104.073 387.023 104.359 387.289 104.719C387.555 105.073 387.75 105.474 387.875 105.922C388.005 106.365 388.07 106.82 388.07 107.289C388.07 107.826 387.995 108.328 387.844 108.797C387.693 109.266 387.466 109.677 387.164 110.031C386.867 110.385 386.5 110.661 386.062 110.859C385.625 111.057 385.117 111.156 384.539 111.156C383.924 111.156 383.388 111.031 382.93 110.781C382.471 110.526 382.091 110.188 381.789 109.766C381.487 109.344 381.26 108.875 381.109 108.359C380.958 107.844 380.883 107.32 380.883 106.789V106.109C380.883 105.307 380.964 104.521 381.125 103.75C381.286 102.979 381.565 102.281 381.961 101.656C382.362 101.031 382.917 100.534 383.625 100.164C384.333 99.7943 385.237 99.6094 386.336 99.6094ZM395.336 99.6094H395.461V100.836H395.336C394.57 100.836 393.93 100.961 393.414 101.211C392.898 101.456 392.49 101.786 392.188 102.203C391.885 102.615 391.667 103.078 391.531 103.594C391.401 104.109 391.336 104.633 391.336 105.164V106.836C391.336 107.341 391.396 107.789 391.516 108.18C391.635 108.565 391.799 108.891 392.008 109.156C392.216 109.422 392.451 109.622 392.711 109.758C392.977 109.893 393.253 109.961 393.539 109.961C393.872 109.961 394.169 109.898 394.43 109.773C394.69 109.643 394.909 109.464 395.086 109.234C395.268 109 395.406 108.724 395.5 108.406C395.594 108.089 395.641 107.74 395.641 107.359C395.641 107.021 395.599 106.695 395.516 106.383C395.432 106.065 395.305 105.784 395.133 105.539C394.961 105.289 394.745 105.094 394.484 104.953C394.229 104.807 393.924 104.734 393.57 104.734C393.169 104.734 392.794 104.833 392.445 105.031C392.102 105.224 391.818 105.479 391.594 105.797C391.375 106.109 391.25 106.451 391.219 106.82L390.453 106.812C390.526 106.229 390.661 105.732 390.859 105.32C391.062 104.904 391.312 104.565 391.609 104.305C391.911 104.039 392.247 103.846 392.617 103.727C392.992 103.602 393.388 103.539 393.805 103.539C394.372 103.539 394.862 103.646 395.273 103.859C395.685 104.073 396.023 104.359 396.289 104.719C396.555 105.073 396.75 105.474 396.875 105.922C397.005 106.365 397.07 106.82 397.07 107.289C397.07 107.826 396.995 108.328 396.844 108.797C396.693 109.266 396.466 109.677 396.164 110.031C395.867 110.385 395.5 110.661 395.062 110.859C394.625 111.057 394.117 111.156 393.539 111.156C392.924 111.156 392.388 111.031 391.93 110.781C391.471 110.526 391.091 110.188 390.789 109.766C390.487 109.344 390.26 108.875 390.109 108.359C389.958 107.844 389.883 107.32 389.883 106.789V106.109C389.883 105.307 389.964 104.521 390.125 103.75C390.286 102.979 390.565 102.281 390.961 101.656C391.362 101.031 391.917 100.534 392.625 100.164C393.333 99.7943 394.237 99.6094 395.336 99.6094ZM400.258 109.281V110.445C400.258 110.919 400.138 111.419 399.898 111.945C399.659 112.477 399.323 112.919 398.891 113.273L398.07 112.703C398.237 112.474 398.378 112.24 398.492 112C398.607 111.766 398.693 111.521 398.75 111.266C398.812 111.016 398.844 110.75 398.844 110.469V109.281H400.258ZM409.633 107.172V108.359H401.414V107.508L406.508 99.625H407.688L406.422 101.906L403.055 107.172H409.633ZM408.047 99.625V111H406.602V99.625H408.047ZM418.086 104.406V106.141C418.086 107.073 418.003 107.859 417.836 108.5C417.669 109.141 417.43 109.656 417.117 110.047C416.805 110.438 416.427 110.721 415.984 110.898C415.547 111.07 415.052 111.156 414.5 111.156C414.062 111.156 413.659 111.102 413.289 110.992C412.919 110.883 412.586 110.708 412.289 110.469C411.997 110.224 411.747 109.906 411.539 109.516C411.331 109.125 411.172 108.651 411.062 108.094C410.953 107.536 410.898 106.885 410.898 106.141V104.406C410.898 103.474 410.982 102.693 411.148 102.062C411.32 101.432 411.562 100.927 411.875 100.547C412.188 100.161 412.562 99.8854 413 99.7188C413.443 99.5521 413.938 99.4688 414.484 99.4688C414.927 99.4688 415.333 99.5234 415.703 99.6328C416.078 99.737 416.411 99.9062 416.703 100.141C416.995 100.37 417.242 100.677 417.445 101.062C417.654 101.443 417.812 101.909 417.922 102.461C418.031 103.013 418.086 103.661 418.086 104.406ZM416.633 106.375V104.164C416.633 103.654 416.602 103.206 416.539 102.82C416.482 102.43 416.396 102.096 416.281 101.82C416.167 101.544 416.021 101.32 415.844 101.148C415.672 100.977 415.471 100.852 415.242 100.773C415.018 100.69 414.766 100.648 414.484 100.648C414.141 100.648 413.836 100.714 413.57 100.844C413.305 100.969 413.081 101.169 412.898 101.445C412.721 101.721 412.586 102.083 412.492 102.531C412.398 102.979 412.352 103.523 412.352 104.164V106.375C412.352 106.885 412.38 107.336 412.438 107.727C412.5 108.117 412.591 108.456 412.711 108.742C412.831 109.023 412.977 109.255 413.148 109.438C413.32 109.62 413.518 109.755 413.742 109.844C413.971 109.927 414.224 109.969 414.5 109.969C414.854 109.969 415.164 109.901 415.43 109.766C415.695 109.63 415.917 109.419 416.094 109.133C416.276 108.841 416.411 108.469 416.5 108.016C416.589 107.557 416.633 107.01 416.633 106.375ZM421.773 105.586L420.617 105.289L421.188 99.625H427.023V100.961H422.414L422.07 104.055C422.279 103.935 422.542 103.823 422.859 103.719C423.182 103.615 423.552 103.562 423.969 103.562C424.495 103.562 424.966 103.654 425.383 103.836C425.799 104.013 426.154 104.268 426.445 104.602C426.742 104.935 426.969 105.336 427.125 105.805C427.281 106.273 427.359 106.797 427.359 107.375C427.359 107.922 427.284 108.424 427.133 108.883C426.987 109.341 426.766 109.742 426.469 110.086C426.172 110.424 425.797 110.688 425.344 110.875C424.896 111.062 424.367 111.156 423.758 111.156C423.299 111.156 422.865 111.094 422.453 110.969C422.047 110.839 421.682 110.643 421.359 110.383C421.042 110.117 420.781 109.789 420.578 109.398C420.38 109.003 420.255 108.539 420.203 108.008H421.578C421.641 108.435 421.766 108.794 421.953 109.086C422.141 109.378 422.385 109.599 422.688 109.75C422.995 109.896 423.352 109.969 423.758 109.969C424.102 109.969 424.406 109.909 424.672 109.789C424.938 109.669 425.161 109.497 425.344 109.273C425.526 109.049 425.664 108.779 425.758 108.461C425.857 108.143 425.906 107.786 425.906 107.391C425.906 107.031 425.857 106.698 425.758 106.391C425.659 106.083 425.51 105.815 425.312 105.586C425.12 105.357 424.883 105.18 424.602 105.055C424.32 104.924 423.997 104.859 423.633 104.859C423.148 104.859 422.781 104.924 422.531 105.055C422.286 105.185 422.034 105.362 421.773 105.586Z" fill="#21272A"/>
<rect x="444" y="94" width="64" height="24" rx="12" fill="#F2F4F8"/>
<path d="M458.261 100.992V111H456.996V102.571L454.446 103.501V102.359L458.062 100.992H458.261ZM468.228 105.23V106.748C468.228 107.564 468.155 108.252 468.009 108.812C467.863 109.373 467.653 109.824 467.38 110.166C467.106 110.508 466.776 110.756 466.389 110.911C466.006 111.062 465.573 111.137 465.09 111.137C464.707 111.137 464.354 111.089 464.03 110.993C463.707 110.897 463.415 110.745 463.155 110.535C462.9 110.321 462.681 110.043 462.499 109.701C462.317 109.359 462.178 108.945 462.082 108.457C461.986 107.969 461.938 107.4 461.938 106.748V105.23C461.938 104.415 462.011 103.731 462.157 103.18C462.308 102.628 462.52 102.186 462.793 101.854C463.066 101.516 463.395 101.275 463.777 101.129C464.165 100.983 464.598 100.91 465.076 100.91C465.464 100.91 465.819 100.958 466.143 101.054C466.471 101.145 466.762 101.293 467.018 101.498C467.273 101.699 467.489 101.967 467.667 102.305C467.849 102.637 467.988 103.045 468.084 103.528C468.18 104.011 468.228 104.579 468.228 105.23ZM466.956 106.953V105.019C466.956 104.572 466.929 104.18 466.874 103.843C466.824 103.501 466.749 103.209 466.648 102.968C466.548 102.726 466.421 102.53 466.266 102.38C466.115 102.229 465.94 102.12 465.739 102.052C465.543 101.979 465.322 101.942 465.076 101.942C464.775 101.942 464.509 101.999 464.276 102.113C464.044 102.223 463.848 102.398 463.688 102.64C463.534 102.881 463.415 103.198 463.333 103.59C463.251 103.982 463.21 104.458 463.21 105.019V106.953C463.21 107.4 463.235 107.794 463.285 108.136C463.34 108.478 463.42 108.774 463.524 109.024C463.629 109.271 463.757 109.473 463.907 109.633C464.058 109.792 464.231 109.911 464.427 109.988C464.627 110.061 464.848 110.098 465.09 110.098C465.4 110.098 465.671 110.038 465.903 109.92C466.136 109.801 466.329 109.617 466.484 109.366C466.644 109.111 466.762 108.785 466.84 108.389C466.917 107.988 466.956 107.509 466.956 106.953ZM470.012 110.33C470.012 110.116 470.078 109.936 470.21 109.79C470.347 109.64 470.543 109.564 470.798 109.564C471.053 109.564 471.247 109.64 471.379 109.79C471.516 109.936 471.584 110.116 471.584 110.33C471.584 110.54 471.516 110.717 471.379 110.863C471.247 111.009 471.053 111.082 470.798 111.082C470.543 111.082 470.347 111.009 470.21 110.863C470.078 110.717 470.012 110.54 470.012 110.33ZM475.146 106.263L474.134 106.003L474.633 101.047H479.739V102.216H475.706L475.405 104.923C475.588 104.818 475.818 104.72 476.096 104.629C476.378 104.538 476.702 104.492 477.066 104.492C477.527 104.492 477.939 104.572 478.304 104.731C478.668 104.886 478.978 105.11 479.233 105.401C479.493 105.693 479.691 106.044 479.828 106.454C479.965 106.864 480.033 107.322 480.033 107.828C480.033 108.307 479.967 108.746 479.835 109.147C479.707 109.549 479.514 109.899 479.254 110.2C478.994 110.496 478.666 110.727 478.27 110.891C477.878 111.055 477.415 111.137 476.882 111.137C476.481 111.137 476.1 111.082 475.74 110.973C475.385 110.859 475.066 110.688 474.783 110.46C474.505 110.228 474.277 109.94 474.1 109.599C473.926 109.252 473.817 108.847 473.771 108.382H474.975C475.029 108.756 475.139 109.07 475.303 109.325C475.467 109.58 475.681 109.774 475.945 109.906C476.214 110.034 476.526 110.098 476.882 110.098C477.183 110.098 477.449 110.045 477.682 109.94C477.914 109.836 478.11 109.685 478.27 109.489C478.429 109.293 478.55 109.056 478.632 108.778C478.718 108.5 478.762 108.188 478.762 107.842C478.762 107.527 478.718 107.236 478.632 106.967C478.545 106.698 478.415 106.463 478.242 106.263C478.074 106.062 477.866 105.907 477.62 105.798C477.374 105.684 477.091 105.627 476.772 105.627C476.349 105.627 476.027 105.684 475.809 105.798C475.594 105.912 475.373 106.067 475.146 106.263ZM483.021 106.263L482.009 106.003L482.508 101.047H487.614V102.216H483.581L483.28 104.923C483.463 104.818 483.693 104.72 483.971 104.629C484.253 104.538 484.577 104.492 484.941 104.492C485.402 104.492 485.814 104.572 486.179 104.731C486.543 104.886 486.853 105.11 487.108 105.401C487.368 105.693 487.566 106.044 487.703 106.454C487.84 106.864 487.908 107.322 487.908 107.828C487.908 108.307 487.842 108.746 487.71 109.147C487.582 109.549 487.389 109.899 487.129 110.2C486.869 110.496 486.541 110.727 486.145 110.891C485.753 111.055 485.29 111.137 484.757 111.137C484.356 111.137 483.975 111.082 483.615 110.973C483.26 110.859 482.941 110.688 482.658 110.46C482.38 110.228 482.152 109.94 481.975 109.599C481.801 109.252 481.692 108.847 481.646 108.382H482.85C482.904 108.756 483.014 109.07 483.178 109.325C483.342 109.58 483.556 109.774 483.82 109.906C484.089 110.034 484.401 110.098 484.757 110.098C485.058 110.098 485.324 110.045 485.557 109.94C485.789 109.836 485.985 109.685 486.145 109.489C486.304 109.293 486.425 109.056 486.507 108.778C486.593 108.5 486.637 108.188 486.637 107.842C486.637 107.527 486.593 107.236 486.507 106.967C486.42 106.698 486.29 106.463 486.117 106.263C485.949 106.062 485.741 105.907 485.495 105.798C485.249 105.684 484.966 105.627 484.647 105.627C484.224 105.627 483.902 105.684 483.684 105.798C483.469 105.912 483.248 106.067 483.021 106.263ZM489.187 103.487V102.961C489.187 102.583 489.269 102.239 489.433 101.929C489.597 101.619 489.831 101.37 490.137 101.184C490.442 100.997 490.804 100.903 491.224 100.903C491.652 100.903 492.017 100.997 492.317 101.184C492.623 101.37 492.857 101.619 493.021 101.929C493.186 102.239 493.268 102.583 493.268 102.961V103.487C493.268 103.856 493.186 104.196 493.021 104.506C492.862 104.816 492.63 105.064 492.324 105.251C492.023 105.438 491.661 105.531 491.237 105.531C490.813 105.531 490.447 105.438 490.137 105.251C489.831 105.064 489.597 104.816 489.433 104.506C489.269 104.196 489.187 103.856 489.187 103.487ZM490.137 102.961V103.487C490.137 103.697 490.175 103.895 490.253 104.082C490.335 104.269 490.458 104.422 490.622 104.54C490.786 104.654 490.991 104.711 491.237 104.711C491.483 104.711 491.686 104.654 491.846 104.54C492.005 104.422 492.124 104.269 492.201 104.082C492.279 103.895 492.317 103.697 492.317 103.487V102.961C492.317 102.747 492.276 102.546 492.194 102.359C492.117 102.168 491.996 102.015 491.832 101.901C491.673 101.783 491.47 101.724 491.224 101.724C490.982 101.724 490.779 101.783 490.615 101.901C490.456 102.015 490.335 102.168 490.253 102.359C490.175 102.546 490.137 102.747 490.137 102.961ZM494.033 109.093V108.56C494.033 108.186 494.115 107.844 494.279 107.534C494.443 107.224 494.678 106.976 494.983 106.789C495.289 106.602 495.651 106.509 496.07 106.509C496.499 106.509 496.863 106.602 497.164 106.789C497.469 106.976 497.704 107.224 497.868 107.534C498.032 107.844 498.114 108.186 498.114 108.56V109.093C498.114 109.466 498.032 109.808 497.868 110.118C497.709 110.428 497.476 110.676 497.171 110.863C496.87 111.05 496.508 111.144 496.084 111.144C495.66 111.144 495.296 111.05 494.99 110.863C494.685 110.676 494.448 110.428 494.279 110.118C494.115 109.808 494.033 109.466 494.033 109.093ZM494.983 108.56V109.093C494.983 109.302 495.022 109.503 495.1 109.694C495.182 109.881 495.305 110.034 495.469 110.152C495.633 110.266 495.838 110.323 496.084 110.323C496.33 110.323 496.533 110.266 496.692 110.152C496.856 110.034 496.977 109.881 497.055 109.694C497.132 109.507 497.171 109.307 497.171 109.093V108.56C497.171 108.345 497.13 108.145 497.048 107.958C496.97 107.771 496.85 107.621 496.686 107.507C496.526 107.388 496.321 107.329 496.07 107.329C495.829 107.329 495.626 107.388 495.462 107.507C495.302 107.621 495.182 107.771 495.1 107.958C495.022 108.145 494.983 108.345 494.983 108.56ZM496.385 102.462L491.524 110.241L490.813 109.79L495.674 102.011L496.385 102.462Z" fill="#21272A"/>
</svg>
